<?xml version="1.0" encoding="UTF-8" standalone="no"?>
<svg xmlns:rdf="http://www.w3.org/1999/02/22-rdf-syntax-ns#" xmlns="http://www.w3.org/2000/svg" height="16" width="16" version="1.1" xmlns:cc="http://creativecommons.org/ns#" xmlns:xlink="http://www.w3.org/1999/xlink" xmlns:dc="http://purl.org/dc/elements/1.1/">
 <defs>
  <linearGradient id="a">
   <stop stop-color="#fff" offset="0"/>
   <stop stop-color="#e6e6e6" offset="1"/>
  </linearGradient>
  <linearGradient id="c" y2="9.4203" xlink:href="#a" gradientUnits="userSpaceOnUse" x2="9" gradientTransform="matrix(.94666 0 0 1.0875 -.51992 -.18742)" x1="9"/>
  <linearGradient id="b" y2="15" xlink:href="#a" gradientUnits="userSpaceOnUse" x2="9" gradientTransform="matrix(.96455 0 0 1.3694 -.68091 -5.3133)" y1="4" x1="9"/>
 </defs>
 <g stroke-linecap="round" fill="none">
  <path stroke-linejoin="round" opacity=".5" d="m4 15 1-2m5-2.5-2-3.5l-2 3.5h4l1 2.5m1 2-1-2h-6l1-2.5" stroke="#000" stroke-width="1.5"/>
  <path opacity=".5" d="m6.8139 7.7c-0.63111-1.0875-0.63111-1.8125 0-2.9m2.3722 2.9c0.63111-1.0875 0.63111-1.8125 0-2.9m-4.5306 4.3499c-1.2622-2.175-1.2622-3.6249 0-5.7999m6.6889 5.7999c1.2622-2.175 1.2622-3.6249 0-5.7999m-9.0239 7.25c-1.8933-3.2625-1.8933-5.4374 0-8.6999m11.36 8.6999c1.8933-3.2625 1.8933-5.4374 0-8.6999" stroke="#000" stroke-width="1.6"/>
  <path stroke-linejoin="round" d="m4 14 1-2m5-2.5-2-3.5-2 3.5h4l1 2.5m1 2-1-2h-6l1-2.5" stroke="url(#b)" stroke-width="1.5"/>
  <path d="m6.8139 6.7c-0.63111-1.0875-0.63111-1.8125 0-2.9m2.3722 2.9c0.63111-1.0875 0.63111-1.8125 0-2.9m-4.5306 4.3499c-1.2622-2.175-1.2622-3.6249 0-5.7999m6.6889 5.7999c1.2622-2.175 1.2622-3.6249 0-5.7999m-9.0239 7.2499c-1.8933-3.2625-1.8933-5.4374 0-8.6999m11.36 8.6999c1.8933-3.2625 1.8933-5.4374 0-8.6999" stroke="url(#c)" stroke-width="1.6"/>
 </g>
</svg>
