<?xml version="1.0" encoding="UTF-8" standalone="no"?>
<svg xmlns:rdf="http://www.w3.org/1999/02/22-rdf-syntax-ns#" xmlns="http://www.w3.org/2000/svg" height="16" width="32" version="1.1" xmlns:cc="http://creativecommons.org/ns#" xmlns:dc="http://purl.org/dc/elements/1.1/">
 <g transform="matrix(1.0256 0 0 1.0256 -.20513 -.076923)">
  <g stroke="#000">
   <g opacity=".6" transform="translate(0,1.95)">
    <g stroke-width="1.6">
     <path d="m1 8c4-5 10-5 14 0" fill="none"/>
     <path d="m2 7c3.075 2.825 8.925 2.825 12 0" fill="none"/>
     <path d="m8 4.5c2 1 2 3.35 2e-7 4.35-2-1-2-3.35 0-4.35z" stroke-linecap="round"/>
    </g>
    <g stroke-width="1px" fill="none">
     <path d="m3 6-2-2" transform="matrix(0.975 0 0 0.975 .2 0.075)"/>
     <path d="m13 6 2-2" transform="matrix(0.975 0 0 0.975 .2 0.075)"/>
     <path d="m8 4v-2" transform="matrix(0.975 0 0 0.975 .2 0.075)"/>
     <path d="m11 5 1-2" transform="matrix(0.975 0 0 0.975 .2 0.075)"/>
     <path d="m5 5-1-2" transform="matrix(0.975 0 0 0.975 .2 0.075)"/>
    </g>
   </g>
   <path d="m2 13 12-10" transform="matrix(0.975 0 0 0.975 .2 0.075)" stroke-width="3" fill="none"/>
   <path d="m2 3 12 10" transform="matrix(0.975 0 0 0.975 .2 0.075)" stroke-width="3" fill="none"/>
  </g>
  <g transform="matrix(0.975 0 0 0.975 15.8 .074850)">
   <g transform="matrix(1.0256 0 0 1.0256 -.20513 -.076923)">
    <g stroke="#000" transform="translate(0,1.95)">
     <g stroke-width="1.6">
      <path d="m1 8c4-5 10-5 14 0" fill="none"/>
      <path d="m2 7c3.075 2.825 8.925 2.825 12 0" fill="none"/>
      <path d="m8 4.5c2 1 2 3.35 2e-7 4.35-2-1-2-3.35 0-4.35z" stroke-linecap="round"/>
     </g>
     <g stroke-width="1px" fill="none">
      <path d="m3 6-2-2" transform="matrix(0.975 0 0 0.975 .2 0.075)"/>
      <path d="m13 6 2-2" transform="matrix(0.975 0 0 0.975 .2 0.075)"/>
      <path d="m8 4v-2" transform="matrix(0.975 0 0 0.975 .2 0.075)"/>
      <path d="m11 5 1-2" transform="matrix(0.975 0 0 0.975 .2 0.075)"/>
      <path d="m5 5-1-2" transform="matrix(0.975 0 0 0.975 .2 0.075)"/>
     </g>
    </g>
   </g>
  </g>
 </g>
</svg>
