<?xml version="1.0" encoding="UTF-8" standalone="no"?>
<svg xmlns:rdf="http://www.w3.org/1999/02/22-rdf-syntax-ns#" xmlns="http://www.w3.org/2000/svg" height="32" width="32" version="1.0" xmlns:cc="http://creativecommons.org/ns#" xmlns:dc="http://purl.org/dc/elements/1.1/">
 <path d="m5 2c-2.216 0-4 1.784-4 4v20c0 2.216 1.784 4 4 4h22c2.216 0 4-1.784 4-4v-20c0-2.216-1.784-4-4-4h-22zm5 6 16 8-16 8v-16z" fill="#FFF"/>
 <path opacity=".1" d="m5 3c-2.216 0-4 1.784-4 4v20c0 2.216 1.784 4 4 4h22c2.216 0 4-1.784 4-4v-20c0-2.216-1.784-4-4-4h-22zm5 6 16 8-16 8v-16z" fill="#FFF"/>
</svg>
