<?xml version="1.0" encoding="UTF-8" standalone="no"?>
<svg
   xmlns:dc="http://purl.org/dc/elements/1.1/"
   xmlns:cc="http://creativecommons.org/ns#"
   xmlns:rdf="http://www.w3.org/1999/02/22-rdf-syntax-ns#"
   xmlns:svg="http://www.w3.org/2000/svg"
   xmlns="http://www.w3.org/2000/svg"
   xmlns:sodipodi="http://sodipodi.sourceforge.net/DTD/sodipodi-0.dtd"
   xmlns:inkscape="http://www.inkscape.org/namespaces/inkscape"
   version="1.1"
   x="0px"
   y="0px"
   width="16"
   height="16"
   viewBox="0 0 16 16"
   xml:space="preserve"
   id="svg2"
   inkscape:version="0.48.4 r9939"
   sodipodi:docname="reload.svg"><title
   id="title2987">reload</title><metadata
   id="metadata10"><rdf:RDF><cc:Work
       rdf:about=""><dc:format>image/svg+xml</dc:format><dc:type
         rdf:resource="http://purl.org/dc/dcmitype/StillImage" /><dc:title>reload</dc:title><dc:creator><cc:Agent><dc:title>Christian Reiner</dc:title></cc:Agent></dc:creator><dc:rights><cc:Agent><dc:title>Copyright 2012, Christian Reiner, Hamburg, Germany</dc:title></cc:Agent></dc:rights><dc:publisher><cc:Agent><dc:title>Christian Reiner</dc:title></cc:Agent></dc:publisher><dc:subject><rdf:Bag><rdf:li>reload</rdf:li><rdf:li>action</rdf:li></rdf:Bag></dc:subject><cc:license
         rdf:resource="http://creativecommons.org/licenses/by-nc-sa/3.0/" /></cc:Work><cc:License
       rdf:about="http://creativecommons.org/licenses/by-nc-sa/3.0/"><cc:permits
         rdf:resource="http://creativecommons.org/ns#Reproduction" /><cc:permits
         rdf:resource="http://creativecommons.org/ns#Distribution" /><cc:requires
         rdf:resource="http://creativecommons.org/ns#Notice" /><cc:requires
         rdf:resource="http://creativecommons.org/ns#Attribution" /><cc:prohibits
         rdf:resource="http://creativecommons.org/ns#CommercialUse" /><cc:permits
         rdf:resource="http://creativecommons.org/ns#DerivativeWorks" /><cc:requires
         rdf:resource="http://creativecommons.org/ns#ShareAlike" /></cc:License></rdf:RDF></metadata><defs
   id="defs8" /><sodipodi:namedview
   pagecolor="#ffffff"
   bordercolor="#666666"
   borderopacity="1"
   objecttolerance="10"
   gridtolerance="10"
   guidetolerance="10"
   inkscape:pageopacity="0"
   inkscape:pageshadow="2"
   inkscape:window-width="1920"
   inkscape:window-height="1114"
   id="namedview6"
   showgrid="false"
   inkscape:zoom="154.63045"
   inkscape:cx="13.245288"
   inkscape:cy="7.8168116"
   inkscape:window-x="-4"
   inkscape:window-y="-4"
   inkscape:window-maximized="1"
   inkscape:current-layer="svg2" />
  <path
   d="m 3.1830745,8.1334604 c 0,-2.7162404 2.1827435,-4.9193702 4.873984,-4.9193702 1.1626594,0 2.2244325,0.4185605 3.0599485,1.1056014 L 9.2006315,6.1602814 15.256604,6.8554562 15.305379,0.29682664 13.441173,2.0880621 C 12.014452,0.79134422 10.13134,-0.00131533 8.0602698,-0.00131533 3.6085586,-0.00131533 0,3.6413352 0,8.1335824 0,8.301276 0.01466358,7.9950003 0.02508535,8.1607977 L 3.2777206,8.6228408 C 3.2170669,8.3116722 3.1830745,8.4617523 3.1830745,8.1334604 z M 15.978995,7.8387435 12.726298,7.3767 c 0.06162,0.3110459 0.09429,0.1600486 0.09429,0.4887691 0,2.7162389 -2.181835,4.9189419 -4.8734999,4.9189419 -1.1593271,0 -2.2178272,-0.415748 -3.0528596,-1.098996 L 6.8086597,9.8459253 0.75359565,9.1508119 0.70439428,15.709931 2.569994,13.917289 C 3.9958091,15.210214 5.8765571,16 7.9438708,16 12.395521,16 16.00414,12.357778 16.00414,7.8655914 c 0,-0.1673264 -0.01515,0.1388882 -0.02515,-0.026849 z"
   id="path4"
   inkscape:connector-curvature="0" />
</svg>