<?xml version="1.0" encoding="UTF-8" standalone="no"?>
<!-- Created using Karbon, part of Calligra: http://www.calligra.org/karbon -->

<svg
   xmlns:dc="http://purl.org/dc/elements/1.1/"
   xmlns:cc="http://creativecommons.org/ns#"
   xmlns:rdf="http://www.w3.org/1999/02/22-rdf-syntax-ns#"
   xmlns:svg="http://www.w3.org/2000/svg"
   xmlns="http://www.w3.org/2000/svg"
   xmlns:xlink="http://www.w3.org/1999/xlink"
   xmlns:sodipodi="http://sodipodi.sourceforge.net/DTD/sodipodi-0.dtd"
   xmlns:inkscape="http://www.inkscape.org/namespaces/inkscape"
   width="16"
   height="16"
   id="svg2984"
   version="1.1"
   inkscape:version="0.48.4 r9939"
   sodipodi:docname="bad.svg">
  <title
     id="title3407">bad</title>
  <metadata
     id="metadata3086">
    <rdf:RDF>
      <cc:Work
         rdf:about="">
        <dc:format>image/svg+xml</dc:format>
        <dc:type
           rdf:resource="http://purl.org/dc/dcmitype/StillImage" />
        <cc:license
           rdf:resource="http://creativecommons.org/licenses/by-nc-sa/3.0/" />
        <dc:title>bad</dc:title>
        <dc:creator>
          <cc:Agent>
            <dc:title>Chistian Reiner</dc:title>
          </cc:Agent>
        </dc:creator>
        <dc:rights>
          <cc:Agent>
            <dc:title>Copyright 2013, Chistian Reiner, Hamburg, Germany</dc:title>
          </cc:Agent>
        </dc:rights>
        <dc:publisher>
          <cc:Agent>
            <dc:title>Chistian Reiner</dc:title>
          </cc:Agent>
        </dc:publisher>
        <dc:subject>
          <rdf:Bag>
            <rdf:li>bad</rdf:li>
            <rdf:li>status</rdf:li>
          </rdf:Bag>
        </dc:subject>
      </cc:Work>
      <cc:License
         rdf:about="http://creativecommons.org/licenses/by-nc-sa/3.0/">
        <cc:permits
           rdf:resource="http://creativecommons.org/ns#Reproduction" />
        <cc:permits
           rdf:resource="http://creativecommons.org/ns#Distribution" />
        <cc:requires
           rdf:resource="http://creativecommons.org/ns#Notice" />
        <cc:requires
           rdf:resource="http://creativecommons.org/ns#Attribution" />
        <cc:prohibits
           rdf:resource="http://creativecommons.org/ns#CommercialUse" />
        <cc:permits
           rdf:resource="http://creativecommons.org/ns#DerivativeWorks" />
        <cc:requires
           rdf:resource="http://creativecommons.org/ns#ShareAlike" />
      </cc:License>
    </rdf:RDF>
  </metadata>
  <sodipodi:namedview
     pagecolor="#ffffff"
     bordercolor="#666666"
     borderopacity="1"
     objecttolerance="10"
     gridtolerance="10"
     guidetolerance="10"
     inkscape:pageopacity="0"
     inkscape:pageshadow="2"
     inkscape:window-width="1920"
     inkscape:window-height="1114"
     id="namedview3084"
     showgrid="false"
     inkscape:zoom="118"
     inkscape:cx="4.9102387"
     inkscape:cy="6.5715741"
     inkscape:window-x="-4"
     inkscape:window-y="-4"
     inkscape:window-maximized="1"
     inkscape:current-layer="svg2984" />
  <defs
     id="defs2986">
    <filter
       id="filter0"
       filterUnits="objectBoundingBox"
       primitiveUnits="objectBoundingBox"
       x="-0.1"
       y="-0.1"
       width="1.2"
       height="1.2"
       color-interpolation-filters="sRGB">
      <feGaussianBlur
         result=""
         x="0.00000000000"
         y="0.00000000000"
         width="1.00000000000"
         height="1.00000000000"
         stdDeviation="0.0272727, 0.025"
         id="feGaussianBlur2989" />
    </filter>
    <filter
       id="filter1"
       filterUnits="objectBoundingBox"
       primitiveUnits="objectBoundingBox"
       x="-0.1"
       y="-0.1"
       width="1.2"
       height="1.2"
       color-interpolation-filters="sRGB">
      <feGaussianBlur
         result=""
         x="0.00000000000"
         y="0.00000000000"
         width="1.00000000000"
         height="1.00000000000"
         stdDeviation="0.0272727, 0.025"
         id="feGaussianBlur2992" />
    </filter>
    <radialGradient
       id="gradient0"
       gradientTransform="scale(0.95742711,1.0444659)"
       gradientUnits="userSpaceOnUse"
       cx="66.845818"
       cy="61.275337"
       fx="66.845818"
       fy="61.275337"
       r="31.05394"
       spreadMethod="pad">
      <stop
         stop-color="#eeeeee"
         offset="0.00000000000"
         stop-opacity="1.00000000000"
         id="stop2995" />
      <stop
         stop-color="#babdb6"
         offset="1.00000000000"
         stop-opacity="1.00000000000"
         id="stop2997" />
    </radialGradient>
    <filter
       id="filter2"
       filterUnits="objectBoundingBox"
       primitiveUnits="objectBoundingBox"
       x="-0.1"
       y="-0.1"
       width="1.2"
       height="1.2"
       color-interpolation-filters="sRGB">
      <feGaussianBlur
         result=""
         x="0.00000000000"
         y="0.00000000000"
         width="1.00000000000"
         height="1.00000000000"
         stdDeviation="0.0196023, 0.0179688"
         id="feGaussianBlur3000" />
    </filter>
    <clipPath
       id="clippath0"
       clipPathUnits="userSpaceOnUse">
      <path
         d="M 36.25,1.47245 C 26.7775,10.9408 6.92707,19.3862 0,21.3116 0,51.0518 19.9547,96 44,96 67.9916,96 88,51.0518 88,21.3116 81.0729,19.3862 61.2225,10.9408 51.75,1.47245 c -2.6875,-1.963849 -12.8124,-1.962681 -15.5,0 z"
         id="path3003"
         inkscape:connector-curvature="0" />
    </clipPath>
    <linearGradient
       id="gradient1"
       gradientTransform="scale(0.95742711,1.0444659)"
       gradientUnits="userSpaceOnUse"
       x1="104.31459"
       y1="71.9235"
       x2="61.97908"
       y2="61.279572"
       spreadMethod="pad">
      <stop
         stop-color="#000000"
         offset="0.00000000000"
         stop-opacity="1.00000000000"
         id="stop3006" />
      <stop
         stop-color="#000000"
         offset="1.00000000000"
         stop-opacity="0.00000000000"
         id="stop3008" />
    </linearGradient>
    <linearGradient
       id="gradient2"
       gradientTransform="scale(1.6566953,0.60361129)"
       gradientUnits="userSpaceOnUse"
       x1="39.313881"
       y1="15.859876"
       x2="39.313881"
       y2="100.30147"
       spreadMethod="pad">
      <stop
         stop-color="#ffffff"
         offset="0.00000000000"
         stop-opacity="1.00000000000"
         id="stop3011" />
      <stop
         stop-color="#ffffff"
         offset="1.00000000000"
         stop-opacity="0.00000000000"
         id="stop3013" />
    </linearGradient>
    <linearGradient
       id="gradient3"
       gradientTransform="scale(2.8610336,0.34952403)"
       gradientUnits="userSpaceOnUse"
       x1="22.764893"
       y1="27.389277"
       x2="22.764893"
       y2="173.21602"
       spreadMethod="pad">
      <stop
         stop-color="#ffffff"
         offset="0.00000000000"
         stop-opacity="1.00000000000"
         id="stop3016" />
      <stop
         stop-color="#ffffff"
         offset="1.00000000000"
         stop-opacity="0.00000000000"
         id="stop3018" />
    </linearGradient>
    <radialGradient
       id="gradient4"
       gradientTransform="scale(0.95742711,1.0444659)"
       gradientUnits="userSpaceOnUse"
       cx="66.845818"
       cy="61.275337"
       fx="66.845833"
       fy="48.409798"
       r="31.05394"
       spreadMethod="pad">
      <stop
         stop-color="#ffffff"
         offset="0.00000000000"
         stop-opacity="1.00000000000"
         id="stop3021" />
      <stop
         stop-color="#ffffff"
         offset="1.00000000000"
         stop-opacity="0.00000000000"
         id="stop3023" />
    </radialGradient>
    <radialGradient
       id="gradient5"
       gradientTransform="scale(0.95742683,1.0444662)"
       gradientUnits="userSpaceOnUse"
       cx="66.84584"
       cy="50.094776"
       fx="66.683098"
       fy="45.772987"
       r="25.407776"
       spreadMethod="pad">
      <stop
         stop-color="#ff0000"
         offset="0.00000000000"
         stop-opacity="1.00000000000"
         id="stop3026" />
      <stop
         stop-color="#590000"
         offset="1.00000000000"
         stop-opacity="1.00000000000"
         id="stop3028" />
    </radialGradient>
    <linearGradient
       id="gradient6"
       gradientTransform="scale(0.95742683,1.0444662)"
       gradientUnits="userSpaceOnUse"
       x1="66.84584"
       y1="23.67457"
       x2="66.84584"
       y2="81.381325"
       spreadMethod="pad">
      <stop
         stop-color="#000000"
         offset="0.00000000000"
         stop-opacity="1.00000000000"
         id="stop3031" />
      <stop
         stop-color="#000000"
         offset="1.00000000000"
         stop-opacity="0.00000000000"
         id="stop3033" />
    </linearGradient>
    <filter
       id="filter3"
       filterUnits="objectBoundingBox"
       primitiveUnits="objectBoundingBox"
       x="-0.12421242"
       y="-0.11386138"
       width="1.2484248"
       height="1.2277228"
       color-interpolation-filters="sRGB">
      <feGaussianBlur
         result=""
         x="0.00000000000"
         y="0.00000000000"
         width="1.00000000000"
         height="1.00000000000"
         stdDeviation="0.064694, 0.0593028"
         id="feGaussianBlur3036" />
    </filter>
    <clipPath
       id="clippath1"
       clipPathUnits="userSpaceOnUse">
      <path
         d="M 29.6591,1.20473 C 21.9089,8.9516 5.66761,15.8614 0,17.4367 c 0,24.333 16.3266,61.1088 36,61.1088 19.6295,0 36,-36.7758 36,-61.1088 C 66.3324,15.8614 50.0911,8.9516 42.3409,1.20473 c -2.1989,-1.606784 -10.4829,-1.605828 -12.6818,0 z"
         id="path3039"
         inkscape:connector-curvature="0" />
    </clipPath>
    <linearGradient
       id="gradient7"
       gradientTransform="scale(1.0853122,0.92139387)"
       gradientUnits="userSpaceOnUse"
       x1="61.012871"
       y1="121.49794"
       x2="61.012871"
       y2="38.036621"
       spreadMethod="pad">
      <stop
         stop-color="#ffffff"
         offset="0.00000000000"
         stop-opacity="1.00000000000"
         id="stop3042" />
      <stop
         stop-color="#ffffff"
         offset="1.00000000000"
         stop-opacity="0.00000000000"
         id="stop3044" />
    </linearGradient>
    <linearGradient
       id="gradient8"
       gradientTransform="scale(1.985945,0.50353861)"
       gradientUnits="userSpaceOnUse"
       x1="32.980583"
       y1="35.056496"
       x2="32.980583"
       y2="67.592728"
       spreadMethod="pad">
      <stop
         stop-color="#ffffff"
         offset="0.00000000000"
         stop-opacity="1.00000000000"
         id="stop3047" />
      <stop
         stop-color="#ffffff"
         offset="1.00000000000"
         stop-opacity="0.00000000000"
         id="stop3049" />
    </linearGradient>
    <radialGradient
       id="gradient9"
       gradientTransform="scale(0.95789918,1.0439512)"
       gradientUnits="userSpaceOnUse"
       cx="67.311928"
       cy="61.702328"
       fx="66.884674"
       fy="70.857117"
       r="17.182476"
       spreadMethod="pad">
      <stop
         stop-color="#ff3313"
         offset="0.00000000000"
         stop-opacity="1.00000000000"
         id="stop3052" />
      <stop
         stop-color="#ff0000"
         offset="1.00000000000"
         stop-opacity="0.00000000000"
         id="stop3054" />
    </radialGradient>
    <filter
       id="filter4"
       filterUnits="objectBoundingBox"
       primitiveUnits="objectBoundingBox"
       x="-0.18010801"
       y="-0.16509901"
       width="1.360216"
       height="1.330198"
       color-interpolation-filters="sRGB">
      <feGaussianBlur
         result=""
         x="0.00000000000"
         y="0.00000000000"
         width="1.00000000000"
         height="1.00000000000"
         stdDeviation="0.0938063, 0.0859891"
         id="feGaussianBlur3057" />
    </filter>
    <radialGradient
       id="gradient10"
       gradientUnits="userSpaceOnUse"
       cx="68.577415"
       cy="68.577415"
       fx="68.802017"
       fy="71.946526"
       r="18.257053"
       spreadMethod="pad">
      <stop
         stop-color="#590000"
         offset="0.00000000000"
         stop-opacity="1.00000000000"
         id="stop3060" />
      <stop
         stop-color="#590000"
         offset="1.00000000000"
         stop-opacity="0.00000000000"
         id="stop3062" />
    </radialGradient>
    <filter
       id="filter5"
       filterUnits="objectBoundingBox"
       primitiveUnits="objectBoundingBox"
       x="-0.1"
       y="-0.1"
       width="1.2"
       height="1.2"
       color-interpolation-filters="sRGB">
      <feGaussianBlur
         result=""
         x="0.00000000000"
         y="0.00000000000"
         width="1.00000000000"
         height="1.00000000000"
         stdDeviation="0.02734537516"
         id="feGaussianBlur3065" />
    </filter>
    <radialGradient
       inkscape:collect="always"
       xlink:href="#gradient0"
       id="radialGradient3848"
       gradientUnits="userSpaceOnUse"
       gradientTransform="scale(0.95742711,1.0444659)"
       spreadMethod="pad"
       cx="66.845818"
       cy="61.275337"
       fx="66.845818"
       fy="61.275337"
       r="31.05394" />
    <linearGradient
       inkscape:collect="always"
       xlink:href="#gradient1"
       id="linearGradient3850"
       gradientUnits="userSpaceOnUse"
       gradientTransform="scale(0.95742711,1.0444659)"
       spreadMethod="pad"
       x1="104.31459"
       y1="71.9235"
       x2="61.97908"
       y2="61.279572" />
    <linearGradient
       inkscape:collect="always"
       xlink:href="#gradient2"
       id="linearGradient3852"
       gradientUnits="userSpaceOnUse"
       gradientTransform="scale(1.6566953,0.60361129)"
       spreadMethod="pad"
       x1="39.313881"
       y1="15.859876"
       x2="39.313881"
       y2="100.30147" />
    <linearGradient
       inkscape:collect="always"
       xlink:href="#gradient3"
       id="linearGradient3854"
       gradientUnits="userSpaceOnUse"
       gradientTransform="scale(2.8610336,0.34952403)"
       spreadMethod="pad"
       x1="22.764893"
       y1="27.389277"
       x2="22.764893"
       y2="173.21602" />
    <radialGradient
       inkscape:collect="always"
       xlink:href="#gradient4"
       id="radialGradient3856"
       gradientUnits="userSpaceOnUse"
       gradientTransform="scale(0.95742711,1.0444659)"
       spreadMethod="pad"
       cx="66.845818"
       cy="61.275337"
       fx="66.845833"
       fy="48.409798"
       r="31.05394" />
    <radialGradient
       inkscape:collect="always"
       xlink:href="#gradient5"
       id="radialGradient3858"
       gradientUnits="userSpaceOnUse"
       gradientTransform="scale(0.95742683,1.0444662)"
       spreadMethod="pad"
       cx="66.84584"
       cy="50.094776"
       fx="66.683098"
       fy="45.772987"
       r="25.407776" />
    <linearGradient
       inkscape:collect="always"
       xlink:href="#gradient6"
       id="linearGradient3860"
       gradientUnits="userSpaceOnUse"
       gradientTransform="scale(0.95742683,1.0444662)"
       spreadMethod="pad"
       x1="66.84584"
       y1="23.67457"
       x2="66.84584"
       y2="81.381325" />
    <linearGradient
       inkscape:collect="always"
       xlink:href="#gradient7"
       id="linearGradient3862"
       gradientUnits="userSpaceOnUse"
       gradientTransform="scale(1.0853122,0.92139387)"
       spreadMethod="pad"
       x1="61.012871"
       y1="121.49794"
       x2="61.012871"
       y2="38.036621" />
    <linearGradient
       inkscape:collect="always"
       xlink:href="#gradient8"
       id="linearGradient3864"
       gradientUnits="userSpaceOnUse"
       gradientTransform="scale(1.985945,0.50353861)"
       spreadMethod="pad"
       x1="32.980583"
       y1="35.056496"
       x2="32.980583"
       y2="67.592728" />
    <radialGradient
       inkscape:collect="always"
       xlink:href="#gradient9"
       id="radialGradient3866"
       gradientUnits="userSpaceOnUse"
       gradientTransform="scale(0.95789918,1.0439512)"
       spreadMethod="pad"
       cx="67.311928"
       cy="61.702328"
       fx="66.884674"
       fy="70.857117"
       r="17.182476" />
    <radialGradient
       inkscape:collect="always"
       xlink:href="#gradient10"
       id="radialGradient3868"
       gradientUnits="userSpaceOnUse"
       spreadMethod="pad"
       cx="68.577415"
       cy="68.577415"
       fx="68.802017"
       fy="71.946526"
       r="18.257053" />
    <linearGradient
       inkscape:collect="always"
       xlink:href="#gradient8"
       id="linearGradient3875"
       gradientUnits="userSpaceOnUse"
       gradientTransform="matrix(2.5420096,0,0,0.64452942,7.68,1.242355)"
       spreadMethod="pad"
       x1="32.980583"
       y1="35.056496"
       x2="32.980583"
       y2="67.592728" />
    <linearGradient
       inkscape:collect="always"
       xlink:href="#gradient7"
       id="linearGradient3878"
       gradientUnits="userSpaceOnUse"
       gradientTransform="matrix(1.3891996,0,0,1.1793842,17.92,34.721523)"
       spreadMethod="pad"
       x1="61.012871"
       y1="121.49794"
       x2="61.012871"
       y2="38.036621" />
    <radialGradient
       inkscape:collect="always"
       xlink:href="#gradient5"
       id="radialGradient3882"
       gradientUnits="userSpaceOnUse"
       gradientTransform="matrix(1.2255063,0,0,1.3216172,17.92,12.413299)"
       spreadMethod="pad"
       cx="66.84584"
       cy="50.094776"
       fx="66.683098"
       fy="45.772987"
       r="25.407776" />
    <radialGradient
       inkscape:collect="always"
       xlink:href="#gradient4"
       id="radialGradient3885"
       gradientUnits="userSpaceOnUse"
       gradientTransform="matrix(1.2255067,0,0,1.3369164,7.68,1.242355)"
       spreadMethod="pad"
       cx="66.845818"
       cy="61.275337"
       fx="66.845833"
       fy="48.409798"
       r="31.05394" />
    <linearGradient
       inkscape:collect="always"
       xlink:href="#gradient3"
       id="linearGradient3888"
       gradientUnits="userSpaceOnUse"
       gradientTransform="matrix(3.662123,0,0,0.44739076,7.68,28.521459)"
       spreadMethod="pad"
       x1="22.764893"
       y1="27.389277"
       x2="22.764893"
       y2="173.21602" />
    <linearGradient
       inkscape:collect="always"
       xlink:href="#gradient2"
       id="linearGradient3891"
       gradientUnits="userSpaceOnUse"
       gradientTransform="matrix(2.12057,0,0,0.77262245,7.68,1.242355)"
       spreadMethod="pad"
       x1="39.313881"
       y1="15.859876"
       x2="39.313881"
       y2="100.30147" />
    <linearGradient
       inkscape:collect="always"
       xlink:href="#gradient1"
       id="linearGradient3894"
       gradientUnits="userSpaceOnUse"
       gradientTransform="matrix(1.2255067,0,0,1.3369164,7.68,1.242355)"
       spreadMethod="pad"
       x1="104.31459"
       y1="71.9235"
       x2="61.97908"
       y2="61.279572" />
    <radialGradient
       inkscape:collect="always"
       xlink:href="#gradient0"
       id="radialGradient3898"
       gradientUnits="userSpaceOnUse"
       gradientTransform="matrix(1.2255067,0,0,1.3369164,7.68,1.242355)"
       spreadMethod="pad"
       cx="66.845818"
       cy="61.275337"
       fx="66.845818"
       fy="61.275337"
       r="31.05394" />
    <radialGradient
       inkscape:collect="always"
       xlink:href="#gradient0"
       id="radialGradient3920"
       gradientUnits="userSpaceOnUse"
       gradientTransform="matrix(1.2255067,0,0,1.3369164,7.68,1.242355)"
       spreadMethod="pad"
       cx="66.845818"
       cy="61.275337"
       fx="66.845818"
       fy="61.275337"
       r="31.05394" />
    <linearGradient
       inkscape:collect="always"
       xlink:href="#gradient1"
       id="linearGradient3922"
       gradientUnits="userSpaceOnUse"
       gradientTransform="matrix(1.2255067,0,0,1.3369164,7.68,1.242355)"
       spreadMethod="pad"
       x1="104.31459"
       y1="71.9235"
       x2="61.97908"
       y2="61.279572" />
    <linearGradient
       inkscape:collect="always"
       xlink:href="#gradient2"
       id="linearGradient3924"
       gradientUnits="userSpaceOnUse"
       gradientTransform="matrix(2.12057,0,0,0.77262245,7.68,1.242355)"
       spreadMethod="pad"
       x1="39.313881"
       y1="15.859876"
       x2="39.313881"
       y2="100.30147" />
    <linearGradient
       inkscape:collect="always"
       xlink:href="#gradient3"
       id="linearGradient3926"
       gradientUnits="userSpaceOnUse"
       gradientTransform="matrix(3.662123,0,0,0.44739076,7.68,28.521459)"
       spreadMethod="pad"
       x1="22.764893"
       y1="27.389277"
       x2="22.764893"
       y2="173.21602" />
    <radialGradient
       inkscape:collect="always"
       xlink:href="#gradient4"
       id="radialGradient3928"
       gradientUnits="userSpaceOnUse"
       gradientTransform="matrix(1.2255067,0,0,1.3369164,7.68,1.242355)"
       spreadMethod="pad"
       cx="66.845818"
       cy="61.275337"
       fx="66.845833"
       fy="48.409798"
       r="31.05394" />
    <radialGradient
       inkscape:collect="always"
       xlink:href="#gradient5"
       id="radialGradient3930"
       gradientUnits="userSpaceOnUse"
       gradientTransform="matrix(1.2255063,0,0,1.3216172,17.92,12.413299)"
       spreadMethod="pad"
       cx="66.84584"
       cy="50.094776"
       fx="66.683098"
       fy="45.772987"
       r="25.407776" />
    <linearGradient
       inkscape:collect="always"
       xlink:href="#gradient6"
       id="linearGradient3932"
       gradientUnits="userSpaceOnUse"
       gradientTransform="scale(0.95742683,1.0444662)"
       spreadMethod="pad"
       x1="66.84584"
       y1="23.67457"
       x2="66.84584"
       y2="81.381325" />
    <linearGradient
       inkscape:collect="always"
       xlink:href="#gradient7"
       id="linearGradient3934"
       gradientUnits="userSpaceOnUse"
       gradientTransform="matrix(1.3891996,0,0,1.1793842,17.92,34.721523)"
       spreadMethod="pad"
       x1="61.012871"
       y1="121.49794"
       x2="61.012871"
       y2="38.036621" />
    <linearGradient
       inkscape:collect="always"
       xlink:href="#gradient8"
       id="linearGradient3936"
       gradientUnits="userSpaceOnUse"
       gradientTransform="matrix(2.5420096,0,0,0.64452942,7.68,1.242355)"
       spreadMethod="pad"
       x1="32.980583"
       y1="35.056496"
       x2="32.980583"
       y2="67.592728" />
    <radialGradient
       inkscape:collect="always"
       xlink:href="#gradient9"
       id="radialGradient3938"
       gradientUnits="userSpaceOnUse"
       gradientTransform="scale(0.95789918,1.0439512)"
       spreadMethod="pad"
       cx="67.311928"
       cy="61.702328"
       fx="66.884674"
       fy="70.857117"
       r="17.182476" />
    <radialGradient
       inkscape:collect="always"
       xlink:href="#gradient10"
       id="radialGradient3940"
       gradientUnits="userSpaceOnUse"
       spreadMethod="pad"
       cx="68.577415"
       cy="68.577415"
       fx="68.802017"
       fy="71.946526"
       r="18.257053" />
  </defs>
  <g
     id="g3902"
     transform="matrix(0.11880224,0,0,0.1240687,0.40163264,0.02411009)">
    <path
       id="path3557"
       transform="matrix(0.9434176,0,0,0.88666624,22.4896,38.362355)"
       d="M 36.25,1.47245 C 26.7775,10.9408 6.92707,19.3862 0,21.3116 0,51.0518 19.9547,96 44,96 67.9916,96 88,51.0518 88,21.3116 81.0729,19.3862 61.2225,10.9408 51.75,1.47245 c -2.6875,-1.963849 -12.8124,-1.962681 -15.5,0 z"
       inkscape:connector-curvature="0"
       style="opacity:0.64356432;fill:#000000;fill-rule:evenodd;stroke:#000000;stroke-width:5.59806108;stroke-linecap:round;stroke-linejoin:round;filter:url(#filter0)" />
    <path
       id="path3170"
       transform="matrix(1.28,0,0,1.28,7.68,2.522355)"
       d="M 36.25,1.47245 C 26.7775,10.9408 6.92707,19.3862 0,21.3116 0,51.0518 19.9547,96 44,96 67.9916,96 88,51.0518 88,21.3116 81.0729,19.3862 61.2225,10.9408 51.75,1.47245 c -2.6875,-1.963849 -12.8124,-1.962681 -15.5,0 z"
       inkscape:connector-curvature="0"
       style="opacity:0.64356432;fill:#000000;fill-rule:evenodd;stroke:#000000;stroke-width:4;stroke-linecap:round;stroke-linejoin:round;filter:url(#filter1)" />
    <path
       id="path2160"
       d="m 54.08,3.127091 c -12.1248,12.119488 -37.53335,22.9296 -46.4,25.394112 0,38.067456 25.542016,95.601157 56.32,95.601157 30.709248,0 56.32,-57.533701 56.32,-95.601157 -8.86669,-2.464512 -34.2752,-13.274624 -46.4,-25.394112 -3.44,-2.51372672 -16.399872,-2.51223168 -19.84,0 z"
       style="fill:url(#radialGradient3920);fill-rule:evenodd"
       inkscape:connector-curvature="0" />
    <path
       id="path3525"
       transform="matrix(1.28,0,0,1.28,7.68,1.242355)"
       stroke-miterlimit="4.00000000000"
       clip-path="url(#clippath0)"
       d="M 36.25,1.47245 C 26.7775,10.9408 6.92707,19.3862 0,21.3116 0,51.0518 19.9547,96 44,96 67.9916,96 88,51.0518 88,21.3116 81.0729,19.3862 61.2225,10.9408 51.75,1.47245 c -2.6875,-1.963849 -12.8124,-1.962681 -15.5,0 z"
       inkscape:connector-curvature="0"
       style="opacity:0.35643562;fill:none;stroke:#000000;stroke-width:2;stroke-linecap:butt;stroke-linejoin:miter;stroke-miterlimit:4;filter:url(#filter2)" />
    <path
       id="path3192"
       d="m 54.08,3.127091 c -12.1248,12.119488 -37.53335,22.9296 -46.4,25.394112 0,38.067456 25.542016,95.601157 56.32,95.601157 30.709248,0 56.32,-57.533701 56.32,-95.601157 -8.86669,-2.464512 -34.2752,-13.274624 -46.4,-25.394112 -3.44,-2.51372672 -16.399872,-2.51223168 -19.84,0 z"
       style="opacity:0.36138617;fill:url(#linearGradient3922);fill-rule:evenodd"
       inkscape:connector-curvature="0" />
    <path
       id="path3157"
       d="m 64,1.242355 c -4.099968,1.869e-4 -8.199936,0.6238874 -9.92,1.88 -12.1248,12.119616 -37.53335,22.935488 -46.4,25.4 0,0.353024 0.035621,0.723584 0.04,1.080064 13.577792,7.764864 33.756864,12.679936 56.28,12.679936 22.523136,0 42.70221,-4.915072 56.28006,-12.679936 0.004,-0.35648 0.0399,-0.72704 0.0399,-1.080064 -8.86669,-2.464512 -34.2752,-13.280384 -46.4,-25.4 -1.720064,-1.2568614 -5.820032,-1.8801868 -9.92,-1.88 z"
       style="opacity:0.95544553;fill:url(#linearGradient3924);fill-rule:evenodd"
       inkscape:connector-curvature="0" />
    <path
       id="path3490"
       d="m 7.68,28.522341 c 0,0.353078 0.035621,0.723634 0.04,1.08 13.577792,7.764878 33.756864,12.680014 56.28,12.680014 22.523136,0 42.70221,-4.915136 56.28006,-12.680014 0.004,-0.356366 0.0399,-0.726922 0.0399,-1.08 -0.011,-0.0031 -0.0289,0.0031 -0.0399,0 -0.008,0.147552 0.002,0.295013 0,0.44 C 106.70221,36.727219 86.523136,41.642355 64,41.642355 c -22.523136,0 -42.702208,-4.915136 -56.28,-12.680014 -0.00178,-0.144987 0.00762,-0.292448 0,-0.44 -0.011077,0.0031 -0.028974,-0.0031 -0.04,0 z"
       style="opacity:0.95544553;fill:url(#linearGradient3926);fill-rule:evenodd"
       inkscape:connector-curvature="0" />
    <path
       id="path3547"
       d="m 54.08,3.127091 c -12.1248,12.119488 -37.53335,22.9296 -46.4,25.394112 0,38.067456 25.542016,95.601157 56.32,95.601157 30.709248,0 56.32,-57.533701 56.32,-95.601157 -8.86669,-2.464512 -34.2752,-13.274624 -46.4,-25.394112 -3.44,-2.51372672 -16.399872,-2.51223168 -19.84,0 z"
       style="fill:url(#radialGradient3928);fill-rule:evenodd"
       inkscape:connector-curvature="0" />
    <path
       id="path3145"
       d="M 55.883648,13.937706 C 45.963392,23.740223 25.174541,32.483551 17.92,34.47686 c 0,30.789806 20.898048,77.32413 46.08,77.32413 25.12576,0 46.08,-46.534324 46.08,-77.32413 -7.25453,-1.993309 -28.043392,-10.736637 -37.963648,-20.539154 -2.814592,-2.033147 -13.418112,-2.031937 -16.232704,0 z"
       style="fill:url(#radialGradient3930);fill-rule:evenodd"
       inkscape:connector-curvature="0" />
    <path
       id="path3202"
       transform="matrix(1.28,0,0,1.28,17.92,12.413299)"
       stroke-miterlimit="4.00000000000"
       clip-path="url(#clippath1)"
       d="M 29.6591,1.20473 C 21.9089,8.9516 5.66761,15.8614 0,17.4367 c 0,24.333 16.3266,61.1088 36,61.1088 19.6295,0 36,-36.7758 36,-61.1088 C 66.3324,15.8614 50.0911,8.9516 42.3409,1.20473 c -2.1989,-1.606784 -10.4829,-1.605828 -12.6818,0 z"
       style="opacity:0.51980196;fill:none;stroke:url(#linearGradient3932);stroke-width:6;stroke-linecap:butt;stroke-linejoin:miter;stroke-miterlimit:4;filter:url(#filter3)"
       inkscape:connector-curvature="0" />
    <path
       id="path3306"
       d="m 17.92,34.722318 c 0,31.146213 20.898048,78.239972 46.08,78.239972 25.12576,0 46.08,-47.093759 46.08,-78.239972 -0.01,-0.0028 -0.0299,0.0028 -0.0399,0 C 109.21459,65.844339 88.616576,111.68229 64,111.68229 c -24.671616,0 -45.216777,-45.837951 -46.04,-76.959972 -0.01,0.0028 -0.03005,-0.0028 -0.04,0 z"
       style="fill:url(#linearGradient3934);fill-rule:evenodd"
       inkscape:connector-curvature="0" />
    <path
       id="path3323"
       d="m 64,1.242355 c -4.099968,1.869e-4 -8.199936,0.6238874 -9.92,1.88 -12.1248,12.119616 -37.53335,22.935488 -46.4,25.4 0,0.418432 0.033856,0.85696 0.04,1.28 8.896666,-2.482176 34.250304,-13.295488 46.36,-25.4 3.440128,-2.5122266 16.4,-2.5137216 19.84,0 12.109696,12.104512 37.4633,22.917824 46.36006,25.4 0.006,-0.42304 0.0399,-0.861568 0.0399,-1.28 -8.86669,-2.464512 -34.2752,-13.280384 -46.4,-25.4 -1.720064,-1.2568614 -5.820032,-1.8801868 -9.92,-1.88 z"
       style="opacity:0.88613862;fill:url(#linearGradient3936);fill-rule:evenodd"
       inkscape:connector-curvature="0" />
    <path
       id="path3340"
       transform="matrix(1.28,0,0,1.28,33.19104,29.072627)"
       d="M 19.83,0.805479 C 14.6482,5.98502 3.78935,10.6049 0,11.6582 0,27.9271 10.9159,52.5153 24.0695,52.5153 37.1938,52.5153 48.139,27.9271 48.139,11.6582 44.3497,10.6049 33.4908,5.98502 28.309,0.805479 c -1.4701,-1.074291 -7.0088,-1.073652 -8.479,0 z"
       style="fill:url(#radialGradient3938);fill-rule:evenodd;filter:url(#filter4)"
       inkscape:connector-curvature="0" />
    <path
       id="path2276"
       d="m 30.694528,128.76711 0,-3.57723 z"
       inkscape:connector-curvature="0"
       style="fill:#ffffff;fill-opacity:0.756878" />
    <path
       id="path3623"
       transform="matrix(1.1582042,0,0,1.1582042,39.3088,37.991155)"
       d="M 0,7.10618 14.4586,21.5648 0,35.5309 7.10618,42.6371 21.3186,28.4247 35.5309,42.6371 42.6371,35.5309 28.4247,21.3186 42.6371,7.10618 35.7772,0.246236 21.5648,14.4586 7.10618,0 z"
       style="fill:none;stroke:url(#radialGradient3940);stroke-width:4.42063713;stroke-linecap:round;stroke-linejoin:round;filter:url(#filter5)"
       inkscape:connector-curvature="0" />
    <path
       id="rect3232"
       d="M 39.3088,46.221568 56.054784,62.967539 39.3088,79.143155 47.539213,87.373555 64,70.912755 l 16.4608,16.4608 8.2304,-8.2304 -16.4608,-16.4608 16.4608,-16.460787 -7.945216,-7.945221 -16.4608,16.460792 -16.745971,-16.745984 z"
       inkscape:connector-curvature="0"
       style="fill:#ffffff;fill-rule:evenodd" />
  </g>
</svg>
