<?xml version="1.0" encoding="UTF-8" standalone="no"?>
<!-- Created using Karbon, part of Calligra: http://www.calligra.org/karbon -->

<svg
   xmlns:dc="http://purl.org/dc/elements/1.1/"
   xmlns:cc="http://creativecommons.org/ns#"
   xmlns:rdf="http://www.w3.org/1999/02/22-rdf-syntax-ns#"
   xmlns:svg="http://www.w3.org/2000/svg"
   xmlns="http://www.w3.org/2000/svg"
   xmlns:xlink="http://www.w3.org/1999/xlink"
   xmlns:sodipodi="http://sodipodi.sourceforge.net/DTD/sodipodi-0.dtd"
   xmlns:inkscape="http://www.inkscape.org/namespaces/inkscape"
   width="16"
   height="16"
   id="svg3088"
   version="1.1"
   inkscape:version="0.48.4 r9939"
   sodipodi:docname="blank.svg">
  <title
     id="title3405">blank</title>
  <metadata
     id="metadata3190">
    <rdf:RDF>
      <cc:Work
         rdf:about="">
        <dc:format>image/svg+xml</dc:format>
        <dc:type
           rdf:resource="http://purl.org/dc/dcmitype/StillImage" />
        <cc:license
           rdf:resource="http://creativecommons.org/licenses/by-nc-sa/3.0/" />
        <dc:title>blank</dc:title>
        <dc:creator>
          <cc:Agent>
            <dc:title>Christian Reiner</dc:title>
          </cc:Agent>
        </dc:creator>
        <dc:rights>
          <cc:Agent>
            <dc:title>Copyright 2013, Christian Reiner, Hamburg, Germany</dc:title>
          </cc:Agent>
        </dc:rights>
        <dc:publisher>
          <cc:Agent>
            <dc:title>Christian Reiner</dc:title>
          </cc:Agent>
        </dc:publisher>
        <dc:subject>
          <rdf:Bag>
            <rdf:li>blank</rdf:li>
            <rdf:li>status</rdf:li>
          </rdf:Bag>
        </dc:subject>
      </cc:Work>
      <cc:License
         rdf:about="http://creativecommons.org/licenses/by-nc-sa/3.0/">
        <cc:permits
           rdf:resource="http://creativecommons.org/ns#Reproduction" />
        <cc:permits
           rdf:resource="http://creativecommons.org/ns#Distribution" />
        <cc:requires
           rdf:resource="http://creativecommons.org/ns#Notice" />
        <cc:requires
           rdf:resource="http://creativecommons.org/ns#Attribution" />
        <cc:prohibits
           rdf:resource="http://creativecommons.org/ns#CommercialUse" />
        <cc:permits
           rdf:resource="http://creativecommons.org/ns#DerivativeWorks" />
        <cc:requires
           rdf:resource="http://creativecommons.org/ns#ShareAlike" />
      </cc:License>
    </rdf:RDF>
  </metadata>
  <sodipodi:namedview
     pagecolor="#ffffff"
     bordercolor="#666666"
     borderopacity="1"
     objecttolerance="10"
     gridtolerance="10"
     guidetolerance="10"
     inkscape:pageopacity="0"
     inkscape:pageshadow="2"
     inkscape:window-width="1920"
     inkscape:window-height="1114"
     id="namedview3188"
     showgrid="false"
     inkscape:zoom="83.4386"
     inkscape:cx="8.9565253"
     inkscape:cy="8.8696407"
     inkscape:window-x="-4"
     inkscape:window-y="-4"
     inkscape:window-maximized="1"
     inkscape:current-layer="svg3088" />
  <defs
     id="defs3090">
    <filter
       id="filter0"
       filterUnits="objectBoundingBox"
       primitiveUnits="objectBoundingBox"
       x="-0.1"
       y="-0.1"
       width="1.2"
       height="1.2"
       color-interpolation-filters="sRGB">
      <feGaussianBlur
         result=""
         x="0.00000000000"
         y="0.00000000000"
         width="1.00000000000"
         height="1.00000000000"
         stdDeviation="0.0272727, 0.025"
         id="feGaussianBlur3093" />
    </filter>
    <filter
       id="filter1"
       filterUnits="objectBoundingBox"
       primitiveUnits="objectBoundingBox"
       x="-0.1"
       y="-0.1"
       width="1.2"
       height="1.2"
       color-interpolation-filters="sRGB">
      <feGaussianBlur
         result=""
         x="0.00000000000"
         y="0.00000000000"
         width="1.00000000000"
         height="1.00000000000"
         stdDeviation="0.0272727, 0.025"
         id="feGaussianBlur3096" />
    </filter>
    <radialGradient
       id="gradient0"
       gradientTransform="scale(0.95742711,1.0444659)"
       gradientUnits="userSpaceOnUse"
       cx="66.845825"
       cy="61.275337"
       fx="66.845825"
       fy="61.275337"
       r="31.05394"
       spreadMethod="pad">
      <stop
         stop-color="#eeeeee"
         offset="0.00000000000"
         stop-opacity="1.00000000000"
         id="stop3099" />
      <stop
         stop-color="#babdb6"
         offset="1.00000000000"
         stop-opacity="1.00000000000"
         id="stop3101" />
    </radialGradient>
    <filter
       id="filter2"
       filterUnits="objectBoundingBox"
       primitiveUnits="objectBoundingBox"
       x="-0.1"
       y="-0.1"
       width="1.2"
       height="1.2"
       color-interpolation-filters="sRGB">
      <feGaussianBlur
         result=""
         x="0.00000000000"
         y="0.00000000000"
         width="1.00000000000"
         height="1.00000000000"
         stdDeviation="0.0196023, 0.0179688"
         id="feGaussianBlur3104" />
    </filter>
    <clipPath
       id="clippath0"
       clipPathUnits="userSpaceOnUse">
      <path
         d="M 36.25,1.47245 C 26.7775,10.9408 6.92707,19.3862 0,21.3116 0,51.0518 19.9547,96 44,96 67.9916,96 88,51.0518 88,21.3116 81.0729,19.3862 61.2225,10.9408 51.75,1.47245 c -2.6875,-1.96385 -12.8124,-1.962682 -15.5,0 z"
         id="path3107"
         inkscape:connector-curvature="0" />
    </clipPath>
    <linearGradient
       id="gradient1"
       gradientTransform="scale(0.95742711,1.0444659)"
       gradientUnits="userSpaceOnUse"
       x1="104.31459"
       y1="71.9235"
       x2="61.97908"
       y2="61.279572"
       spreadMethod="pad">
      <stop
         stop-color="#000000"
         offset="0.00000000000"
         stop-opacity="1.00000000000"
         id="stop3110" />
      <stop
         stop-color="#000000"
         offset="1.00000000000"
         stop-opacity="0.00000000000"
         id="stop3112" />
    </linearGradient>
    <linearGradient
       id="gradient2"
       gradientTransform="scale(1.6566953,0.60361129)"
       gradientUnits="userSpaceOnUse"
       x1="39.313881"
       y1="15.859876"
       x2="39.313881"
       y2="100.30147"
       spreadMethod="pad">
      <stop
         stop-color="#ffffff"
         offset="0.00000000000"
         stop-opacity="1.00000000000"
         id="stop3115" />
      <stop
         stop-color="#ffffff"
         offset="1.00000000000"
         stop-opacity="0.00000000000"
         id="stop3117" />
    </linearGradient>
    <linearGradient
       id="gradient3"
       gradientTransform="scale(2.8610336,0.34952403)"
       gradientUnits="userSpaceOnUse"
       x1="22.764893"
       y1="27.389277"
       x2="22.764893"
       y2="173.21602"
       spreadMethod="pad">
      <stop
         stop-color="#ffffff"
         offset="0.00000000000"
         stop-opacity="1.00000000000"
         id="stop3120" />
      <stop
         stop-color="#ffffff"
         offset="1.00000000000"
         stop-opacity="0.00000000000"
         id="stop3122" />
    </linearGradient>
    <radialGradient
       id="gradient4"
       gradientTransform="scale(0.95742711,1.0444659)"
       gradientUnits="userSpaceOnUse"
       cx="66.845825"
       cy="61.275337"
       fx="66.845833"
       fy="48.409798"
       r="31.05394"
       spreadMethod="pad">
      <stop
         stop-color="#ffffff"
         offset="0.00000000000"
         stop-opacity="1.00000000000"
         id="stop3125" />
      <stop
         stop-color="#ffffff"
         offset="1.00000000000"
         stop-opacity="0.00000000000"
         id="stop3127" />
    </radialGradient>
    <radialGradient
       id="gradient5"
       gradientTransform="scale(0.95742683,1.0444662)"
       gradientUnits="userSpaceOnUse"
       cx="66.84584"
       cy="50.094776"
       fx="66.683098"
       fy="45.772987"
       r="25.407776"
       spreadMethod="pad">
      <stop
         stop-color="#00bf00"
         offset="0.00000000000"
         stop-opacity="1.00000000000"
         id="stop3130" />
      <stop
         stop-color="#004d00"
         offset="1.00000000000"
         stop-opacity="1.00000000000"
         id="stop3132" />
    </radialGradient>
    <linearGradient
       id="gradient6"
       gradientTransform="scale(0.95742683,1.0444662)"
       gradientUnits="userSpaceOnUse"
       x1="66.84584"
       y1="23.67457"
       x2="66.84584"
       y2="81.381325"
       spreadMethod="pad">
      <stop
         stop-color="#000000"
         offset="0.00000000000"
         stop-opacity="1.00000000000"
         id="stop3135" />
      <stop
         stop-color="#000000"
         offset="1.00000000000"
         stop-opacity="0.00000000000"
         id="stop3137" />
    </linearGradient>
    <filter
       id="filter3"
       filterUnits="objectBoundingBox"
       primitiveUnits="objectBoundingBox"
       x="-0.12421242"
       y="-0.11386138"
       width="1.2484248"
       height="1.2277228"
       color-interpolation-filters="sRGB">
      <feGaussianBlur
         result=""
         x="0.00000000000"
         y="0.00000000000"
         width="1.00000000000"
         height="1.00000000000"
         stdDeviation="0.064694, 0.0593028"
         id="feGaussianBlur3140" />
    </filter>
    <clipPath
       id="clippath1"
       clipPathUnits="userSpaceOnUse">
      <path
         d="M 29.6591,1.20473 C 21.9089,8.9516 5.66761,15.8614 0,17.4367 c 0,24.333 16.3266,61.1088 36,61.1088 19.6295,0 36,-36.7758 36,-61.1088 C 66.3324,15.8614 50.0911,8.9516 42.3409,1.20473 c -2.1989,-1.606784 -10.4829,-1.605828 -12.6818,0 z"
         id="path3143"
         inkscape:connector-curvature="0" />
    </clipPath>
    <linearGradient
       id="gradient7"
       gradientTransform="scale(1.0853122,0.92139387)"
       gradientUnits="userSpaceOnUse"
       x1="61.012871"
       y1="121.49794"
       x2="61.012871"
       y2="38.036621"
       spreadMethod="pad">
      <stop
         stop-color="#ffffff"
         offset="0.00000000000"
         stop-opacity="1.00000000000"
         id="stop3146" />
      <stop
         stop-color="#ffffff"
         offset="1.00000000000"
         stop-opacity="0.00000000000"
         id="stop3148" />
    </linearGradient>
    <linearGradient
       id="gradient8"
       gradientTransform="scale(1.985945,0.50353861)"
       gradientUnits="userSpaceOnUse"
       x1="32.980583"
       y1="35.056496"
       x2="32.980583"
       y2="67.592728"
       spreadMethod="pad">
      <stop
         stop-color="#ffffff"
         offset="0.00000000000"
         stop-opacity="1.00000000000"
         id="stop3151" />
      <stop
         stop-color="#ffffff"
         offset="1.00000000000"
         stop-opacity="0.00000000000"
         id="stop3153" />
    </linearGradient>
    <radialGradient
       id="gradient9"
       gradientTransform="scale(0.95789918,1.0439512)"
       gradientUnits="userSpaceOnUse"
       cx="67.311928"
       cy="61.702328"
       fx="66.884674"
       fy="70.857117"
       r="17.182476"
       spreadMethod="pad">
      <stop
         stop-color="#00ff00"
         offset="0.00000000000"
         stop-opacity="1.00000000000"
         id="stop3156" />
      <stop
         stop-color="#00ff00"
         offset="1.00000000000"
         stop-opacity="0.00000000000"
         id="stop3158" />
    </radialGradient>
    <filter
       id="filter4"
       filterUnits="objectBoundingBox"
       primitiveUnits="objectBoundingBox"
       x="-0.18010801"
       y="-0.16509901"
       width="1.360216"
       height="1.330198"
       color-interpolation-filters="sRGB">
      <feGaussianBlur
         result=""
         x="0.00000000000"
         y="0.00000000000"
         width="1.00000000000"
         height="1.00000000000"
         stdDeviation="0.0938063, 0.0859891"
         id="feGaussianBlur3161" />
    </filter>
    <radialGradient
       id="gradient10"
       gradientTransform="scale(1.1389384,0.87801064)"
       gradientUnits="userSpaceOnUse"
       cx="-97.654503"
       cy="24.437284"
       fx="-97.654503"
       fy="39.849228"
       r="19.162394"
       spreadMethod="pad">
      <stop
         stop-color="#004d00"
         offset="0.00000000000"
         stop-opacity="1.00000000000"
         id="stop3164" />
      <stop
         stop-color="#004d00"
         offset="1.00000000000"
         stop-opacity="0.00000000000"
         id="stop3166" />
    </radialGradient>
    <filter
       id="filter5"
       filterUnits="objectBoundingBox"
       primitiveUnits="objectBoundingBox"
       x="-0.1"
       y="-0.1"
       width="1.2"
       height="1.2"
       color-interpolation-filters="sRGB">
      <feGaussianBlur
         result=""
         x="0.00000000000"
         y="0.00000000000"
         width="1.00000000000"
         height="1.00000000000"
         stdDeviation="0.0240489, 0.0320652"
         id="feGaussianBlur3169" />
    </filter>
    <linearGradient
       inkscape:collect="always"
       xlink:href="#gradient8"
       id="linearGradient3053"
       gradientUnits="userSpaceOnUse"
       gradientTransform="matrix(2.5420096,0,0,0.64452942,7.871758,1.321211)"
       spreadMethod="pad"
       x1="32.980583"
       y1="35.056496"
       x2="32.980583"
       y2="67.592728" />
    <linearGradient
       inkscape:collect="always"
       xlink:href="#gradient7"
       id="linearGradient3056"
       gradientUnits="userSpaceOnUse"
       gradientTransform="matrix(1.3891996,0,0,1.1793842,18.111758,34.800379)"
       spreadMethod="pad"
       x1="61.012871"
       y1="121.49794"
       x2="61.012871"
       y2="38.036621" />
    <radialGradient
       inkscape:collect="always"
       xlink:href="#gradient5"
       id="radialGradient3060"
       gradientUnits="userSpaceOnUse"
       gradientTransform="matrix(1.2255063,0,0,1.3369167,18.111758,-99.507845)"
       spreadMethod="pad"
       cx="66.84584"
       cy="50.094776"
       fx="66.683098"
       fy="45.772987"
       r="25.407776" />
    <radialGradient
       inkscape:collect="always"
       xlink:href="#gradient4"
       id="radialGradient3063"
       gradientUnits="userSpaceOnUse"
       gradientTransform="matrix(1.2255067,0,0,1.3369164,7.871758,1.321211)"
       spreadMethod="pad"
       cx="66.845825"
       cy="61.275337"
       fx="66.845833"
       fy="48.409798"
       r="31.05394" />
    <linearGradient
       inkscape:collect="always"
       xlink:href="#gradient3"
       id="linearGradient3066"
       gradientUnits="userSpaceOnUse"
       gradientTransform="matrix(3.662123,0,0,0.44739076,7.871758,28.600315)"
       spreadMethod="pad"
       x1="22.764893"
       y1="27.389277"
       x2="22.764893"
       y2="173.21602" />
    <linearGradient
       inkscape:collect="always"
       xlink:href="#gradient2"
       id="linearGradient3069"
       gradientUnits="userSpaceOnUse"
       gradientTransform="matrix(2.12057,0,0,0.77262245,7.871758,1.321211)"
       spreadMethod="pad"
       x1="39.313881"
       y1="15.859876"
       x2="39.313881"
       y2="100.30147" />
    <linearGradient
       inkscape:collect="always"
       xlink:href="#gradient1"
       id="linearGradient3072"
       gradientUnits="userSpaceOnUse"
       gradientTransform="matrix(1.2255067,0,0,1.3369164,7.871758,1.321211)"
       spreadMethod="pad"
       x1="104.31459"
       y1="71.9235"
       x2="61.97908"
       y2="61.279572" />
    <radialGradient
       inkscape:collect="always"
       xlink:href="#gradient0"
       id="radialGradient3076"
       gradientUnits="userSpaceOnUse"
       gradientTransform="matrix(1.2255067,0,0,1.3369164,7.871758,1.321211)"
       spreadMethod="pad"
       cx="66.845825"
       cy="61.275337"
       fx="66.845825"
       fy="61.275337"
       r="31.05394" />
    <radialGradient
       inkscape:collect="always"
       xlink:href="#gradient0"
       id="radialGradient3093"
       gradientUnits="userSpaceOnUse"
       gradientTransform="matrix(1.2255067,0,0,1.3369164,7.871758,1.321211)"
       spreadMethod="pad"
       cx="66.845825"
       cy="61.275337"
       fx="66.845825"
       fy="61.275337"
       r="31.05394" />
    <linearGradient
       inkscape:collect="always"
       xlink:href="#gradient1"
       id="linearGradient3095"
       gradientUnits="userSpaceOnUse"
       gradientTransform="matrix(1.2255067,0,0,1.3369164,7.871758,1.321211)"
       spreadMethod="pad"
       x1="104.31459"
       y1="71.9235"
       x2="61.97908"
       y2="61.279572" />
    <linearGradient
       inkscape:collect="always"
       xlink:href="#gradient2"
       id="linearGradient3097"
       gradientUnits="userSpaceOnUse"
       gradientTransform="matrix(2.12057,0,0,0.77262245,7.871758,1.321211)"
       spreadMethod="pad"
       x1="39.313881"
       y1="15.859876"
       x2="39.313881"
       y2="100.30147" />
    <linearGradient
       inkscape:collect="always"
       xlink:href="#gradient3"
       id="linearGradient3099"
       gradientUnits="userSpaceOnUse"
       gradientTransform="matrix(3.662123,0,0,0.44739076,7.871758,28.600315)"
       spreadMethod="pad"
       x1="22.764893"
       y1="27.389277"
       x2="22.764893"
       y2="173.21602" />
    <radialGradient
       inkscape:collect="always"
       xlink:href="#gradient4"
       id="radialGradient3101"
       gradientUnits="userSpaceOnUse"
       gradientTransform="matrix(1.2255067,0,0,1.3369164,7.871758,1.321211)"
       spreadMethod="pad"
       cx="66.845825"
       cy="61.275337"
       fx="66.845833"
       fy="48.409798"
       r="31.05394" />
    <linearGradient
       inkscape:collect="always"
       xlink:href="#gradient6"
       id="linearGradient3103"
       gradientUnits="userSpaceOnUse"
       gradientTransform="scale(0.95742683,1.0444662)"
       spreadMethod="pad"
       x1="66.84584"
       y1="23.67457"
       x2="66.84584"
       y2="81.381325" />
    <linearGradient
       inkscape:collect="always"
       xlink:href="#gradient7"
       id="linearGradient3105"
       gradientUnits="userSpaceOnUse"
       gradientTransform="matrix(1.3891996,0,0,1.1793842,18.111758,34.800379)"
       spreadMethod="pad"
       x1="61.012871"
       y1="121.49794"
       x2="61.012871"
       y2="38.036621" />
    <linearGradient
       inkscape:collect="always"
       xlink:href="#gradient8"
       id="linearGradient3107"
       gradientUnits="userSpaceOnUse"
       gradientTransform="matrix(2.5420096,0,0,0.64452942,7.871758,1.321211)"
       spreadMethod="pad"
       x1="32.980583"
       y1="35.056496"
       x2="32.980583"
       y2="67.592728" />
    <radialGradient
       inkscape:collect="always"
       xlink:href="#gradient9"
       id="radialGradient3109"
       gradientUnits="userSpaceOnUse"
       gradientTransform="scale(0.95789918,1.0439512)"
       spreadMethod="pad"
       cx="67.311928"
       cy="61.702328"
       fx="66.884674"
       fy="70.857117"
       r="17.182476" />
  </defs>
  <path
     inkscape:connector-curvature="0"
     style="fill:url(#radialGradient3060);fill-rule:evenodd;display:none"
     d="m 56.075406,-97.965791 c -9.920256,9.915994 -30.709107,18.760538 -37.963648,20.776922 0,31.14624 20.898048,78.219269 46.08,78.219269 25.12576,0 46.080002,-47.073029 46.080002,-78.219269 -7.25453,-2.016384 -28.043394,-10.860928 -37.96365,-20.776922 -2.814592,-2.056679 -13.418112,-2.055459 -16.232704,0 z"
     display="none"
     id="path3145" />
  <g
     id="g3080"
     transform="matrix(0.11895408,0,0,0.12484375,0.37085925,0.00338091)">
    <path
       id="path3557"
       transform="matrix(0.9434176,0,0,0.88666624,22.681358,38.441211)"
       d="M 36.25,1.47245 C 26.7775,10.9408 6.92707,19.3862 0,21.3116 0,51.0518 19.9547,96 44,96 67.9916,96 88,51.0518 88,21.3116 81.0729,19.3862 61.2225,10.9408 51.75,1.47245 c -2.6875,-1.96385 -12.8124,-1.962682 -15.5,0 z"
       inkscape:connector-curvature="0"
       style="opacity:0.64356432;fill:#000000;fill-rule:evenodd;stroke:#000000;stroke-width:5.59806108;stroke-linecap:round;stroke-linejoin:round;filter:url(#filter0)" />
    <path
       id="path3170"
       transform="matrix(1.28,0,0,1.28,7.871758,2.601211)"
       d="M 36.25,1.47245 C 26.7775,10.9408 6.92707,19.3862 0,21.3116 0,51.0518 19.9547,96 44,96 67.9916,96 88,51.0518 88,21.3116 81.0729,19.3862 61.2225,10.9408 51.75,1.47245 c -2.6875,-1.96385 -12.8124,-1.962682 -15.5,0 z"
       inkscape:connector-curvature="0"
       style="opacity:0.64356432;fill:#000000;fill-rule:evenodd;stroke:#000000;stroke-width:4;stroke-linecap:round;stroke-linejoin:round;filter:url(#filter1)" />
    <path
       id="path2160"
       d="m 54.271758,3.205947 c -12.1248,12.119488 -37.53335,22.9296 -46.4,25.394112 0,38.067456 25.542016,95.601151 56.32,95.601151 30.709248,0 56.320002,-57.533695 56.320002,-95.601151 -8.86669,-2.464512 -34.275202,-13.274624 -46.400002,-25.394112 -3.44,-2.513728 -16.399872,-2.51223296 -19.84,0 z"
       style="fill:url(#radialGradient3093);fill-rule:evenodd"
       inkscape:connector-curvature="0" />
    <path
       id="path3525"
       transform="matrix(1.28,0,0,1.28,7.871758,1.321211)"
       stroke-miterlimit="4.00000000000"
       clip-path="url(#clippath0)"
       d="M 36.25,1.47245 C 26.7775,10.9408 6.92707,19.3862 0,21.3116 0,51.0518 19.9547,96 44,96 67.9916,96 88,51.0518 88,21.3116 81.0729,19.3862 61.2225,10.9408 51.75,1.47245 c -2.6875,-1.96385 -12.8124,-1.962682 -15.5,0 z"
       inkscape:connector-curvature="0"
       style="opacity:0.35643562;fill:none;stroke:#000000;stroke-width:2;stroke-linecap:butt;stroke-linejoin:miter;stroke-miterlimit:4;filter:url(#filter2)" />
    <path
       id="path3192"
       d="m 54.271758,3.205947 c -12.1248,12.119488 -37.53335,22.9296 -46.4,25.394112 0,38.067456 25.542016,95.601151 56.32,95.601151 30.709248,0 56.320002,-57.533695 56.320002,-95.601151 -8.86669,-2.464512 -34.275202,-13.274624 -46.400002,-25.394112 -3.44,-2.513728 -16.399872,-2.51223296 -19.84,0 z"
       style="opacity:0.36138617;fill:url(#linearGradient3095);fill-rule:evenodd"
       inkscape:connector-curvature="0" />
    <path
       id="path3157"
       d="m 64.191758,1.321211 c -4.099968,1.869e-4 -8.199936,0.6238874 -9.92,1.88 -12.1248,12.119616 -37.53335,22.935488 -46.4,25.4 0,0.353024 0.035621,0.723584 0.04,1.080064 13.577792,7.764864 33.756864,12.679936 56.28,12.679936 22.523136,0 42.702212,-4.915072 56.280062,-12.679936 0.004,-0.35648 0.0399,-0.72704 0.0399,-1.080064 -8.86669,-2.464512 -34.275202,-13.280384 -46.400002,-25.4 -1.720064,-1.2568614 -5.820032,-1.8801868 -9.92,-1.88 z"
       style="opacity:0.95544553;fill:url(#linearGradient3097);fill-rule:evenodd"
       inkscape:connector-curvature="0" />
    <path
       id="path3490"
       d="m 7.871758,28.601197 c 0,0.353078 0.035621,0.723634 0.04,1.08 13.577792,7.764878 33.756864,12.680014 56.28,12.680014 22.523136,0 42.702212,-4.915136 56.280062,-12.680014 0.004,-0.356366 0.0399,-0.726922 0.0399,-1.08 -0.011,-0.0031 -0.0289,0.0031 -0.0399,0 -0.008,0.147552 0.002,0.295013 0,0.44 -13.57785,7.764878 -33.756926,12.680014 -56.280062,12.680014 -22.523136,0 -42.702208,-4.915136 -56.28,-12.680014 -0.00178,-0.144987 0.00762,-0.292448 0,-0.44 -0.011077,0.0031 -0.028974,-0.0031 -0.04,0 z"
       style="opacity:0.95544553;fill:url(#linearGradient3099);fill-rule:evenodd"
       inkscape:connector-curvature="0" />
    <path
       id="path3547"
       d="m 54.271758,3.205947 c -12.1248,12.119488 -37.53335,22.9296 -46.4,25.394112 0,38.067456 25.542016,95.601151 56.32,95.601151 30.709248,0 56.320002,-57.533695 56.320002,-95.601151 -8.86669,-2.464512 -34.275202,-13.274624 -46.400002,-25.394112 -3.44,-2.513728 -16.399872,-2.51223296 -19.84,0 z"
       style="fill:url(#radialGradient3101);fill-rule:evenodd"
       inkscape:connector-curvature="0" />
    <path
       id="path3202"
       transform="matrix(1.28,0,0,1.28,18.111758,12.492155)"
       stroke-miterlimit="4.00000000000"
       clip-path="url(#clippath1)"
       d="M 29.6591,1.20473 C 21.9089,8.9516 5.66761,15.8614 0,17.4367 c 0,24.333 16.3266,61.1088 36,61.1088 19.6295,0 36,-36.7758 36,-61.1088 C 66.3324,15.8614 50.0911,8.9516 42.3409,1.20473 c -2.1989,-1.606784 -10.4829,-1.605828 -12.6818,0 z"
       style="opacity:0.51980196;fill:none;stroke:url(#linearGradient3103);stroke-width:6;stroke-linecap:butt;stroke-linejoin:miter;stroke-miterlimit:4;filter:url(#filter3)"
       inkscape:connector-curvature="0" />
    <path
       id="path3306"
       d="m 18.111758,34.801174 c 0,31.146213 20.898048,78.239976 46.08,78.239976 25.12576,0 46.080002,-47.093763 46.080002,-78.239976 -0.01,-0.0028 -0.0299,0.0028 -0.0399,0 -0.82547,31.122021 -21.423486,76.959976 -46.040062,76.959976 -24.671616,0 -45.216777,-45.837955 -46.04,-76.959976 -0.01,0.0028 -0.03005,-0.0028 -0.04,0 z"
       style="fill:url(#linearGradient3105);fill-rule:evenodd"
       inkscape:connector-curvature="0" />
    <path
       id="path3323"
       d="m 64.191758,1.321211 c -4.099968,1.869e-4 -8.199936,0.6238874 -9.92,1.88 -12.1248,12.119616 -37.53335,22.935488 -46.4,25.4 0,0.418432 0.033856,0.85696 0.04,1.28 8.896666,-2.482176 34.250304,-13.295488 46.36,-25.4 3.440128,-2.5122266 16.4,-2.5137216 19.84,0 12.109696,12.104512 37.463292,22.917824 46.360062,25.4 0.006,-0.42304 0.0399,-0.861568 0.0399,-1.28 -8.86669,-2.464512 -34.275202,-13.280384 -46.400002,-25.4 -1.720064,-1.2568614 -5.820032,-1.8801868 -9.92,-1.88 z"
       style="opacity:0.88613862;fill:url(#linearGradient3107);fill-rule:evenodd"
       inkscape:connector-curvature="0" />
  </g>
  <path
     inkscape:connector-curvature="0"
     style="fill:url(#radialGradient3109);fill-rule:evenodd;display:none;filter:url(#filter4)"
     d="M 19.83,0.805479 C 14.6482,5.98502 3.78935,10.6049 0,11.6582 0,27.9271 10.9159,52.5153 24.0695,52.5153 37.1938,52.5153 48.139,27.9271 48.139,11.6582 44.3497,10.6049 33.4908,5.98502 28.309,0.805479 c -1.4701,-1.074291 -7.0088,-1.073652 -8.479,0 z"
     display="none"
     transform="matrix(1.28,0,0,1.28,33.382798,-82.848517)"
     id="path3340" />
</svg>
