<?xml version="1.0" encoding="UTF-8" standalone="no"?>
<svg xmlns:xlink="http://www.w3.org/1999/xlink" viewBox="0 0 478 472" xmlns="http://www.w3.org/2000/svg">
 <defs>
  <linearGradient id="a" y2="1">
   <stop stop-color="#ffffe0" offset="0"/>
   <stop stop-color="#edc39c" offset="1"/>
  </linearGradient>
  <linearGradient id="c" y1=".78125" x2=".28906" x1=".57031" y2=".41406">
   <stop stop-color="#ff7f00" offset="0"/>
   <stop stop-color="#ff0" offset="1"/>
  </linearGradient>
  <linearGradient id="b" y1=".35938" x1=".37891" y2="1">
   <stop stop-color="#e0e0e0" offset="0"/>
   <stop stop-color="#666" offset="1"/>
  </linearGradient>
 </defs>
 <g>
  <title>Layer 1</title>
  <path fill="#fff" d="m68.82 270.05l-22-33 17-35 34 2 25 15 7-35 28-16 25 12 100 102 21 23-15 35-36 9 20 49-31 24-49-17-1 31-33 21-31-19-13-35-30 21-30-9-5-35 16-31-32-6-15-19 3-36 47-18z"/>
  <path d="m158.96 155.04c-25.021 0-45.371 20.351-45.371 45.378 0 0.72217 0.01794 1.4399 0.0471 2.1564-0.49339-0.53604-0.99355-1.0608-1.506-1.5845-8.5608-8.5552-19.96-13.284-32.074-13.284-12.121 0-23.52 4.7233-32.088 13.296-17.693 17.695-17.693 46.462 0 64.174 0.51809 0.51697 1.0485 1.0126 1.5902 1.506-0.72891-0.03586-1.4578-0.04822-2.1923-0.04822-25.021 0-45.372 20.351-45.372 45.377 0 25.014 20.351 45.365 45.372 45.365 0.72891 0 1.4522-0.01236 2.1744-0.04828-0.5293 0.48221-1.0541 0.98801-1.5655 1.4937-17.7 17.689-17.7 46.487-0.00628 64.187 8.5787 8.5675 19.967 13.278 32.088 13.278 12.114 0 23.501-4.711 32.074-13.278 0.51247-0.51694 1.0182-1.0485 1.506-1.579-0.02915 0.71213-0.04709 1.4467-0.04709 2.1576 0 25.015 20.35 45.377 45.371 45.377 25.014 0 45.371-20.362 45.371-45.377 0-0.7222-0.01689-1.4455-0.05266-2.1811 0.48105 0.52933 0.97562 1.0485 1.487 1.5666 8.5798 8.5798 19.978 13.291 32.106 13.291 12.11 0 23.514-4.711 32.069-13.278 17.689-17.7 17.689-46.485 0-64.174-0.50577-0.4946-1.0114-1.0003-1.5431-1.4825 0.69983 0.03592 1.4232 0.04828 2.1699 0.04828 25.015 0 45.353-20.351 45.353-45.365 0-25.026-20.338-45.377-45.353-45.377-0.74683 0-1.4701 0.01236-2.1934 0.04822 0.53152-0.49341 1.0608-0.98904 1.5913-1.506 8.5552-8.5552 13.278-19.942 13.278-32.075 0-12.128-4.7234-23.52-13.303-32.093-8.5552-8.5608-19.959-13.284-32.069-13.284-12.121 0-23.52 4.7233-32.088 13.284-0.51137 0.5181-1.0182 1.0485-1.5049 1.579 0.03586-0.72331 0.05266-1.4399 0.05266-2.1688 0-25.026-20.357-45.378-45.371-45.378m0 20.719c13.616 0 24.659 11.031 24.659 24.658 0 6.6275-2.651 12.621-6.9101 17.05v51.674l36.54-36.535c0.12001-6.1442 2.4828-12.247 7.1815-16.947 4.813-4.813 11.121-7.2241 17.441-7.2241 6.3023 0 12.616 2.411 17.436 7.2241 9.6217 9.6329 9.6217 25.249 0 34.877-4.6998 4.6863-10.808 7.0492-16.953 7.1815l-36.534 36.533h51.667c4.4284-4.2535 10.429-6.9045 17.08-6.9045 13.591 0 24.629 11.038 24.629 24.665 0 13.616-11.038 24.665-24.629 24.665-6.6511 0-12.652-2.6633-17.08-6.9168h-51.648l36.503 36.509c6.17 0.14465 12.266 2.5052 16.966 7.2062 9.6216 9.6149 9.6216 25.232 0 34.858-4.8086 4.8198-11.133 7.2297-17.436 7.2297-6.3202 0-12.634-2.4099-17.448-7.2297-4.6807-4.6874-7.048-10.796-7.1747-16.941l-36.54-36.534v51.667c4.2591 4.4464 6.9101 10.435 6.9101 17.062 0 13.627-11.042 24.664-24.659 24.664-13.622 0-24.658-11.037-24.658-24.664 0-6.6274 2.6454-12.616 6.9034-17.062v-51.667l-36.539 36.546c-0.12672 6.1441-2.4884 12.265-7.1815 16.941-4.8142 4.8187-11.122 7.2297-17.429 7.2297-6.3146 0-12.622-2.411-17.436-7.2297-9.6328-9.6283-9.6328-25.243 0-34.87 4.6807-4.6763 10.79-7.0503 16.941-7.1826l36.533-36.533h-51.666c-4.4408 4.2535-10.429 6.9168-17.062 6.9168-13.616 0-24.653-11.049-24.653-24.665 0-13.627 11.037-24.665 24.653-24.665 6.6331 0 12.621 2.651 17.062 6.9045h51.685l-36.552-36.545c-6.1453-0.12-12.254-2.494-16.948-7.1938-9.6261-9.6149-9.6261-25.237 0-34.864 4.8142-4.813 11.128-7.2241 17.442-7.2241 6.3068 0 12.615 2.411 17.429 7.2241 4.6998 4.6931 7.0603 10.802 7.1814 16.948l36.539 36.533v-51.661c-4.258-4.4284-6.9033-10.422-6.9033-17.05 0-13.627 11.037-24.658 24.658-24.658" fill="#1a171a"/>
  <g stroke="#fff" stroke-width="0">
   <path fill="url(#c)" d="m188.82 210.05l16-47 155-148 107 100-158 157-44 12-76-74z"/>
   <path fill="url(#b)" d="m335.57 40.297c-11.5 39.75 55.5 115.25 109.25 98.75l21-21-103-101-27.25 23.25z"/>
   <rect opacity=".4" transform="rotate(45.909 293.98 137.1)" height="232.67" width="42.352" y="20.764" x="272.8" fill="#fff"/>
   <rect opacity=".4" transform="rotate(45.909 289.8 139.1)" height="232.67" width="14" y="22.764" x="282.8" fill="#fff"/>
   <ellipse transform="rotate(39.474 415.13 64.379)" rx="67.793" ry="34.82" cy="64.381" cx="415.13" fill="#ea7598"/>
   <path fill="url(#a)" d="m212.07 166.05c-8.5 47 36.25 103.75 99.25 96.75l-152.5 53.25 53.25-150z"/>
   <path fill="#27382f" d="m181.32 242.55c0.5 20.5 26.75 45 46.75 48.5l-66.25 20 19.5-68.5z"/>
  </g>
 </g>
 <g>
  <title>Layer 2</title>
  <path stroke-width="17" stroke="#800000" fill="none" d="m152.82 317.05l51-152 157-153c40-12 118 48 105 105l-157 153-156 47z"/>
 </g>
</svg>
