<?xml version="1.0" encoding="UTF-8" standalone="no"?>
<svg xmlns:rdf="http://www.w3.org/1999/02/22-rdf-syntax-ns#" xmlns="http://www.w3.org/2000/svg" sodipodi:docname="draw-text2.svg" xmlns:sodipodi="http://inkscape.sourceforge.net/DTD/sodipodi-0.dtd" height="22px" sodipodi:version="0.32" width="22px" xmlns:cc="http://web.resource.org/cc/" xmlns:xlink="http://www.w3.org/1999/xlink" sodipodi:docbase="/home/andreas/projekt/bild/tango/22" xmlns:dc="http://purl.org/dc/elements/1.1/">
 <defs>
  <radialGradient id="a" gradientUnits="userSpaceOnUse" cy="30.857" cx="22.571" gradientTransform="matrix(1 0 0 .65138 4.3004e-15 10.758)" r="15.571">
   <stop offset="0"/>
   <stop stop-opacity="0" offset="1"/>
  </radialGradient>
  <linearGradient id="c" y2="19.642" gradientUnits="userSpaceOnUse" x2="24.134" gradientTransform="matrix(.49826 0 0 .46652 -.79997 -.83964)" y1="16.527" x1="19.944">
   <stop stop-color="#fff" offset="0"/>
   <stop stop-color="#b3b3b3" stop-opacity="0" offset="1"/>
  </linearGradient>
  <linearGradient id="b" y2="9.5902" gradientUnits="userSpaceOnUse" x2="14.389" gradientTransform="matrix(.49826 0 0 .48860 -.79997 -1.2736)" y1="24.844" x1="23.306">
   <stop stop-color="#1f1f1f" offset="0"/>
   <stop stop-color="#5c5c5c" offset="1"/>
  </linearGradient>
 </defs>
 <sodipodi:namedview bordercolor="#666666" pagecolor="#ffffff" showgrid="false" borderopacity="1.0" showguides="true"/>
 <path sodipodi:rx="15.571428" sodipodi:ry="10.142858" style="color:#000000" sodipodi:type="arc" d="m38.143 30.857a15.571 10.143 0 1 1 -31.143 0 15.571 10.143 0 1 1 31.143 0z" opacity=".47368" transform="matrix(.70642 0 0 .20802 -4.945 13.471)" sodipodi:cy="30.857143" sodipodi:cx="22.571428" fill="url(#a)"/>
 <path stroke-linejoin="round" d="m15.189 15.521h-8.0359l-1.2933 3.993h-5.3435l7.5846-19.026 6.1271 0.00038 7.333 18.977h-5.117l-1.255-3.944m-6.7899-3.047h5.4599l-2.688-7.3213-2.7719 7.3213" sodipodi:nodetypes="ccccccccccccc" stroke="#000" stroke-linecap="round" fill="url(#b)"/>
 <path opacity=".37912" stroke-linejoin="round" d="m15.685 15.16h-9.0139l-1.2544 3.367h-3.4132l6.735-17.065 4.7735 0.0002 6.511 16.948h-3.123l-1.215-3.25z" sodipodi:nodetypes="ccccccccc" stroke="url(#c)" fill="none"/>
 <image width="400" xlink:href="/home/andreas/palette2.png" height="459" sodipodi:absref="/home/andreas/palette2.png" y="-214.54" x="-354.94"/>
 <path opacity=".51099" d="m8.1687 13.552h5.9793" sodipodi:nodetypes="cc" stroke="#999" stroke-linecap="round" fill="none"/>
</svg>
