<?xml version="1.0" encoding="UTF-8" standalone="no"?>
<!-- Created with Inkscape (http://www.inkscape.org/) -->

<svg
   xmlns:dc="http://purl.org/dc/elements/1.1/"
   xmlns:cc="http://creativecommons.org/ns#"
   xmlns:rdf="http://www.w3.org/1999/02/22-rdf-syntax-ns#"
   xmlns:svg="http://www.w3.org/2000/svg"
   xmlns="http://www.w3.org/2000/svg"
   xmlns:sodipodi="http://sodipodi.sourceforge.net/DTD/sodipodi-0.dtd"
   xmlns:inkscape="http://www.inkscape.org/namespaces/inkscape"
   width="32"
   height="32"
   id="svg4375"
   version="1.1"
   inkscape:version="0.48.3.1 r9886"
   sodipodi:docname="calendar.svg"
   inkscape:export-filename="calendar.png"
   inkscape:export-xdpi="90"
   inkscape:export-ydpi="90">
  <defs
     id="defs4377" />
  <sodipodi:namedview
     id="base"
     pagecolor="#ffffff"
     bordercolor="#666666"
     borderopacity="1.0"
     inkscape:pageopacity="0.0"
     inkscape:pageshadow="2"
     inkscape:zoom="5.6"
     inkscape:cx="55.314207"
     inkscape:cy="-4.9185717"
     inkscape:document-units="px"
     inkscape:current-layer="layer1"
     showgrid="false"
     fit-margin-top="0"
     fit-margin-left="0"
     fit-margin-right="0"
     fit-margin-bottom="0"
     inkscape:window-width="1280"
     inkscape:window-height="800"
     inkscape:window-x="0"
     inkscape:window-y="-31"
     inkscape:window-maximized="1" />
  <metadata
     id="metadata4380">
    <rdf:RDF>
      <cc:Work
         rdf:about="">
        <dc:format>image/svg+xml</dc:format>
        <dc:type
           rdf:resource="http://purl.org/dc/dcmitype/StillImage" />
        <dc:title></dc:title>
      </cc:Work>
    </rdf:RDF>
  </metadata>
  <g
     inkscape:label="Layer 1"
     inkscape:groupmode="layer"
     id="layer1"
     transform="translate(580.71429,-1.576468)">
    <path
       id="path4088"
       d="m -572.71429,4.576468 c -1.108,0 -2,0.892 -2,2 l 0,4 c 0,1.108 0.892,2 2,2 1.108,0 2,-0.892 2,-2 l 0,-4 c 0,-1.108 -0.892,-2 -2,-2 z m 16,0 c -1.108,0 -2,0.892 -2,2 l 0,4 c 0,1.108 0.892,2 2,2 1.108,0 2,-0.892 2,-2 l 0,-4 c 0,-1.108 -0.892,-2 -2,-2 z m -13,4 0,2 c 0,1.662 -1.338,3 -3,3 -1.662,0 -3,-1.338 -3,-3 l 0,-1.875 c -1.72799,0.4425402 -3,2.00525 -3,3.875 l 0,16 c 0,2.216 1.784,4 4,4 l 20,0 c 2.216,0 4,-1.784 4,-4 l 0,-16 c 0,-1.86975 -1.27201,-3.4324598 -3,-3.875 l 0,1.875 c 0,1.662 -1.338,3 -3,3 -1.662,0 -3,-1.338 -3,-3 l 0,-2 -10,0 z m -5.90625,9 21.8125,0 c 0.0554,0 0.0937,0.03835 0.0937,0.09375 l 0,11.8125 c 0,0.0554 -0.0384,0.09375 -0.0937,0.09375 l -21.8125,0 c -0.0554,0 -0.0937,-0.03835 -0.0937,-0.09375 l 0,-11.8125 c 0,-0.0554 0.0384,-0.09375 0.0937,-0.09375 z"
       style="opacity:0.1;fill:#ffffff;stroke:none"
       inkscape:connector-curvature="0" />
    <path
       style="opacity:0.7;fill:#000000;stroke:none"
       d="M 8 2 C 6.892 2 6 2.892 6 4 L 6 8 C 6 9.108 6.892 10 8 10 C 9.108 10 10 9.108 10 8 L 10 4 C 10 2.892 9.108 2 8 2 z M 24 2 C 22.892 2 22 2.892 22 4 L 22 8 C 22 9.108 22.892 10 24 10 C 25.108 10 26 9.108 26 8 L 26 4 C 26 2.892 25.108 2 24 2 z M 11 6 L 11 8 C 11 9.662 9.662 11 8 11 C 6.338 11 5 9.662 5 8 L 5 6.125 C 3.27201 6.5675402 2 8.13025 2 10 L 2 26 C 2 28.216 3.784 30 6 30 L 26 30 C 28.216 30 30 28.216 30 26 L 30 10 C 30 8.13025 28.72799 6.5675402 27 6.125 L 27 8 C 27 9.662 25.662 11 24 11 C 22.338 11 21 9.662 21 8 L 21 6 L 11 6 z M 5.09375 15 L 26.90625 15 C 26.96165 15 27 15.03835 27 15.09375 L 27 26.90625 C 27 26.96165 26.96165 27 26.90625 27 L 5.09375 27 C 5.03835 27 5 26.96165 5 26.90625 L 5 15.09375 C 5 15.03835 5.03835 15 5.09375 15 z "
       transform="translate(-580.71429,1.576468)"
       id="rect3835" />
  </g>
</svg>
