<?xml version="1.0" encoding="utf-8"?>
<!-- Generator: Adobe Illustrator 15.1.0, SVG Export Plug-In  -->
<!DOCTYPE svg PUBLIC "-//W3C//DTD SVG 1.1//EN" "http://www.w3.org/Graphics/SVG/1.1/DTD/svg11.dtd" [
	<!ENTITY ns_flows "http://ns.adobe.com/Flows/1.0/">
]>
<svg version="1.1"
	 xmlns="http://www.w3.org/2000/svg" xmlns:xlink="http://www.w3.org/1999/xlink" xmlns:a="http://ns.adobe.com/AdobeSVGViewerExtensions/3.0/"
	 x="0px" y="0px" width="30px" height="18px" viewBox="0 -2 30 18" overflow="visible" enable-background="new 0 -2 30 18"
	 xml:space="preserve">
<defs>
</defs>
<path fill="#FFFFFF" d="M20.285,0h-8.571C11.319,0,11,0.276,11,0.616v14.769C11,15.727,11.319,16,11.714,16h8.571
	C20.68,16,21,15.727,21,15.385V0.616C21,0.276,20.68,0,20.285,0z M14,15h-2v-2h2V15z M14,12h-2v-2h2V12z M14,9h-2V7h2V9z M14,6h-2V4
	h2V6z M14,3h-2V1h2V3z M17,12h-2v-2h2V12z M17,9h-2V7h2V9z M17,6h-2V4h2V6z M17,3h-2V1h2V3z M20,15h-2v-2h2V15z M20,12h-2v-2h2V12z
	 M20,9h-2V7h2V9z M20,6h-2V4h2V6z M20,3h-2V1h2V3z"/>
<path fill="#FFFFFF" d="M9.5,6h-9C0.224,6,0,6.224,0,6.5v9.001C0,15.774,0.224,16,0.5,16h9c0.276,0,0.5-0.226,0.5-0.499V6.5
	C10,6.224,9.776,6,9.5,6z M3,15H1v-2h2V15z M3,12H1v-2h2V12z M3,9H1V7h2V9z M6,12H4v-2h2V12z M6,9H4V7h2V9z M9,15H7v-2h2V15z M9,12
	H7v-2h2V12z M9,9H7V7h2V9z"/>
</svg>
