<?xml version="1.0" encoding="UTF-8" standalone="no"?>
<!DOCTYPE svg  PUBLIC '-//W3C//DTD SVG 1.1//EN'  'http://www.w3.org/Graphics/SVG/1.1/DTD/svg11.dtd' [
	<!ENTITY ns_flows "http://ns.adobe.com/Flows/1.0/">
]>
<svg xmlns="http://www.w3.org/2000/svg" xml:space="preserve" height="18px" width="30px" version="1.1" y="0px" x="0px" overflow="visible" xmlns:xlink="http://www.w3.org/1999/xlink" viewBox="0 -2 30 18" enable-background="new 0 -2 30 18">
<path d="m20.285 0h-8.571c-0.395 0-0.714 0.276-0.714 0.616v14.769c0 0.342 0.319 0.615 0.714 0.615h8.571c0.395 0 0.715-0.273 0.715-0.615v-14.769c0-0.34-0.32-0.616-0.715-0.616zm-6.285 15h-2v-2h2v2zm0-3h-2v-2h2v2zm0-3h-2v-2h2v2zm0-3h-2v-2h2v2zm0-3h-2v-2h2v2zm3 9h-2v-2h2v2zm0-3h-2v-2h2v2zm0-3h-2v-2h2v2zm0-3h-2v-2h2v2zm3 12h-2v-2h2v2zm0-3h-2v-2h2v2zm0-3h-2v-2h2v2zm0-3h-2v-2h2v2zm0-3h-2v-2h2v2z" fill="#fff"/>
<path d="m9.5 6h-9c-0.276 0-0.5 0.224-0.5 0.5v9.001c0 0.273 0.224 0.499 0.5 0.499h9c0.276 0 0.5-0.226 0.5-0.499v-9.001c0-0.276-0.224-0.5-0.5-0.5zm-6.5 9h-2v-2h2v2zm0-3h-2v-2h2v2zm0-3h-2v-2h2v2zm3 3h-2v-2h2v2zm0-3h-2v-2h2v2zm3 6h-2v-2h2v2zm0-3h-2v-2h2v2zm0-3h-2v-2h2v2z" fill="#fff"/>
</svg>
