<?xml version="1.0" encoding="UTF-8" standalone="no"?>
<!DOCTYPE svg  PUBLIC '-//W3C//DTD SVG 1.1//EN'  'http://www.w3.org/Graphics/SVG/1.1/DTD/svg11.dtd' [
	<!ENTITY ns_flows "http://ns.adobe.com/Flows/1.0/">
]>
<svg xmlns="http://www.w3.org/2000/svg" xml:space="preserve" height="160px" width="141px" version="1.1" y="0px" x="0px" overflow="visible" xmlns:xlink="http://www.w3.org/1999/xlink" viewBox="0.5 0.5 141 160" enable-background="new 0.5 0.5 141 160">
<rect height="160" width="141" stroke="#fff" stroke-miterlimit="10" y=".5" x=".5" fill="#fff"/>
<path d="m60.5 145.5c0 1.657-1.344 3-3 3h-42c-1.657 0-3-1.343-3-3v-52c0-1.656 1.343-3 3-3h42c1.656 0 3 1.344 3 3v52z" fill="#575756"/><g fill="#fff">
<rect y="96.5" x="32.5" height="10" width="8"/>
<rect y="96.5" x="46.5" height="10" width="8"/>
<rect y="96.5" x="18.5" height="10" width="8"/>
<rect y="114.5" x="32.5" height="10" width="8"/>
<rect y="114.5" x="46.5" height="10" width="8"/>
<rect y="114.5" x="18.5" height="10" width="8"/>
<rect y="132.5" x="46.5" height="10" width="8"/>
<rect y="132.5" x="18.5" height="10" width="8"/>
</g><path d="m129.5 145.5c0 1.657-1.344 3-3 3h-56c-1.656 0-3-1.343-3-3v-110c0-1.657 1.344-3 3-3h56c1.656 0 3 1.343 3 3v110z" fill="#575756"/><g fill="#fff">
<rect y="58.5" x="75.5" height="10" width="10"/>
<rect y="58.5" x="93.5" height="10" width="10"/>
<rect y="58.5" x="111.5" height="10" width="10"/>
<rect y="76.5" x="75.5" height="10" width="10"/>
<rect y="76.5" x="93.5" height="10" width="10"/>
<rect y="76.5" x="111.5" height="10" width="10"/>
<rect y="94.5" x="75.5" height="10" width="10"/>
<rect y="94.5" x="93.5" height="10" width="10"/>
<rect y="94.5" x="111.5" height="10" width="10"/>
<rect y="112.5" x="75.5" height="10" width="10"/>
<rect y="112.5" x="93.5" height="10" width="10"/>
<rect y="112.5" x="111.5" height="10" width="10"/>
<rect y="130.5" x="75.5" height="10" width="10"/>
<rect y="130.5" x="111.5" height="10" width="10"/>
<rect y="40.5" x="75.5" height="10" width="10"/>
<rect y="40.5" x="93.5" height="10" width="10"/>
<rect y="40.5" x="111.5" height="10" width="10"/>
</g></svg>
