<?xml version="1.0" encoding="utf-8"?>
<!-- Generator: Adobe Illustrator 15.1.0, SVG Export Plug-In  -->
<!DOCTYPE svg PUBLIC "-//W3C//DTD SVG 1.1//EN" "http://www.w3.org/Graphics/SVG/1.1/DTD/svg11.dtd" [
	<!ENTITY ns_flows "http://ns.adobe.com/Flows/1.0/">
]>
<svg version="1.1"
	 xmlns="http://www.w3.org/2000/svg" xmlns:xlink="http://www.w3.org/1999/xlink" xmlns:a="http://ns.adobe.com/AdobeSVGViewerExtensions/3.0/"
	 x="0px" y="0px" width="331px" height="96px" viewBox="0 0.028 331 96" overflow="visible" enable-background="new 0 0.028 331 96"
	 xml:space="preserve">
<defs>
</defs>
<path fill="#FFFFFF" d="M80,93.028c0,1.657-1.343,3-3,3H3c-1.657,0-3-1.343-3-3v-90c0-1.657,1.343-3,3-3h74c1.657,0,3,1.343,3,3
	V93.028z"/>
<path fill="#575756" d="M109.476,2.436H93.401v13.328l1.518,1.456h14.557c0.815,0,1.238,0.42,1.238,1.232s-0.422,1.232-1.238,1.232
	h-14.95c-0.534-0.028-0.674-0.028-1.096-0.448l-2.052-2.072c-0.28-0.224-0.421-0.532-0.421-0.952V1.232
	C90.956,0.42,91.377,0,92.193,0h17.283c0.815,0,1.238,0.42,1.238,1.232S110.291,2.436,109.476,2.436z"/>
<path fill="#575756" d="M132.043,8.092h-14.558l-1.519,1.456v7.728h14.839v-6.188c0-0.812,0.422-1.204,1.237-1.204
	c0.814,0,1.236,0.392,1.236,1.204v7.392c0,0.812-0.422,1.232-1.236,1.232h-17.284c-0.814,0-1.236-0.42-1.236-1.232V9.016
	c0-0.364,0.14-0.644,0.421-0.868l2.051-2.072c0.421-0.42,0.562-0.42,1.096-0.448h14.952c0.814,0,1.236,0.42,1.236,1.232
	S132.857,8.092,132.043,8.092z"/>
<path fill="#575756" d="M138.506,8.092v10.472c0,0.756-0.393,1.148-1.208,1.148c-0.814,0-1.207-0.42-1.207-1.232V6.832
	c0-0.812,0.421-1.232,1.236-1.232h9.471c0.646,0,0.871,0.252,1.067,0.448l2.193,2.212c1.04,1.036-0.76,2.716-1.799,1.68
	l-1.855-1.848H138.506z"/>
<path fill="#575756" d="M172.961,18.48c0,0.812-0.422,1.232-1.238,1.232h-17.282c-0.815,0-1.236-0.42-1.236-1.232V9.016
	c0-0.364,0.14-0.644,0.421-0.868l2.051-2.072c0.421-0.42,0.562-0.42,1.096-0.448h13.715V1.204c0-0.812,0.42-1.204,1.234-1.204
	c0.816,0,1.238,0.392,1.238,1.204V18.48z M170.489,17.276V8.092h-13.322l-1.517,1.456v7.728H170.489z"/>
<path fill="#575756" d="M175.772,1.008C175.856,0.336,176.249,0,177.006,0h17.283c0.816,0,1.238,0.42,1.238,1.232v5.04
	c0,0.42-0.17,0.672-0.422,0.98l-11.945,11.872c-0.309,0.308-0.59,0.56-1.291,0.56h-5.115h-0.057c0-0.028-0.027-0.028-0.057-0.028
	c-0.027,0-0.055,0-0.082-0.028c-0.17-0.028-0.311-0.084-0.395-0.14c-0.029-0.028-0.057-0.028-0.057-0.056s0-0.028-0.027-0.056
	c-0.197-0.168-0.309-0.448-0.309-0.812V1.008z M178.272,2.436V17.22h3.316l11.494-11.396V2.436H178.272z"/>
<path fill="#575756" d="M216.858,8.092h-14.559l-1.516,1.456v7.728h14.838v-6.188c0-0.812,0.422-1.204,1.236-1.204
	s1.236,0.392,1.236,1.204v7.392c0,0.812-0.422,1.232-1.236,1.232h-17.283c-0.814,0-1.236-0.42-1.236-1.232V9.016
	c0-0.364,0.141-0.644,0.422-0.868l2.051-2.072c0.422-0.42,0.562-0.42,1.096-0.448h14.951c0.814,0,1.236,0.42,1.236,1.232
	S217.672,8.092,216.858,8.092z"/>
<path fill="#575756" d="M223.35,8.344l11.494,8.876h3.344V6.832c0-0.812,0.422-1.232,1.236-1.232c0.844,0,1.266,0.42,1.266,1.232
	v11.62c0,0.812-0.395,1.232-1.152,1.232h-4.975c-0.703,0-0.984-0.252-1.293-0.56l-11.943-9.072c-0.281-0.28-0.422-0.56-0.422-0.84
	V6.468c0.027-0.588,0.562-0.868,1.236-0.868c0.814,0,1.209,0.42,1.209,1.232V8.344z"/>
<path fill="#575756" d="M254.6,18.48c0,0.812-0.393,1.232-1.209,1.232c-0.814,0-1.236-0.42-1.236-1.232V2.52h-6.211v16.044
	c0,0.756-0.422,1.148-1.236,1.148s-1.209-0.42-1.209-1.232V1.26c0-0.812,0.422-1.232,1.236-1.232h12.281
	c0.646,0,0.871,0.252,1.068,0.448l4.75,4.704c0.197,0.196,0.393,0.476,0.422,1.064V18.48c0,0.812-0.422,1.232-1.238,1.232
	c-0.814,0-1.207-0.42-1.207-1.232V6.664l-4.188-4.172H254.6V18.48z"/>
<path fill="#575756" d="M268.512,18.48c0,0.812-0.395,1.232-1.209,1.232s-1.236-0.42-1.236-1.232V6.244
	c0-0.588,0.225-0.868,0.422-1.064l4.748-4.704c0.197-0.196,0.422-0.448,1.068-0.448h12.281c0.814,0,1.236,0.42,1.236,1.232v17.332
	c0,0.756-0.395,1.12-1.209,1.12c-0.561,0-0.926-0.168-1.096-0.532c-0.084-0.084-0.141-0.224-0.141-0.42c0-0.14,0-0.196,0.029-0.196
	V12.32h-14.895V18.48z M283.321,2.492h-10.623l-4.186,4.172v3.22h14.809V2.492z"/>
<path fill="#575756" d="M307.153,6.16h-16.047v9.604l1.488,1.456h14.559c0.814,0,1.236,0.42,1.236,1.232s-0.422,1.232-1.236,1.232
	h-14.924c-0.59,0-0.674-0.028-1.096-0.448l-2.051-2.072c-0.309-0.308-0.449-0.588-0.449-1.008V1.232
	c0-0.812,0.422-1.232,1.236-1.232s1.236,0.42,1.236,1.232v2.464h16.047c0.814,0,1.236,0.42,1.236,1.232S307.967,6.16,307.153,6.16z"
	/>
<path fill="#575756" d="M329.719,19.712h-17.283c-0.814,0-1.236-0.42-1.236-1.232V3.416c0-0.364,0.139-0.644,0.422-0.868
	l2.049-2.072c0.424-0.42,0.564-0.42,1.098-0.448h6.293c0.816,0,1.238,0.42,1.238,1.232s-0.422,1.232-1.238,1.232h-5.9l-1.518,1.456
	v4.704h16.076c0.814,0,1.236,0.42,1.236,1.232s-0.422,1.204-1.236,1.204h-16.076v6.188h16.076c0.814,0,1.236,0.392,1.236,1.204
	S330.534,19.712,329.719,19.712z"/>
<path fill="#575756" d="M129.866,41.258h-3.247v6.514l1.006,0.988h4.141c0.55,0,0.835,0.284,0.835,0.834s-0.285,0.836-0.835,0.836
	h-4.387c-0.398,0-0.457-0.019-0.741-0.304l-1.386-1.406c-0.209-0.208-0.304-0.398-0.304-0.683V37.917
	c0-0.552,0.285-0.835,0.835-0.835c0.551,0,0.836,0.284,0.836,0.835v1.671h3.247c0.55,0,0.836,0.284,0.836,0.834
	C130.702,40.974,130.417,41.258,129.866,41.258z"/>
<path fill="#575756" d="M136.188,42.588v7.007c0,0.361-0.114,0.608-0.36,0.741c-0.134,0.076-0.304,0.113-0.513,0.113
	c-0.551,0-0.817-0.285-0.817-0.835V37.917c0-0.552,0.285-0.835,0.855-0.835c0.551,0,0.835,0.284,0.835,0.835v2.981h7.444
	c0.437,0,0.589,0.171,0.722,0.303l3.21,3.191c0.133,0.134,0.266,0.323,0.284,0.721v4.501c0,0.55-0.284,0.835-0.835,0.835
	c-0.551,0-0.817-0.285-0.817-0.835v-4.216l-2.829-2.811H136.188z"/>
<path fill="#575756" d="M163.095,44.278c0,0.285-0.094,0.494-0.285,0.646l-1.387,1.405c-0.285,0.284-0.379,0.284-0.741,0.303h-6.304
	c-0.551,0-0.836-0.285-0.836-0.835c0-0.551,0.286-0.836,0.836-0.836h6.039l1.025-0.986V42.53h-10.046v5.242l1.025,0.988h9.837
	c0.551,0,0.835,0.284,0.835,0.834s-0.285,0.836-0.835,0.836h-10.103c-0.361-0.019-0.457-0.019-0.741-0.304l-1.386-1.406
	c-0.19-0.152-0.286-0.36-0.286-0.645v-6.362c0-0.551,0.286-0.836,0.836-0.836h11.679c0.551,0,0.835,0.286,0.835,0.836V44.278z"/>
<path fill="#575756" d="M175.321,50.45c-0.552,0-0.836-0.285-0.836-0.835v-6.419c0-0.247,0.095-0.437,0.284-0.589l1.388-1.406
	c0.284-0.284,0.378-0.303,0.74-0.303H187c0.551,0,0.836,0.285,0.836,0.835v7.881c0,0.55-0.285,0.835-0.836,0.835H175.321z
	 M176.136,48.798h10.028v-6.229h-9.002l-1.026,0.987V48.798z"/>
<path fill="#575756" d="M189.731,41.715c0-0.551,0.284-0.836,0.835-0.836h11.68c0.551,0,0.836,0.286,0.836,0.836v2.887
	c-0.019,0.36-0.038,0.436-0.285,0.721l-4.786,4.805c-0.17,0.189-0.455,0.304-0.74,0.304h-5.85v2.963c0,0.55-0.284,0.836-0.854,0.836
	c-0.551,0-0.835-0.286-0.835-0.836V41.715z M191.42,48.761h5.564l4.443-4.444V42.55H191.42V48.761z"/>
<path fill="#575756" d="M218.328,44.278c0,0.285-0.094,0.494-0.284,0.646l-1.387,1.405c-0.284,0.284-0.379,0.284-0.741,0.303h-6.304
	c-0.551,0-0.836-0.285-0.836-0.835c0-0.551,0.285-0.836,0.836-0.836h6.038l1.026-0.986V42.53H206.63v5.242l1.024,0.988h9.838
	c0.551,0,0.835,0.284,0.835,0.834s-0.284,0.836-0.835,0.836h-10.104c-0.36-0.019-0.456-0.019-0.741-0.304l-1.385-1.406
	c-0.191-0.152-0.286-0.36-0.286-0.645v-6.362c0-0.551,0.286-0.836,0.836-0.836h11.68c0.551,0,0.835,0.286,0.835,0.836V44.278z"/>
<path fill="#575756" d="M221.858,42.588v7.083c0,0.513-0.267,0.778-0.817,0.778c-0.55,0-0.816-0.285-0.816-0.835v-7.881
	c0-0.551,0.284-0.835,0.836-0.835h8.299c0.437,0,0.589,0.171,0.721,0.303l3.21,3.191c0.134,0.134,0.266,0.323,0.285,0.721v4.501
	c0,0.55-0.285,0.835-0.835,0.835c-0.552,0-0.817-0.285-0.817-0.835v-4.216l-2.829-2.811H221.858z"/>
<path fill="#575756" d="M256.663,46.5h-10.864c-0.55,0-0.835-0.266-0.835-0.817v-2.469c0-0.209,0.095-0.417,0.305-0.626l1.386-1.405
	c0.284-0.285,0.38-0.304,0.741-0.304h4.253c0.552,0,0.836,0.286,0.836,0.836c0,0.55-0.284,0.835-0.836,0.835h-3.987l-1.007,0.987
	v1.292h10.464c0.854,0,1.253,0.284,1.216,0.854v3.912c-0.02,0.551-0.304,0.836-0.855,0.836h-11.68c-0.55,0-0.835-0.285-0.835-0.836
	s0.285-0.816,0.835-0.816h10.864V46.5z"/>
<path fill="#575756" d="M261.122,50.45c-0.55,0-0.836-0.285-0.836-0.835v-6.419c0-0.247,0.096-0.437,0.286-0.589l1.386-1.406
	c0.285-0.284,0.38-0.303,0.74-0.303h10.104c0.552,0,0.835,0.285,0.835,0.835v7.881c0,0.55-0.283,0.835-0.835,0.835H261.122z
	 M261.939,48.798h10.026v-6.229h-9.001l-1.025,0.987V48.798z"/>
<path fill="#575756" d="M277.185,45.93l2.83,2.831h4.405l2.829-2.831v-4.215c0-0.551,0.266-0.836,0.816-0.836
	s0.836,0.286,0.836,0.836v4.5c-0.019,0.398-0.151,0.59-0.285,0.722l-3.21,3.19c-0.132,0.134-0.284,0.304-0.721,0.304h-4.938
	c-0.437-0.019-0.589-0.17-0.722-0.304l-3.209-3.19c-0.134-0.132-0.285-0.324-0.285-0.722v-4.5c0-0.551,0.285-0.836,0.836-0.836
	c0.55,0,0.816,0.286,0.816,0.836V45.93z"/>
<path fill="#575756" d="M292.43,42.569v7.102c0,0.513-0.266,0.778-0.815,0.778c-0.552,0-0.817-0.285-0.817-0.835v-7.9
	c0-0.551,0.285-0.836,0.835-0.836h6.401c0.437,0,0.588,0.171,0.721,0.304l1.481,1.5c0.703,0.703-0.512,1.843-1.215,1.14
	l-1.254-1.253H292.43z"/>
<path fill="#575756" d="M314.876,42.53h-10.863v5.242l1.025,0.988h9.838c0.55,0,0.835,0.284,0.835,0.834s-0.285,0.836-0.835,0.836
	h-10.104c-0.361-0.019-0.457-0.019-0.741-0.304l-1.386-1.406c-0.19-0.152-0.285-0.36-0.285-0.645v-6.362
	c0-0.551,0.285-0.836,0.836-0.836h11.68c0.55,0,0.835,0.286,0.835,0.836C315.711,42.265,315.426,42.53,314.876,42.53z"/>
<path fill="#575756" d="M330.958,44.278c0,0.285-0.095,0.494-0.285,0.646l-1.386,1.405c-0.285,0.284-0.38,0.284-0.74,0.303h-6.305
	c-0.552,0-0.837-0.285-0.837-0.835c0-0.551,0.285-0.836,0.837-0.836h6.038l1.025-0.986V42.53H319.26v5.242l1.024,0.988h9.838
	c0.55,0,0.835,0.284,0.835,0.834s-0.285,0.836-0.835,0.836h-10.104c-0.36-0.019-0.455-0.019-0.74-0.304l-1.387-1.406
	c-0.19-0.152-0.285-0.36-0.285-0.645v-6.362c0-0.551,0.285-0.836,0.836-0.836h11.68c0.55,0,0.835,0.286,0.835,0.836V44.278z"/>
<path fill="#575756" d="M242.309,61.517h-10.863v9.039l1.025,0.988h9.838c0.55,0,0.835,0.284,0.835,0.835
	c0,0.55-0.285,0.836-0.835,0.836h-10.104c-0.361-0.019-0.457-0.019-0.741-0.304l-1.387-1.405c-0.189-0.153-0.284-0.36-0.284-0.646
	V60.702c0-0.553,0.284-0.836,0.836-0.836h11.68c0.55,0,0.835,0.283,0.835,0.836C243.144,61.251,242.859,61.517,242.309,61.517z"/>
<path fill="#575756" d="M257.554,65.354h-9.837l-1.025,0.985v5.242h10.027v-4.195c0-0.552,0.284-0.818,0.835-0.818
	s0.836,0.267,0.836,0.818v5.013c0,0.551-0.285,0.835-0.836,0.835h-11.679c-0.552,0-0.836-0.284-0.836-0.835V65.98
	c0-0.247,0.095-0.438,0.284-0.59l1.388-1.405c0.284-0.283,0.379-0.283,0.74-0.303h10.103c0.551,0,0.836,0.284,0.836,0.835
	S258.105,65.354,257.554,65.354z"/>
<path fill="#575756" d="M261.919,65.354v7.101c0,0.514-0.267,0.779-0.816,0.779c-0.552,0-0.817-0.284-0.817-0.835v-7.9
	c0-0.551,0.285-0.836,0.835-0.836h6.401c0.437,0,0.588,0.17,0.721,0.304l1.481,1.5c0.703,0.703-0.513,1.843-1.216,1.141
	l-1.253-1.253H261.919z"/>
<path fill="#575756" d="M285.2,72.399c0,0.551-0.285,0.835-0.835,0.835h-11.68c-0.551,0-0.836-0.284-0.836-0.835V65.98
	c0-0.247,0.095-0.438,0.285-0.59l1.386-1.405c0.284-0.283,0.38-0.283,0.741-0.303h9.268V60.68c0-0.55,0.285-0.814,0.836-0.814
	c0.55,0,0.835,0.265,0.835,0.814V72.399z M283.529,71.582v-6.228h-9.002l-1.025,0.985v5.242H283.529z"/>
<path fill="#575756" d="M287.094,60.549c0.058-0.456,0.323-0.684,0.837-0.684h11.68c0.55,0,0.835,0.283,0.835,0.836v3.416
	c0,0.286-0.114,0.457-0.285,0.667l-8.07,8.051c-0.209,0.21-0.398,0.38-0.874,0.38h-3.457h-0.038c0-0.019-0.019-0.019-0.038-0.019
	c-0.019,0-0.037,0-0.057-0.019c-0.114-0.021-0.209-0.058-0.266-0.096c-0.019-0.02-0.038-0.02-0.038-0.037c0-0.02,0-0.02-0.019-0.04
	c-0.133-0.113-0.21-0.302-0.21-0.551V60.549z M288.786,61.517v10.027h2.24l7.768-7.73v-2.297H288.786z"/>
<path fill="#575756" d="M314.856,65.354h-9.837l-1.025,0.985v5.242h10.027v-4.195c0-0.552,0.285-0.818,0.835-0.818
	c0.552,0,0.836,0.267,0.836,0.818v5.013c0,0.551-0.284,0.835-0.836,0.835h-11.68c-0.55,0-0.835-0.284-0.835-0.835V65.98
	c0-0.247,0.095-0.438,0.285-0.59l1.387-1.405c0.285-0.283,0.379-0.283,0.739-0.303h10.104c0.552,0,0.836,0.284,0.836,0.835
	S315.408,65.354,314.856,65.354z"/>
<path fill="#575756" d="M319.24,65.524l7.768,6.021h2.261v-7.046c0-0.551,0.284-0.836,0.835-0.836c0.569,0,0.854,0.285,0.854,0.836
	v7.881c0,0.55-0.266,0.836-0.779,0.836h-3.361c-0.475,0-0.664-0.17-0.873-0.38l-8.071-6.152c-0.189-0.191-0.284-0.381-0.284-0.569
	v-1.862c0.018-0.398,0.379-0.589,0.835-0.589c0.551,0,0.816,0.285,0.816,0.836V65.524z"/>
<path fill="#575756" d="M221.003,87.283c0-0.55,0.265-0.836,0.816-0.836c0.551,0,0.836,0.286,0.836,0.836v7.025h4.216v-7.064
	c0-0.532,0.266-0.797,0.816-0.797s0.816,0.286,0.816,0.836v7.881c0,0.551-0.284,0.836-0.835,0.836h-8.3
	c-0.437,0-0.588-0.17-0.721-0.304l-3.209-3.191c-0.134-0.134-0.267-0.322-0.286-0.721v-4.501c0-0.55,0.286-0.836,0.836-0.836
	c0.551,0,0.817,0.286,0.817,0.836v4.215l2.829,2.83h1.367V87.283z"/>
<path fill="#575756" d="M243.75,89.845c0,0.286-0.095,0.495-0.284,0.647l-1.387,1.403c-0.284,0.286-0.379,0.286-0.74,0.304h-6.305
	c-0.552,0-0.836-0.282-0.836-0.834c0-0.551,0.284-0.836,0.836-0.836h6.038l1.026-0.988v-1.442h-10.046v5.241l1.024,0.987h9.838
	c0.551,0,0.835,0.285,0.835,0.836S243.466,96,242.916,96h-10.104c-0.36-0.019-0.455-0.019-0.74-0.304l-1.387-1.405
	c-0.189-0.152-0.285-0.362-0.285-0.646v-6.362c0-0.55,0.285-0.836,0.836-0.836h11.68c0.551,0,0.835,0.286,0.835,0.836V89.845z"/>
<path fill="#575756" d="M245.647,83.465c0-0.551,0.284-0.817,0.835-0.817s0.837,0.267,0.837,0.817v3h9.267
	c0.361,0.019,0.456,0.019,0.741,0.304l1.386,1.405c0.19,0.152,0.285,0.342,0.285,0.589v6.419c0,0.551-0.285,0.836-0.836,0.836
	h-11.68c-0.551,0-0.835-0.285-0.835-0.836V83.465z M257.345,94.366v-5.241l-1.025-0.988h-9.001v6.229H257.345z"/>
<path fill="#575756" d="M282.902,88.099H272.04v5.241l1.025,0.987h9.837c0.552,0,0.836,0.285,0.836,0.836S283.454,96,282.902,96
	h-10.104c-0.36-0.019-0.455-0.019-0.74-0.304l-1.386-1.405c-0.19-0.152-0.286-0.362-0.286-0.646v-6.362
	c0-0.55,0.286-0.836,0.836-0.836h11.68c0.552,0,0.836,0.286,0.836,0.836C283.738,87.834,283.454,88.099,282.902,88.099z"/>
<path fill="#575756" d="M285.634,83.484c0-0.551,0.284-0.836,0.854-0.836c0.552,0,0.836,0.285,0.836,0.836v11.68
	c0,0.551-0.284,0.836-0.854,0.836c-0.551,0-0.835-0.285-0.835-0.836V83.484z"/>
<path fill="#575756" d="M289.221,83.484c0-0.551,0.286-0.836,0.855-0.836c0.55,0,0.836,0.285,0.836,0.836v0.285
	c0,0.551-0.286,0.834-0.855,0.834c-0.55,0-0.836-0.283-0.836-0.834V83.484z M289.221,87.283c0-0.55,0.286-0.836,0.855-0.836
	c0.55,0,0.836,0.286,0.836,0.836v7.881c0,0.551-0.286,0.836-0.855,0.836c-0.55,0-0.836-0.285-0.836-0.836V87.283z"/>
<path fill="#575756" d="M306.161,89.845c0,0.286-0.095,0.495-0.284,0.647l-1.387,1.403c-0.284,0.286-0.381,0.286-0.741,0.304h-6.305
	c-0.551,0-0.835-0.282-0.835-0.834c0-0.551,0.284-0.836,0.835-0.836h6.039l1.025-0.988v-1.442h-10.046v5.241l1.025,0.987h9.837
	c0.552,0,0.836,0.285,0.836,0.836S305.876,96,305.325,96h-10.104c-0.36-0.019-0.454-0.019-0.739-0.304l-1.387-1.405
	c-0.19-0.152-0.285-0.362-0.285-0.646v-6.362c0-0.55,0.285-0.836,0.835-0.836h11.68c0.552,0,0.836,0.286,0.836,0.836V89.845z"/>
<path fill="#575756" d="M309.69,88.157v7.082c0,0.515-0.266,0.779-0.816,0.779s-0.817-0.285-0.817-0.836v-7.88
	c0-0.552,0.286-0.837,0.836-0.837h8.299c0.438,0,0.589,0.17,0.723,0.304l3.209,3.191c0.133,0.132,0.267,0.322,0.284,0.721v4.501
	c0,0.551-0.284,0.836-0.835,0.836c-0.55,0-0.816-0.285-0.816-0.836v-4.215l-2.83-2.811H309.69z"/>
<path fill="#575756" d="M328.222,86.827h-3.248v6.514l1.007,0.987h4.14c0.551,0,0.836,0.285,0.836,0.836S330.671,96,330.121,96
	h-4.388c-0.398,0-0.454-0.019-0.739-0.304l-1.387-1.405c-0.209-0.21-0.305-0.398-0.305-0.685V83.484
	c0-0.551,0.285-0.836,0.837-0.836c0.55,0,0.835,0.285,0.835,0.836v1.671h3.248c0.55,0,0.835,0.285,0.835,0.836
	S328.772,86.827,328.222,86.827z"/>
<polygon fill="#575756" points="38.952,42.698 38.952,53.922 58.718,53.922 58.718,41.355 40.294,41.355 "/>
<path fill="#575756" d="M77,0.028H3c-1.657,0-3,1.343-3,3v6h9v6H0v6h9v6H0v6h9v6H0v6h9v6H0v6h9v6H0v6h9v6H0v6h9v6H0v6
	c0,1.656,1.343,3,3,3h74c1.657,0,3-1.344,3-3v-90C80,1.371,78.657,0.028,77,0.028z M61.401,70.028H28.947
	c-1.159-0.061-1.464-0.061-2.379-0.977l-4.453-4.514c-0.61-0.488-0.915-1.098-0.915-1.891V30.009c0-1.769,0.915-2.684,2.684-2.684
	h37.518c1.647,0,2.44,0.671,2.38,1.952v27.635c0,0.854-0.428,1.281-1.221,1.281H35.658c-0.915,0-1.342-0.427-1.342-1.343V40.379
	c0-0.305,0.183-0.61,0.488-0.915L37,37.208c0.427-0.427,0.488-0.427,0.915-0.427h20.803v-4.148H26.507v28.855l3.294,3.172h31.6
	c1.77,0,2.685,0.916,2.685,2.686C64.086,69.113,63.171,70.028,61.401,70.028z"/>
</svg>
