<?xml version="1.0" encoding="UTF-8" standalone="no"?>
<!DOCTYPE svg  PUBLIC '-//W3C//DTD SVG 1.1//EN'  'http://www.w3.org/Graphics/SVG/1.1/DTD/svg11.dtd' [
	<!ENTITY ns_flows "http://ns.adobe.com/Flows/1.0/">
]>
<svg xmlns="http://www.w3.org/2000/svg" xml:space="preserve" height="32px" width="32px" version="1.1" y="0px" x="0px" overflow="visible" xmlns:xlink="http://www.w3.org/1999/xlink" viewBox="0 0 32 32" enable-background="new 0 0 32 32">
<path d="m32.001 30.266l-0.001-4.18-11.834-11.83c1.47-3.749 0.698-8.17-2.33-11.196-4.08-4.081-10.695-4.079-14.775 0s-4.082 10.694 0 14.775c3.027 3.027 7.45 3.795 11.197 2.33l2.43 2.43h3.135v3.135l1.565 1.564h3.134v3.135l1.569 1.571v-0.004l4.176 0.002 1.734-1.732zm-25.986-19.819c-1.225-1.225-1.227-3.206 0-4.432 1.222-1.222 3.208-1.224 4.432 0 1.225 1.224 1.224 3.209 0.001 4.434-1.226 1.224-3.209 1.222-4.433-0.002z" fill="#fff"/>
</svg>
