<?xml version="1.0" encoding="UTF-8" standalone="no"?>
<!DOCTYPE svg  PUBLIC '-//W3C//DTD SVG 1.1//EN'  'http://www.w3.org/Graphics/SVG/1.1/DTD/svg11.dtd' [
	<!ENTITY ns_flows "http://ns.adobe.com/Flows/1.0/">
]>
<svg xmlns="http://www.w3.org/2000/svg" xml:space="preserve" height="96px" width="331px" version="1.1" y="0px" x="0px" overflow="visible" xmlns:xlink="http://www.w3.org/1999/xlink" viewBox="0 0.028 331 96" enable-background="new 0 0.028 331 96">
<path d="m80 93.028c0 1.657-1.343 3-3 3h-74c-1.657 0-3-1.343-3-3v-90c0-1.657 1.343-3 3-3h74c1.657 0 3 1.343 3 3v90z" fill="#fff"/><g fill="#575756">
<path d="m109.48 2.436h-16.079v13.328l1.518 1.456h14.557c0.815 0 1.238 0.42 1.238 1.232s-0.422 1.232-1.238 1.232h-14.95c-0.534-0.028-0.674-0.028-1.096-0.448l-2.052-2.072c-0.28-0.224-0.421-0.532-0.421-0.952v-14.98c-0.005-0.812 0.416-1.232 1.232-1.232h17.283c0.815 0 1.238 0.42 1.238 1.232s-0.43 1.204-1.24 1.204z"/>
<path d="m132.04 8.092h-14.558l-1.519 1.456v7.728h14.839v-6.188c0-0.812 0.422-1.204 1.237-1.204 0.814 0 1.236 0.392 1.236 1.204v7.392c0 0.812-0.422 1.232-1.236 1.232h-17.284c-0.814 0-1.236-0.42-1.236-1.232v-9.464c0-0.364 0.14-0.644 0.421-0.868l2.051-2.072c0.421-0.42 0.562-0.42 1.096-0.448h14.952c0.814 0 1.236 0.42 1.236 1.232s-0.42 1.232-1.24 1.232z"/>
<path d="m138.51 8.092v10.472c0 0.756-0.393 1.148-1.208 1.148-0.814 0-1.207-0.42-1.207-1.232v-11.648c0-0.812 0.421-1.232 1.236-1.232h9.471c0.646 0 0.871 0.252 1.067 0.448l2.193 2.212c1.04 1.036-0.76 2.716-1.799 1.68l-1.855-1.848h-7.89z"/>
<path d="m172.96 18.48c0 0.812-0.422 1.232-1.238 1.232h-17.282c-0.815 0-1.236-0.42-1.236-1.232v-9.464c0-0.364 0.14-0.644 0.421-0.868l2.051-2.072c0.421-0.42 0.562-0.42 1.096-0.448h13.715v-4.424c0-0.812 0.42-1.204 1.234-1.204 0.816 0 1.238 0.392 1.238 1.204v17.276zm-2.47-1.204v-9.184h-13.322l-1.517 1.456v7.728h14.84z"/>
<path d="m175.77 1.008c0.09-0.672 0.48-1.008 1.24-1.008h17.283c0.816 0 1.238 0.42 1.238 1.232v5.04c0 0.42-0.17 0.672-0.422 0.98l-11.945 11.872c-0.309 0.308-0.59 0.56-1.291 0.56h-5.172c0-0.028-0.027-0.028-0.057-0.028-0.027 0-0.055 0-0.082-0.028-0.17-0.028-0.311-0.084-0.395-0.14-0.029-0.028-0.057-0.028-0.057-0.056s0-0.028-0.027-0.056c-0.197-0.168-0.309-0.448-0.309-0.812v-17.556zm2.5 1.428v14.784h3.316l11.494-11.396v-3.388h-14.81z"/>
<path d="m216.86 8.092h-14.559l-1.516 1.456v7.728h14.838v-6.188c0-0.812 0.422-1.204 1.236-1.204s1.236 0.392 1.236 1.204v7.392c0 0.812-0.422 1.232-1.236 1.232h-17.283c-0.814 0-1.236-0.42-1.236-1.232v-9.464c0-0.364 0.141-0.644 0.422-0.868l2.051-2.072c0.422-0.42 0.562-0.42 1.096-0.448h14.951c0.814 0 1.236 0.42 1.236 1.232s-0.43 1.232-1.24 1.232z"/>
<path d="m223.35 8.344l11.494 8.876h3.344v-10.388c0-0.812 0.422-1.232 1.236-1.232 0.844 0 1.266 0.42 1.266 1.232v11.62c0 0.812-0.395 1.232-1.152 1.232h-4.975c-0.703 0-0.984-0.252-1.293-0.56l-11.943-9.072c-0.281-0.28-0.422-0.56-0.422-0.84v-2.744c0.027-0.588 0.562-0.868 1.236-0.868 0.814 0 1.209 0.42 1.209 1.232v1.512z"/>
<path d="m254.6 18.48c0 0.812-0.393 1.232-1.209 1.232-0.814 0-1.236-0.42-1.236-1.232v-15.96h-6.211v16.044c0 0.756-0.422 1.148-1.236 1.148s-1.209-0.42-1.209-1.232v-17.22c0-0.812 0.422-1.232 1.236-1.232h12.281c0.646 0 0.871 0.252 1.068 0.448l4.75 4.704c0.197 0.196 0.393 0.476 0.422 1.064v12.236c0 0.812-0.422 1.232-1.238 1.232-0.814 0-1.207-0.42-1.207-1.232v-11.816l-4.188-4.172h-2.01v15.988z"/>
<path d="m268.51 18.48c0 0.812-0.395 1.232-1.209 1.232s-1.236-0.42-1.236-1.232v-12.236c0-0.588 0.225-0.868 0.422-1.064l4.748-4.704c0.197-0.196 0.422-0.448 1.068-0.448h12.281c0.814 0 1.236 0.42 1.236 1.232v17.332c0 0.756-0.395 1.12-1.209 1.12-0.561 0-0.926-0.168-1.096-0.532-0.084-0.084-0.141-0.224-0.141-0.42 0-0.14 0-0.196 0.029-0.196v-6.244h-14.895v6.16zm14.81-15.988h-10.623l-4.186 4.172v3.22h14.809v-7.392z"/>
<path d="m307.15 6.16h-16.047v9.604l1.488 1.456h14.559c0.814 0 1.236 0.42 1.236 1.232s-0.422 1.232-1.236 1.232h-14.924c-0.59 0-0.674-0.028-1.096-0.448l-2.051-2.072c-0.309-0.308-0.449-0.588-0.449-1.008v-14.924c0-0.812 0.422-1.232 1.236-1.232s1.236 0.42 1.236 1.232v2.464h16.047c0.814 0 1.236 0.42 1.236 1.232s-0.43 1.232-1.25 1.232z"/>
<path d="m329.72 19.712h-17.283c-0.814 0-1.236-0.42-1.236-1.232v-15.064c0-0.364 0.139-0.644 0.422-0.868l2.049-2.072c0.424-0.42 0.564-0.42 1.098-0.448h6.293c0.816 0 1.238 0.42 1.238 1.232s-0.422 1.232-1.238 1.232h-5.9l-1.518 1.456v4.704h16.076c0.814 0 1.236 0.42 1.236 1.232s-0.422 1.204-1.236 1.204h-16.076v6.188h16.076c0.814 0 1.236 0.392 1.236 1.204s-0.43 1.232-1.24 1.232z"/>
<path d="m129.87 41.258h-3.247v6.514l1.006 0.988h4.141c0.55 0 0.835 0.284 0.835 0.834s-0.285 0.836-0.835 0.836h-4.387c-0.398 0-0.457-0.019-0.741-0.304l-1.386-1.406c-0.209-0.208-0.304-0.398-0.304-0.683v-10.12c0-0.552 0.285-0.835 0.835-0.835 0.551 0 0.836 0.284 0.836 0.835v1.671h3.247c0.55 0 0.836 0.284 0.836 0.834-0.01 0.552-0.29 0.836-0.84 0.836z"/>
<path d="m136.19 42.588v7.007c0 0.361-0.114 0.608-0.36 0.741-0.134 0.076-0.304 0.113-0.513 0.113-0.551 0-0.817-0.285-0.817-0.835v-11.697c0-0.552 0.285-0.835 0.855-0.835 0.551 0 0.835 0.284 0.835 0.835v2.981h7.444c0.437 0 0.589 0.171 0.722 0.303l3.21 3.191c0.133 0.134 0.266 0.323 0.284 0.721v4.501c0 0.55-0.284 0.835-0.835 0.835s-0.817-0.285-0.817-0.835v-4.216l-2.829-2.811h-7.18z"/>
<path d="m163.1 44.278c0 0.285-0.094 0.494-0.285 0.646l-1.387 1.405c-0.285 0.284-0.379 0.284-0.741 0.303h-6.304c-0.551 0-0.836-0.285-0.836-0.835 0-0.551 0.286-0.836 0.836-0.836h6.039l1.025-0.986v-1.445h-10.046v5.242l1.025 0.988h9.837c0.551 0 0.835 0.284 0.835 0.834s-0.285 0.836-0.835 0.836h-10.103c-0.361-0.019-0.457-0.019-0.741-0.304l-1.386-1.406c-0.19-0.152-0.286-0.36-0.286-0.645v-6.362c0-0.551 0.286-0.836 0.836-0.836h11.679c0.551 0 0.835 0.286 0.835 0.836v2.565z"/>
<path d="m175.32 50.45c-0.552 0-0.836-0.285-0.836-0.835v-6.419c0-0.247 0.095-0.437 0.284-0.589l1.388-1.406c0.284-0.284 0.378-0.303 0.74-0.303h10.11c0.551 0 0.836 0.285 0.836 0.835v7.881c0 0.55-0.285 0.835-0.836 0.835h-11.68zm0.82-1.652h10.028v-6.229h-9.002l-1.026 0.987v5.242z"/>
<path d="m189.73 41.715c0-0.551 0.284-0.836 0.835-0.836h11.68c0.551 0 0.836 0.286 0.836 0.836v2.887c-0.019 0.36-0.038 0.436-0.285 0.721l-4.786 4.805c-0.17 0.189-0.455 0.304-0.74 0.304h-5.85v2.963c0 0.55-0.284 0.836-0.854 0.836-0.551 0-0.835-0.286-0.835-0.836v-11.68zm1.69 7.046h5.564l4.443-4.444v-1.767h-10v6.211z"/>
<path d="m218.33 44.278c0 0.285-0.094 0.494-0.284 0.646l-1.387 1.405c-0.284 0.284-0.379 0.284-0.741 0.303h-6.304c-0.551 0-0.836-0.285-0.836-0.835 0-0.551 0.285-0.836 0.836-0.836h6.038l1.026-0.986v-1.445h-10.06v5.242l1.024 0.988h9.838c0.551 0 0.835 0.284 0.835 0.834s-0.284 0.836-0.835 0.836h-10.104c-0.36-0.019-0.456-0.019-0.741-0.304l-1.385-1.406c-0.191-0.152-0.286-0.36-0.286-0.645v-6.362c0-0.551 0.286-0.836 0.836-0.836h11.68c0.551 0 0.835 0.286 0.835 0.836v2.565z"/>
<path d="m221.86 42.588v7.083c0 0.513-0.267 0.778-0.817 0.778s-0.816-0.285-0.816-0.835v-7.881c0-0.551 0.284-0.835 0.836-0.835h8.299c0.437 0 0.589 0.171 0.721 0.303l3.21 3.191c0.134 0.134 0.266 0.323 0.285 0.721v4.501c0 0.55-0.285 0.835-0.835 0.835-0.552 0-0.817-0.285-0.817-0.835v-4.216l-2.829-2.811h-7.23z"/>
<path d="m256.66 46.5h-10.864c-0.55 0-0.835-0.266-0.835-0.817v-2.469c0-0.209 0.095-0.417 0.305-0.626l1.386-1.405c0.284-0.285 0.38-0.304 0.741-0.304h4.253c0.552 0 0.836 0.286 0.836 0.836s-0.284 0.835-0.836 0.835h-3.987l-1.007 0.987v1.292h10.464c0.854 0 1.253 0.284 1.216 0.854v3.912c-0.02 0.551-0.304 0.836-0.855 0.836h-11.68c-0.55 0-0.835-0.285-0.835-0.836s0.285-0.816 0.835-0.816h10.864v-2.279z"/>
<path d="m261.12 50.45c-0.55 0-0.836-0.285-0.836-0.835v-6.419c0-0.247 0.096-0.437 0.286-0.589l1.386-1.406c0.285-0.284 0.38-0.303 0.74-0.303h10.104c0.552 0 0.835 0.285 0.835 0.835v7.881c0 0.55-0.283 0.835-0.835 0.835h-11.68zm0.82-1.652h10.026v-6.229h-9.001l-1.025 0.987v5.242z"/>
<path d="m277.18 45.93l2.83 2.831h4.405l2.829-2.831v-4.215c0-0.551 0.266-0.836 0.816-0.836s0.836 0.286 0.836 0.836v4.5c-0.019 0.398-0.151 0.59-0.285 0.722l-3.21 3.19c-0.132 0.134-0.284 0.304-0.721 0.304h-4.938c-0.437-0.019-0.589-0.17-0.722-0.304l-3.209-3.19c-0.134-0.132-0.285-0.324-0.285-0.722v-4.5c0-0.551 0.285-0.836 0.836-0.836 0.55 0 0.816 0.286 0.816 0.836v4.215z"/>
<path d="m292.43 42.569v7.102c0 0.513-0.266 0.778-0.815 0.778-0.552 0-0.817-0.285-0.817-0.835v-7.9c0-0.551 0.285-0.836 0.835-0.836h6.401c0.437 0 0.588 0.171 0.721 0.304l1.481 1.5c0.703 0.703-0.512 1.843-1.215 1.14l-1.254-1.253h-5.34z"/>
<path d="m314.88 42.53h-10.863v5.242l1.025 0.988h9.838c0.55 0 0.835 0.284 0.835 0.834s-0.285 0.836-0.835 0.836h-10.104c-0.361-0.019-0.457-0.019-0.741-0.304l-1.386-1.406c-0.19-0.152-0.285-0.36-0.285-0.645v-6.362c0-0.551 0.285-0.836 0.836-0.836h11.68c0.55 0 0.835 0.286 0.835 0.836-0.01 0.552-0.29 0.817-0.84 0.817z"/>
<path d="m330.96 44.278c0 0.285-0.095 0.494-0.285 0.646l-1.386 1.405c-0.285 0.284-0.38 0.284-0.74 0.303h-6.305c-0.552 0-0.837-0.285-0.837-0.835 0-0.551 0.285-0.836 0.837-0.836h6.038l1.025-0.986v-1.445h-10.04v5.242l1.024 0.988h9.838c0.55 0 0.835 0.284 0.835 0.834s-0.285 0.836-0.835 0.836h-10.104c-0.36-0.019-0.455-0.019-0.74-0.304l-1.387-1.406c-0.19-0.152-0.285-0.36-0.285-0.645v-6.362c0-0.551 0.285-0.836 0.836-0.836h11.68c0.55 0 0.835 0.286 0.835 0.836v2.565z"/>
<path d="m242.31 61.517h-10.863v9.039l1.025 0.988h9.838c0.55 0 0.835 0.284 0.835 0.835 0 0.55-0.285 0.836-0.835 0.836h-10.104c-0.361-0.019-0.457-0.019-0.741-0.304l-1.387-1.405c-0.189-0.153-0.284-0.36-0.284-0.646v-10.158c0-0.553 0.284-0.836 0.836-0.836h11.68c0.55 0 0.835 0.283 0.835 0.836-0.02 0.549-0.3 0.815-0.85 0.815z"/>
<path d="m257.55 65.354h-9.837l-1.025 0.985v5.242h10.027v-4.195c0-0.552 0.284-0.818 0.835-0.818s0.836 0.267 0.836 0.818v5.013c0 0.551-0.285 0.835-0.836 0.835h-11.679c-0.552 0-0.836-0.284-0.836-0.835v-6.419c0-0.247 0.095-0.438 0.284-0.59l1.388-1.405c0.284-0.283 0.379-0.283 0.74-0.303h10.103c0.551 0 0.836 0.284 0.836 0.835s-0.27 0.837-0.82 0.837z"/>
<path d="m261.92 65.354v7.101c0 0.514-0.267 0.779-0.816 0.779-0.552 0-0.817-0.284-0.817-0.835v-7.9c0-0.551 0.285-0.836 0.835-0.836h6.401c0.437 0 0.588 0.17 0.721 0.304l1.481 1.5c0.703 0.703-0.513 1.843-1.216 1.141l-1.253-1.253h-5.33z"/>
<path d="m285.2 72.399c0 0.551-0.285 0.835-0.835 0.835h-11.68c-0.551 0-0.836-0.284-0.836-0.835v-6.419c0-0.247 0.095-0.438 0.285-0.59l1.386-1.405c0.284-0.283 0.38-0.283 0.741-0.303h9.268v-3.002c0-0.55 0.285-0.814 0.836-0.814 0.55 0 0.835 0.265 0.835 0.814v11.719zm-1.67-0.817v-6.228h-9.002l-1.025 0.985v5.242h10.03z"/>
<path d="m287.09 60.549c0.058-0.456 0.323-0.684 0.837-0.684h11.68c0.55 0 0.835 0.283 0.835 0.836v3.416c0 0.286-0.114 0.457-0.285 0.667l-8.07 8.051c-0.209 0.21-0.398 0.38-0.874 0.38h-3.495c0-0.019-0.019-0.019-0.038-0.019s-0.037 0-0.057-0.019c-0.114-0.021-0.209-0.058-0.266-0.096-0.019-0.02-0.038-0.02-0.038-0.037 0-0.02 0-0.02-0.019-0.04-0.133-0.113-0.21-0.302-0.21-0.551v-11.904zm1.7 0.968v10.027h2.24l7.768-7.73v-2.297h-10.01z"/>
<path d="m314.86 65.354h-9.837l-1.025 0.985v5.242h10.027v-4.195c0-0.552 0.285-0.818 0.835-0.818 0.552 0 0.836 0.267 0.836 0.818v5.013c0 0.551-0.284 0.835-0.836 0.835h-11.68c-0.55 0-0.835-0.284-0.835-0.835v-6.419c0-0.247 0.095-0.438 0.285-0.59l1.387-1.405c0.285-0.283 0.379-0.283 0.739-0.303h10.104c0.552 0 0.836 0.284 0.836 0.835s-0.28 0.837-0.83 0.837z"/>
<path d="m319.24 65.524l7.768 6.021h2.261v-7.046c0-0.551 0.284-0.836 0.835-0.836 0.569 0 0.854 0.285 0.854 0.836v7.881c0 0.55-0.266 0.836-0.779 0.836h-3.361c-0.475 0-0.664-0.17-0.873-0.38l-8.071-6.152c-0.189-0.191-0.284-0.381-0.284-0.569v-1.862c0.018-0.398 0.379-0.589 0.835-0.589 0.551 0 0.816 0.285 0.816 0.836v1.024z"/>
<path d="m221 87.283c0-0.55 0.265-0.836 0.816-0.836s0.836 0.286 0.836 0.836v7.025h4.216v-7.064c0-0.532 0.266-0.797 0.816-0.797s0.816 0.286 0.816 0.836v7.881c0 0.551-0.284 0.836-0.835 0.836h-8.3c-0.437 0-0.588-0.17-0.721-0.304l-3.209-3.191c-0.134-0.134-0.267-0.322-0.286-0.721v-4.501c0-0.55 0.286-0.836 0.836-0.836 0.551 0 0.817 0.286 0.817 0.836v4.215l2.829 2.83h1.367v-7.045z"/>
<path d="m243.75 89.845c0 0.286-0.095 0.495-0.284 0.647l-1.387 1.403c-0.284 0.286-0.379 0.286-0.74 0.304h-6.305c-0.552 0-0.836-0.282-0.836-0.834 0-0.551 0.284-0.836 0.836-0.836h6.038l1.026-0.988v-1.442h-10.046v5.241l1.024 0.987h9.838c0.551 0 0.835 0.285 0.835 0.836s-0.29 0.837-0.84 0.837h-10.104c-0.36-0.019-0.455-0.019-0.74-0.304l-1.387-1.405c-0.189-0.152-0.285-0.362-0.285-0.646v-6.362c0-0.55 0.285-0.836 0.836-0.836h11.68c0.551 0 0.835 0.286 0.835 0.836v2.562z"/>
<path d="m245.65 83.465c0-0.551 0.284-0.817 0.835-0.817s0.837 0.267 0.837 0.817v3h9.267c0.361 0.019 0.456 0.019 0.741 0.304l1.386 1.405c0.19 0.152 0.285 0.342 0.285 0.589v6.419c0 0.551-0.285 0.836-0.836 0.836h-11.68c-0.551 0-0.835-0.285-0.835-0.836v-11.717zm11.69 10.901v-5.241l-1.025-0.988h-9.001v6.229h10.02z"/>
<path d="m282.9 88.099h-10.86v5.241l1.025 0.987h9.837c0.552 0 0.836 0.285 0.836 0.836s-0.29 0.837-0.84 0.837h-10.104c-0.36-0.019-0.455-0.019-0.74-0.304l-1.386-1.405c-0.19-0.152-0.286-0.362-0.286-0.646v-6.362c0-0.55 0.286-0.836 0.836-0.836h11.68c0.552 0 0.836 0.286 0.836 0.836 0 0.551-0.29 0.816-0.84 0.816z"/>
<path d="m285.63 83.484c0-0.551 0.284-0.836 0.854-0.836 0.552 0 0.836 0.285 0.836 0.836v11.68c0 0.551-0.284 0.836-0.854 0.836-0.551 0-0.835-0.285-0.835-0.836v-11.68z"/>
<path d="m289.22 83.484c0-0.551 0.286-0.836 0.855-0.836 0.55 0 0.836 0.285 0.836 0.836v0.285c0 0.551-0.286 0.834-0.855 0.834-0.55 0-0.836-0.283-0.836-0.834v-0.285zm0 3.799c0-0.55 0.286-0.836 0.855-0.836 0.55 0 0.836 0.286 0.836 0.836v7.881c0 0.551-0.286 0.836-0.855 0.836-0.55 0-0.836-0.285-0.836-0.836v-7.881z"/>
<path d="m306.16 89.845c0 0.286-0.095 0.495-0.284 0.647l-1.387 1.403c-0.284 0.286-0.381 0.286-0.741 0.304h-6.305c-0.551 0-0.835-0.282-0.835-0.834 0-0.551 0.284-0.836 0.835-0.836h6.039l1.025-0.988v-1.442h-10.046v5.241l1.025 0.987h9.837c0.552 0 0.836 0.285 0.836 0.836s-0.28 0.837-0.84 0.837h-10.104c-0.36-0.019-0.454-0.019-0.739-0.304l-1.387-1.405c-0.19-0.152-0.285-0.362-0.285-0.646v-6.362c0-0.55 0.285-0.836 0.835-0.836h11.68c0.552 0 0.836 0.286 0.836 0.836v2.562z"/>
<path d="m309.69 88.157v7.082c0 0.515-0.266 0.779-0.816 0.779s-0.817-0.285-0.817-0.836v-7.88c0-0.552 0.286-0.837 0.836-0.837h8.299c0.438 0 0.589 0.17 0.723 0.304l3.209 3.191c0.133 0.132 0.267 0.322 0.284 0.721v4.501c0 0.551-0.284 0.836-0.835 0.836-0.55 0-0.816-0.285-0.816-0.836v-4.215l-2.83-2.811h-7.22z"/>
<path d="m328.22 86.827h-3.248v6.514l1.007 0.987h4.14c0.551 0 0.836 0.285 0.836 0.836s-0.29 0.836-0.84 0.836h-4.388c-0.398 0-0.454-0.019-0.739-0.304l-1.387-1.405c-0.209-0.21-0.305-0.398-0.305-0.685v-10.122c0-0.551 0.285-0.836 0.837-0.836 0.55 0 0.835 0.285 0.835 0.836v1.671h3.248c0.55 0 0.835 0.285 0.835 0.836s-0.29 0.836-0.84 0.836z"/>
<polygon points="38.952 42.698 38.952 53.922 58.718 53.922 58.718 41.355 40.294 41.355"/>
<path d="m77 0.028h-74c-1.657 0-3 1.343-3 3v6h9v6h-9v6h9v6h-9v6h9v6h-9v6h9v6h-9v6h9v6h-9v6h9v6h-9v6h9v6h-9v6c0 1.656 1.343 3 3 3h74c1.657 0 3-1.344 3-3v-90c0-1.657-1.343-3-3-3zm-15.599 70h-32.454c-1.159-0.061-1.464-0.061-2.379-0.977l-4.453-4.514c-0.61-0.488-0.915-1.098-0.915-1.891v-32.637c0-1.769 0.915-2.684 2.684-2.684h37.518c1.647 0 2.44 0.671 2.38 1.952v27.635c0 0.854-0.428 1.281-1.221 1.281h-26.903c-0.915 0-1.342-0.427-1.342-1.343v-16.471c0-0.305 0.183-0.61 0.488-0.915l2.196-2.256c0.427-0.427 0.488-0.427 0.915-0.427h20.803v-4.148h-32.211v28.855l3.294 3.172h31.6c1.77 0 2.685 0.916 2.685 2.686 0 1.767-0.915 2.682-2.685 2.682z"/>
</g></svg>
