<?xml version="1.0" encoding="utf-8"?>
<!-- Generator: Adobe Illustrator 15.1.0, SVG Export Plug-In  -->
<!DOCTYPE svg PUBLIC "-//W3C//DTD SVG 1.1//EN" "http://www.w3.org/Graphics/SVG/1.1/DTD/svg11.dtd" [
	<!ENTITY ns_flows "http://ns.adobe.com/Flows/1.0/">
]>
<svg version="1.1"
	 xmlns="http://www.w3.org/2000/svg" xmlns:xlink="http://www.w3.org/1999/xlink" xmlns:a="http://ns.adobe.com/AdobeSVGViewerExtensions/3.0/"
	 x="0px" y="0px" width="33px" height="33px" viewBox="-0.25 0 33 33" overflow="visible" enable-background="new -0.25 0 33 33"
	 xml:space="preserve">
<defs>
</defs>
<polygon fill="#FFFFFF" points="26.5,21 26.5,15 20.5,15 20.5,21 14.5,21 14.5,27 20.5,27 20.5,33 26.5,33 26.5,27 32.5,27 32.5,21 
	"/>
<polygon fill="#FFFFFF" points="3,10.5 10.5,10.5 10.5,3 22,3 22,12 25,12 25,3 25,0 22,0 10.5,0 8.845,0 0,8.845 0,10.5 0,10.5 
	0,30 0,33 0,33 17.5,33 17.5,30 3,30 "/>
</svg>
