<?xml version="1.0" encoding="utf-8"?>
<!-- Generator: Adobe Illustrator 15.1.0, SVG Export Plug-In  -->
<!DOCTYPE svg PUBLIC "-//W3C//DTD SVG 1.1//EN" "http://www.w3.org/Graphics/SVG/1.1/DTD/svg11.dtd" [
	<!ENTITY ns_flows "http://ns.adobe.com/Flows/1.0/">
]>
<svg version="1.1"
	 xmlns="http://www.w3.org/2000/svg" xmlns:xlink="http://www.w3.org/1999/xlink" xmlns:a="http://ns.adobe.com/AdobeSVGViewerExtensions/3.0/"
	 x="0px" y="0px" width="141px" height="160px" viewBox="0.5 0.5 141 160"
	 overflow="visible" enable-background="new 0.5 0.5 141 160" xml:space="preserve">
<defs>
</defs>
<rect x="0.5" y="0.5" fill="#FFFFFF" stroke="#FFFFFF" stroke-miterlimit="10" width="141" height="160"/>
<path fill="#585857" d="M127.313,135.986c-0.631-3.361-1.156-7.01-4.423-9.234c-7.456-5.084-17.007-9.324-25.428-13.072
	c-4.076-1.785-4.043-2.07-4.819-5.523c-0.531-2.232-3.68-1.135-3.217-4.877c0.834-6.645,7.105-10.414,9.328-16.211
	c0.971-2.51,1.921-5.555,1.344-8.218c-0.184-0.861-0.65-1.774-1.632-2.142c-1.97-0.714-0.614-3.311-0.401-5.097
	c0.48-3.666,1.94-8.429,1.627-12.487h-0.114c-0.776-6.5-6.101-11.12-9.685-16.579c-2.129-3.299-2.832-3.43-6.949-5.288
	c0.626-0.643,1.134-1.227,1.81-1.86c-4.054-1.248-11.171-3.735-15.448-2.613c-3.23,0.793-5.553,3.123-8.775,4.006
	c-2.644,0.79-5.805,1.691-8.143,3.097c-1.151,0.691-0.035,1.054,0.08,1.966c0.198,1.57-2.262,3.391-3.23,4.563
	c-2.266,2.811-5.016,6.593-6.262,9.891c-0.334,0.872-0.483,1.832-0.555,2.817h-0.114c-0.313,4.059,1.146,8.822,1.629,12.487
	c0.209,1.786,1.565,4.383-0.403,5.097c-0.983,0.368-1.448,1.281-1.63,2.142c-0.579,2.664,0.369,5.708,1.341,8.218
	c2.224,5.797,8.496,9.566,9.331,16.211c0.462,3.742-2.686,2.645-3.218,4.877c-0.776,3.453-0.743,3.738-4.818,5.523
	c-8.424,3.748-17.974,7.988-25.431,13.072c-3.264,2.225-3.796,5.873-4.417,9.234c-0.752,4.193-1.137,6.766-2.19,12.514H71h58.5
	C128.444,142.752,128.063,140.18,127.313,135.986z"/>
</svg>
