<?xml version="1.0" encoding="UTF-8" standalone="no"?>
<!DOCTYPE svg  PUBLIC '-//W3C//DTD SVG 1.1//EN'  'http://www.w3.org/Graphics/SVG/1.1/DTD/svg11.dtd' [
	<!ENTITY ns_flows "http://ns.adobe.com/Flows/1.0/">
]>
<svg xmlns="http://www.w3.org/2000/svg" xml:space="preserve" height="160px" width="141px" version="1.1" y="0px" x="0px" overflow="visible" xmlns:xlink="http://www.w3.org/1999/xlink" viewBox="0.5 0.5 141 160" enable-background="new 0.5 0.5 141 160">
<rect height="160" width="141" stroke="#fff" stroke-miterlimit="10" y=".5" x=".5" fill="#fff"/>
<path d="m127.31 135.99c-0.631-3.361-1.156-7.01-4.423-9.234-7.456-5.084-17.007-9.324-25.428-13.072-4.076-1.785-4.043-2.07-4.819-5.523-0.531-2.232-3.68-1.135-3.217-4.877 0.834-6.645 7.105-10.414 9.328-16.211 0.971-2.51 1.921-5.555 1.344-8.218-0.184-0.861-0.65-1.774-1.632-2.142-1.97-0.714-0.614-3.311-0.401-5.097 0.48-3.666 1.94-8.429 1.627-12.487h-0.114c-0.776-6.5-6.101-11.12-9.685-16.579-2.129-3.299-2.832-3.43-6.949-5.288 0.626-0.643 1.134-1.227 1.81-1.86-4.054-1.248-11.171-3.735-15.448-2.613-3.23 0.793-5.553 3.123-8.775 4.006-2.644 0.79-5.805 1.691-8.143 3.097-1.151 0.691-0.035 1.054 0.08 1.966 0.198 1.57-2.262 3.391-3.23 4.563-2.266 2.811-5.016 6.593-6.262 9.891-0.334 0.872-0.483 1.832-0.555 2.817h-0.114c-0.313 4.059 1.146 8.822 1.629 12.487 0.209 1.786 1.565 4.383-0.403 5.097-0.983 0.368-1.448 1.281-1.63 2.142-0.579 2.664 0.369 5.708 1.341 8.218 2.224 5.797 8.496 9.566 9.331 16.211 0.462 3.742-2.686 2.645-3.218 4.877-0.776 3.453-0.743 3.738-4.818 5.523-8.424 3.748-17.974 7.988-25.431 13.072-3.264 2.225-3.796 5.873-4.417 9.234-0.752 4.193-1.137 6.766-2.19 12.514h117c-1.06-5.75-1.44-8.32-2.19-12.51z" fill="#585857"/>
</svg>
