<?xml version="1.0" encoding="UTF-8" standalone="no"?>
<svg width="137" xmlns="http://www.w3.org/2000/svg" height="137">
 <title>Cool smiley</title>
 <g stroke-width="3">
  <path stroke="#000" d="m32.187 97.717q36.316 24.941 72.546 0m-64.675-49.256c0-3.8554 3.1253-6.9808 6.9807-6.9808 3.8545 0 6.9787 3.1254 6.9787 6.9808 0 3.8535-3.1242 6.9787-6.9787 6.9787-3.8554 0-6.9807-3.1252-6.9807-6.9787m42.93 0c0-3.8554 3.1253-6.9808 6.9796-6.9808 3.8544 0 6.9797 3.1254 6.9797 6.9808 0 3.8535-3.1253 6.9787-6.9797 6.9787-3.8543 0-6.9796-3.1252-6.9796-6.9787m-81.486 20.036c0-37.002 29.997-66.999 67.001-66.999 37.003 0 67 29.997 67 66.999 0 37.004-29.997 67.001-67 67.001-37.004 0-67.001-29.997-67.001-67.001zc0-37.002 29.997-66.999 67.001-66.999 37.003 0 67 29.997 67 66.999 0 37.004-29.997 67.001-67 67.001-37.004 0-67.001-29.997-67.001-67.001z" fill="url(#a)"/>
  <path d="m23.84 41.034h17.571l5.4294-19.679 5.4294 19.679h17.571l-14.215 12.162 5.4298 19.679-14.215-12.163-14.215 12.163 5.4299-19.679-14.215-12.162z"/>
  <path d="m65.84 41.034h17.571l5.4294-19.679 5.4294 19.679h17.571l-14.215 12.162 5.4298 19.679-14.215-12.163-14.215 12.163 5.4299-19.679-14.215-12.162z"/>
 </g>
 <defs>
  <linearGradient id="a" x2=".46484" y1=".94922" x1=".44531" y2=".25391">
   <stop stop-color="#f00" offset="0"/>
   <stop stop-color="#ff0" offset="1"/>
  </linearGradient>
 </defs>
</svg>
