<?xml version="1.0" encoding="UTF-8" standalone="no"?>
<!-- Created using Karbon, part of Calligra: http://www.calligra.org/karbon -->

<svg
   xmlns:dc="http://purl.org/dc/elements/1.1/"
   xmlns:cc="http://creativecommons.org/ns#"
   xmlns:rdf="http://www.w3.org/1999/02/22-rdf-syntax-ns#"
   xmlns:svg="http://www.w3.org/2000/svg"
   xmlns="http://www.w3.org/2000/svg"
   xmlns:xlink="http://www.w3.org/1999/xlink"
   xmlns:sodipodi="http://sodipodi.sourceforge.net/DTD/sodipodi-0.dtd"
   xmlns:inkscape="http://www.inkscape.org/namespaces/inkscape"
   width="64"
   height="64"
   id="svg3020"
   version="1.1"
   inkscape:version="0.48.4 r9939"
   sodipodi:docname="_.svg">
  <title
     id="title3557">_</title>
  <metadata
     id="metadata3037">
    <rdf:RDF>
      <cc:Work
         rdf:about="">
        <dc:format>image/svg+xml</dc:format>
        <dc:type
           rdf:resource="http://purl.org/dc/dcmitype/StillImage" />
        <cc:license
           rdf:resource="http://creativecommons.org/licenses/by-nc-sa/3.0/" />
        <dc:title>_</dc:title>
        <dc:creator>
          <cc:Agent>
            <dc:title>Christian Reiner</dc:title>
          </cc:Agent>
        </dc:creator>
        <dc:rights>
          <cc:Agent>
            <dc:title>Copyright 2012, Christian Reiner, Hamburg, Germany</dc:title>
          </cc:Agent>
        </dc:rights>
        <dc:publisher>
          <cc:Agent>
            <dc:title>Christian Reiner</dc:title>
          </cc:Agent>
        </dc:publisher>
        <dc:subject>
          <rdf:Bag>
            <rdf:li>_</rdf:li>
            <rdf:li>usage</rdf:li>
          </rdf:Bag>
        </dc:subject>
      </cc:Work>
      <cc:License
         rdf:about="http://creativecommons.org/licenses/by-nc-sa/3.0/">
        <cc:permits
           rdf:resource="http://creativecommons.org/ns#Reproduction" />
        <cc:permits
           rdf:resource="http://creativecommons.org/ns#Distribution" />
        <cc:requires
           rdf:resource="http://creativecommons.org/ns#Notice" />
        <cc:requires
           rdf:resource="http://creativecommons.org/ns#Attribution" />
        <cc:prohibits
           rdf:resource="http://creativecommons.org/ns#CommercialUse" />
        <cc:permits
           rdf:resource="http://creativecommons.org/ns#DerivativeWorks" />
        <cc:requires
           rdf:resource="http://creativecommons.org/ns#ShareAlike" />
      </cc:License>
    </rdf:RDF>
  </metadata>
  <sodipodi:namedview
     pagecolor="#ffffff"
     bordercolor="#666666"
     borderopacity="1"
     objecttolerance="10"
     gridtolerance="10"
     guidetolerance="10"
     inkscape:pageopacity="0"
     inkscape:pageshadow="2"
     inkscape:window-width="1920"
     inkscape:window-height="1114"
     id="namedview3035"
     showgrid="false"
     inkscape:zoom="7.9242462"
     inkscape:cx="-16.22726"
     inkscape:cy="30.437252"
     inkscape:window-x="-4"
     inkscape:window-y="-4"
     inkscape:window-maximized="1"
     inkscape:current-layer="svg3020" />
  <defs
     id="defs3022">
    <linearGradient
       id="gradient0"
       gradientTransform="matrix(0.935714,0,0,0.971429,-260.198,309.044)"
       gradientUnits="objectBoundingBox"
       x1="1.860629"
       y1="-2.2881174"
       x2="1.8891802"
       y2="-1.0919917"
       spreadMethod="pad">
      <stop
         stop-color="#edf4fd"
         offset="0"
         stop-opacity="0.52845044633"
         id="stop3025"
         style="stop-color:#eef4fd;stop-opacity:0.52845043;" />
      <stop
         stop-color="#175bb3"
         offset="1.00000000000"
         stop-opacity="0.00000000000"
         id="stop3027" />
    </linearGradient>
    <linearGradient
       inkscape:collect="always"
       xlink:href="#gradient0"
       id="linearGradient3787"
       gradientUnits="userSpaceOnUse"
       gradientTransform="scale(1.2307282,0.81252711)"
       spreadMethod="pad"
       x1="310.29999"
       y1="-381.5929"
       x2="315.06152"
       y2="-182.11314" />
    <radialGradient
       inkscape:collect="always"
       xlink:href="#gradient0"
       id="radialGradient6130"
       cx="31.997753"
       cy="21.222061"
       fx="31.997753"
       fy="21.222061"
       r="29.944143"
       gradientTransform="matrix(0.93444017,0,0,0.48806265,2.0977673,4.2611009)"
       gradientUnits="userSpaceOnUse" />
  </defs>
  <g
     id="text4182"
     transform="matrix(0.38466862,0,0,0.37986865,25.704051,11.607889)"
     style="fill:none" />
  <g
     id="g6132">
    <path
       style="fill:#000000"
       inkscape:connector-curvature="0"
       d="m 63.998188,32.00176 c 0,17.672471 -14.326473,31.99882 -31.999097,31.99882 C 14.326496,64.00058 -5.94477e-6,49.674231 -5.94477e-6,32.00176 -5.94477e-6,14.329318 14.326496,0.00293953 31.999091,0.00293953 c 17.672624,0 31.999097,14.32637847 31.999097,31.99882047 z"
       id="path4167" />
    <path
       style="fill:#000000"
       inkscape:connector-curvature="0"
       d="m 61.941058,32.400768 c 0,16.953474 -13.405476,30.696962 -29.94199,30.696962 -16.536487,0 -29.9419893,-13.743488 -29.9419893,-30.696962 0,-16.953447 13.4055023,-30.6969628 29.9419893,-30.6969628 16.536514,0 29.94199,13.7435158 29.94199,30.6969628 z"
       id="path4169" />
    <path
       style="fill:url(#radialGradient6130);fill-opacity:1"
       inkscape:connector-curvature="0"
       d="m 31.997694,0.0041785 c -15.452384,0 -27.980952,10.2944605 -27.980952,22.9858205 0,0.809537 0.05395,1.605267 0.1533662,2.393018 13.6507788,4.039268 34.5127478,6.982114 55.8085348,-2.285166 2.73e-4,-0.0358 0,-0.07161 0,-0.107852 0,-12.69136 -12.528648,-22.9858205 -27.980949,-22.9858205 z"
       id="path4171" />
  </g>
  <g
     id="g5152"
     style="fill:none"
     transform="matrix(0.35005401,0,0,0.35005401,11,11.999966)">
    <path
       id="path5092"
       transform="matrix(0.7132,0,0,0.7132,29.7461,0)"
       d="M 9.9163,0 C 4.4218,0 0,4.14395 0,9.293 l 0,35.4292 c 0,5.149 4.4218,9.2931 9.9163,9.2931 l 63.2342,0 c 5.4945,0 9.9163,-4.1441 9.9163,-9.2931 l 0,-35.4292 C 83.0668,4.14395 78.645,0 73.1505,0 z m 9.1132,8.14427 45.0079,0 c 5.4944,0 9.9163,4.14393 9.9163,9.29303 l 0,19.1405 c 0,5.1491 -4.4219,9.2931 -9.9163,9.2931 l -45.0079,0 c -5.4945,0 -9.9163,-4.144 -9.9163,-9.2931 l 0,-19.1405 c 0,-5.1491 4.4218,-9.29303 9.9163,-9.29303 z"
       inkscape:connector-curvature="0"
       style="fill:#eeeeee" />
    <rect
       id="rect5098"
       transform="matrix(0.7132,0,0,0.7132,0,75.1881)"
       width="48.743835"
       height="37.665691"
       rx="14.021318"
       ry="14.021318"
       x="0"
       y="0"
       style="fill:#eeeeee" />
    <rect
       id="rect5114"
       transform="matrix(0.7132,0,0,0.7132,86.1201,75.9782)"
       width="48.743835"
       height="37.665691"
       rx="14.021318"
       ry="14.021318"
       x="0"
       y="0"
       style="fill:#eeeeee" />
    <rect
       id="rect5116"
       transform="matrix(0.7132,0,0,0.7132,42.665,75.9782)"
       width="48.743835"
       height="37.665691"
       rx="14.021318"
       ry="14.021318"
       x="0"
       y="0"
       style="fill:#eeeeee" />
    <g
       id="g5138"
       transform="translate(8.18351,44.967)"
       style="fill:none">
      <rect
         id="rect5126"
         transform="matrix(0.7132,0,0,0.7132,48.3081,0)"
         width="9.1394691"
         height="37.388741"
         x="0"
         y="0"
         style="fill:#eeeeee" />
      <rect
         id="rect5128"
         transform="matrix(0.7132,0,0,0.7132,91.8912,8.69104)"
         width="9.4164228"
         height="25.20278"
         x="0"
         y="0"
         style="fill:#eeeeee" />
      <rect
         id="rect5134"
         transform="matrix(0.7132,0,0,0.7132,0,8.69104)"
         width="9.4164228"
         height="25.20278"
         x="0"
         y="0"
         style="fill:#eeeeee" />
      <rect
         id="rect5136"
         transform="matrix(0.7132,0,0,0.7132,0,8.69104)"
         width="138.26007"
         height="10.770968"
         x="0"
         y="0"
         style="fill:#eeeeee" />
    </g>
    <rect
       id="rect5144"
       transform="matrix(0.7132,0,0,0.7132,42.2636,10.4152)"
       width="49.546452"
       height="5.2875662"
       x="0"
       y="0"
       style="fill:#eeeeee" />
    <rect
       id="rect5146"
       transform="matrix(0.7132,0,0,0.7132,42.2636,10.4152)"
       width="49.546452"
       height="5.2875662"
       x="0"
       y="0"
       style="fill:#eeeeee" />
    <rect
       id="rect5148"
       transform="matrix(0.7132,0,0,0.7132,42.2636,17.5472)"
       width="49.546452"
       height="5.2875662"
       x="0"
       y="0"
       style="fill:#eeeeee" />
    <rect
       id="rect5150"
       transform="matrix(0.7132,0,0,0.7132,42.2636,24.6792)"
       width="49.546452"
       height="5.2875662"
       x="0"
       y="0"
       style="fill:#eeeeee" />
  </g>
</svg>
