<?xml version="1.0" encoding="UTF-8" standalone="no"?>
<!-- Created using Karbon, part of Calligra: http://www.calligra.org/karbon -->

<svg
   xmlns:dc="http://purl.org/dc/elements/1.1/"
   xmlns:cc="http://creativecommons.org/ns#"
   xmlns:rdf="http://www.w3.org/1999/02/22-rdf-syntax-ns#"
   xmlns:svg="http://www.w3.org/2000/svg"
   xmlns="http://www.w3.org/2000/svg"
   xmlns:xlink="http://www.w3.org/1999/xlink"
   xmlns:sodipodi="http://sodipodi.sourceforge.net/DTD/sodipodi-0.dtd"
   xmlns:inkscape="http://www.inkscape.org/namespaces/inkscape"
   width="64"
   height="64"
   id="svg3020"
   version="1.1"
   inkscape:version="0.48.4 r9939"
   sodipodi:docname="_.svg">
  <title
     id="title3557">_</title>
  <metadata
     id="metadata3037">
    <rdf:RDF>
      <cc:Work
         rdf:about="">
        <dc:format>image/svg+xml</dc:format>
        <dc:type
           rdf:resource="http://purl.org/dc/dcmitype/StillImage" />
        <cc:license
           rdf:resource="http://creativecommons.org/licenses/by-nc-sa/3.0/" />
        <dc:title>_</dc:title>
        <dc:creator>
          <cc:Agent>
            <dc:title>Christian Reiner</dc:title>
          </cc:Agent>
        </dc:creator>
        <dc:rights>
          <cc:Agent>
            <dc:title>Copyright 2012, Christian Reiner, Hamburg, Germany</dc:title>
          </cc:Agent>
        </dc:rights>
        <dc:publisher>
          <cc:Agent>
            <dc:title>Christian Reiner</dc:title>
          </cc:Agent>
        </dc:publisher>
        <dc:subject>
          <rdf:Bag>
            <rdf:li>_</rdf:li>
            <rdf:li>usage</rdf:li>
          </rdf:Bag>
        </dc:subject>
      </cc:Work>
      <cc:License
         rdf:about="http://creativecommons.org/licenses/by-nc-sa/3.0/">
        <cc:permits
           rdf:resource="http://creativecommons.org/ns#Reproduction" />
        <cc:permits
           rdf:resource="http://creativecommons.org/ns#Distribution" />
        <cc:requires
           rdf:resource="http://creativecommons.org/ns#Notice" />
        <cc:requires
           rdf:resource="http://creativecommons.org/ns#Attribution" />
        <cc:prohibits
           rdf:resource="http://creativecommons.org/ns#CommercialUse" />
        <cc:permits
           rdf:resource="http://creativecommons.org/ns#DerivativeWorks" />
        <cc:requires
           rdf:resource="http://creativecommons.org/ns#ShareAlike" />
      </cc:License>
    </rdf:RDF>
  </metadata>
  <sodipodi:namedview
     pagecolor="#ffffff"
     bordercolor="#666666"
     borderopacity="1"
     objecttolerance="10"
     gridtolerance="10"
     guidetolerance="10"
     inkscape:pageopacity="0"
     inkscape:pageshadow="2"
     inkscape:window-width="1920"
     inkscape:window-height="1114"
     id="namedview3035"
     showgrid="false"
     inkscape:zoom="7.9242462"
     inkscape:cx="-16.22726"
     inkscape:cy="30.437252"
     inkscape:window-x="-4"
     inkscape:window-y="-4"
     inkscape:window-maximized="1"
     inkscape:current-layer="svg3020" />
  <defs
     id="defs3022">
    <linearGradient
       id="gradient0"
       gradientTransform="matrix(0.935714,0,0,0.971429,-260.198,309.044)"
       gradientUnits="objectBoundingBox"
       x1="1.860629"
       y1="-2.2881174"
       x2="1.8891802"
       y2="-1.0919917"
       spreadMethod="pad">
      <stop
         stop-color="#edf4fd"
         offset="0"
         stop-opacity="0.52845044633"
         id="stop3025"
         style="stop-color:#eef4fd;stop-opacity:0.52845043;" />
      <stop
         stop-color="#175bb3"
         offset="1.00000000000"
         stop-opacity="0.00000000000"
         id="stop3027" />
    </linearGradient>
    <linearGradient
       inkscape:collect="always"
       xlink:href="#gradient0"
       id="linearGradient3787"
       gradientUnits="userSpaceOnUse"
       gradientTransform="scale(1.2307282,0.81252711)"
       spreadMethod="pad"
       x1="310.29999"
       y1="-381.5929"
       x2="315.06152"
       y2="-182.11314" />
    <radialGradient
       inkscape:collect="always"
       xlink:href="#gradient0"
       id="radialGradient6130"
       cx="31.997753"
       cy="21.222061"
       fx="31.997753"
       fy="21.222061"
       r="29.944143"
       gradientTransform="matrix(0.93444017,0,0,0.48806265,2.0977673,4.2611009)"
       gradientUnits="userSpaceOnUse" />
  </defs>
  <g
     id="text4182"
     transform="matrix(0.38466862,0,0,0.37986865,25.704051,11.607889)"
     style="fill:none" />
  <g
     id="g6132">
    <path
       style="fill:#000000"
       inkscape:connector-curvature="0"
       d="m 63.998188,32.00176 c 0,17.672471 -14.326473,31.99882 -31.999097,31.99882 C 14.326496,64.00058 -5.94477e-6,49.674231 -5.94477e-6,32.00176 -5.94477e-6,14.329318 14.326496,0.00293953 31.999091,0.00293953 c 17.672624,0 31.999097,14.32637847 31.999097,31.99882047 z"
       id="path4167" />
    <path
       style="fill:#000000"
       inkscape:connector-curvature="0"
       d="m 61.941058,32.400768 c 0,16.953474 -13.405476,30.696962 -29.94199,30.696962 -16.536487,0 -29.9419893,-13.743488 -29.9419893,-30.696962 0,-16.953447 13.4055023,-30.6969628 29.9419893,-30.6969628 16.536514,0 29.94199,13.7435158 29.94199,30.6969628 z"
       id="path4169" />
    <path
       style="fill:url(#radialGradient6130);fill-opacity:1"
       inkscape:connector-curvature="0"
       d="m 31.997694,0.0041785 c -15.452384,0 -27.980952,10.2944605 -27.980952,22.9858205 0,0.809537 0.05395,1.605267 0.1533662,2.393018 13.6507788,4.039268 34.5127478,6.982114 55.8085348,-2.285166 2.73e-4,-0.0358 0,-0.07161 0,-0.107852 0,-12.69136 -12.528648,-22.9858205 -27.980949,-22.9858205 z"
       id="path4171" />
  </g>
  <path
     id="rect5206"
     d="M 16.29883,16 C 14.471278,16 13,17.471278 13,19.29883 l 0,16.657357 c 0,1.82755 1.471278,3.29883 3.29883,3.29883 l 19.646921,0 c 2.603271,3.647817 9.284912,12.987577 9.346766,12.740161 0.06269,-0.250437 0.158894,-9.083875 0.197654,-12.740161 l 2.972248,0 c 1.82755,0 3.298829,-1.47128 3.298829,-3.29883 l 0,-16.657357 C 51.761248,17.471278 50.289969,16 48.462419,16 z m 4.8967,6.949864 c 0.463045,2.8e-5 0.878698,0.06655 1.245638,0.1976 0.371366,0.131074 0.674583,0.30363 0.919218,0.524047 0.24898,0.220416 0.440312,0.470715 0.566987,0.738772 0.131073,0.268085 0.197573,0.525614 0.197573,0.781768 0,0.279988 -0.07499,0.508542 -0.214755,0.687256 -0.135444,0.178714 -0.33079,0.266326 -0.584168,0.266298 -0.183469,2.8e-5 -0.341428,-0.07178 -0.472501,-0.214753 -0.126648,-0.142977 -0.272154,-0.349759 -0.438112,-0.635712 -0.135445,-0.238286 -0.289088,-0.432614 -0.472476,-0.575591 -0.183524,-0.14295 -0.432888,-0.214754 -0.747404,-0.214754 -0.323258,0 -0.593488,0.09286 -0.807526,0.283479 -0.214067,0.18468 -0.31787,0.415873 -0.31787,0.695861 0,0.256154 0.07469,0.468901 0.231963,0.635712 0.157244,0.160845 0.369221,0.296537 0.635711,0.403749 0.266492,0.10724 0.632194,0.240292 1.099611,0.395172 0.554808,0.18468 1.007847,0.405344 1.35733,0.661498 0.353855,0.256154 0.619851,0.559124 0.798921,0.910615 0.183526,0.345524 0.274904,0.738717 0.274904,1.185516 0,0.673181 -0.120546,1.252786 -0.360782,1.735322 -0.240293,0.476571 -0.593487,0.840817 -1.065248,1.091006 -0.467471,0.24425 -1.036821,0.369414 -1.709563,0.369414 -0.642172,0 -1.190713,-0.135692 -1.649414,-0.403777 -0.458703,-0.268058 -0.803843,-0.605968 -1.022308,-1.005098 -0.218383,-0.405097 -0.326419,-0.806207 -0.326419,-1.211303 0,-0.268058 0.07497,-0.496612 0.214753,-0.687256 0.139789,-0.190618 0.309981,-0.292057 0.52402,-0.292084 0.187923,2.7e-5 0.337662,0.06391 0.438139,0.188995 0.100478,0.125108 0.1918,0.306269 0.283479,0.532624 0.183525,0.434895 0.408121,0.756284 0.661499,0.970763 0.25772,0.214451 0.606847,0.326446 1.048065,0.326446 0.358198,0 0.6491,-0.111995 0.876252,-0.326446 0.231522,-0.220417 0.343628,-0.46739 0.343628,-0.747405 0,-0.428903 -0.120572,-0.748367 -0.36081,-0.944977 -0.235894,-0.196583 -0.622297,-0.379668 -1.168335,-0.558382 -0.615947,-0.208514 -1.12317,-0.426511 -1.511963,-0.652894 -0.384424,-0.23232 -0.687669,-0.535317 -0.91922,-0.910614 -0.231467,-0.375297 -0.352205,-0.835043 -0.352205,-1.383116 0,-0.488475 0.112408,-0.956799 0.326447,-1.391694 0.21404,-0.434868 0.529957,-0.774703 0.944978,-1.030857 0.419363,-0.262119 0.922242,-0.395172 1.511963,-0.3952 z m 5.540989,0 c 0.244663,2.8e-5 0.44831,0.117274 0.609954,0.343628 0.165958,0.220445 0.249116,0.526054 0.249116,0.919219 l 0,0.231935 c 0.3102,-0.506343 0.642694,-0.878478 0.996521,-1.116763 0.353882,-0.238286 0.744463,-0.36081 1.17694,-0.36081 0.44996,0 0.836501,0.125136 1.159732,0.369387 0.323285,0.244251 0.589226,0.613747 0.798949,1.108186 0.301402,-0.500377 0.625594,-0.869874 0.970762,-1.108186 0.345057,-0.244251 0.731763,-0.369387 1.151126,-0.369387 0.4893,0 0.908994,0.133053 1.262848,0.395145 0.353854,0.262147 0.615589,0.636894 0.790344,1.125396 0.152873,0.440833 0.231908,1.131746 0.231963,2.07895 l 0,4.767825 c -8.2e-5,0.512336 -0.08736,0.895 -0.257749,1.151154 -0.17033,0.256182 -0.390499,0.386596 -0.670047,0.386596 -0.270888,0 -0.495346,-0.130414 -0.670102,-0.386596 -0.17033,-0.262119 -0.257694,-0.644784 -0.257694,-1.151154 l 0,-4.106355 c 0,-0.524212 -0.0165,-0.93849 -0.05157,-1.254243 -0.03048,-0.315725 -0.122139,-0.58447 -0.266297,-0.798921 -0.14416,-0.214452 -0.360205,-0.317842 -0.652893,-0.31787 -0.235895,2.8e-5 -0.456036,0.09289 -0.670076,0.283507 -0.209695,0.190645 -0.380299,0.442895 -0.498261,0.764559 -0.131047,0.411061 -0.197574,1.139525 -0.197574,2.182038 l 0,3.247285 c 0,0.512336 -0.07878,0.895 -0.249143,1.151154 -0.170385,0.256182 -0.399104,0.386596 -0.678653,0.386596 -0.270888,0 -0.49114,-0.130414 -0.661497,-0.386596 -0.166014,-0.256154 -0.249144,-0.638818 -0.249144,-1.151154 l 0,-3.891574 c 0,-0.61361 -0.01237,-1.086497 -0.04294,-1.426056 -0.03055,-0.33956 -0.113755,-0.618834 -0.249117,-0.833312 -0.135444,-0.220389 -0.351628,-0.326419 -0.644316,-0.326447 -0.585377,2.8e-5 -0.971863,0.268058 -1.159759,0.816131 -0.183443,0.548072 -0.274903,1.337785 -0.274903,2.362429 l 0,3.298829 c 0,0.50637 -0.08736,0.889035 -0.257694,1.151154 -0.16604,0.256182 -0.386292,0.386596 -0.661497,0.386596 -0.270835,0 -0.495319,-0.130414 -0.670076,-0.386596 -0.170356,-0.262119 -0.249171,-0.644784 -0.249116,-1.151154 l 0,-6.984226 c 0,-0.458703 0.07048,-0.801176 0.223331,-1.039489 0.157327,-0.238258 0.365181,-0.360782 0.618531,-0.36081 z m 13.616276,0 c 0.462935,2.8e-5 0.878863,0.06655 1.245584,0.1976 0.371393,0.131074 0.68313,0.30363 0.927793,0.524047 0.249063,0.220416 0.431873,0.470715 0.558603,0.738772 0.130854,0.268085 0.197379,0.525614 0.197379,0.781768 0,0.279988 -0.06625,0.508542 -0.206174,0.687256 -0.135255,0.178714 -0.330709,0.266326 -0.584169,0.266298 -0.18336,2.8e-5 -0.341429,-0.07178 -0.472558,-0.214753 -0.126454,-0.142977 -0.271877,-0.349759 -0.437918,-0.635712 -0.135529,-0.238286 -0.297721,-0.432614 -0.481082,-0.575591 -0.183632,-0.14295 -0.432972,-0.214754 -0.747458,-0.214754 -0.323286,0 -0.59346,0.09286 -0.807525,0.283479 -0.214039,0.18468 -0.317871,0.415873 -0.317843,0.695861 0,0.256154 0.07469,0.468901 0.231935,0.635712 0.157271,0.160845 0.36922,0.296537 0.635712,0.403749 0.266463,0.10724 0.632136,0.240292 1.099472,0.395172 0.55503,0.18468 1.008068,0.405344 1.35747,0.661498 0.353798,0.256154 0.619902,0.559124 0.798863,0.910615 0.183636,0.345524 0.274904,0.738717 0.274904,1.185516 0,0.673181 -0.120406,1.252786 -0.360673,1.735322 -0.240264,0.476571 -0.593515,0.840817 -1.065247,1.091006 -0.467331,0.24425 -1.03693,0.369414 -1.709618,0.369414 -0.642144,0 -1.190711,-0.135692 -1.649414,-0.403777 -0.458702,-0.268058 -0.795265,-0.605968 -1.013703,-1.005098 -0.21841,-0.405097 -0.335023,-0.806207 -0.335051,-1.211303 0,-0.268058 0.07499,-0.496612 0.214782,-0.687256 0.13976,-0.190618 0.318584,-0.292057 0.532623,-0.292084 0.187841,2.7e-5 0.329059,0.06391 0.429535,0.188995 0.100446,0.125108 0.200349,0.306269 0.292086,0.532624 0.183469,0.434895 0.399487,0.756284 0.652892,0.970763 0.257721,0.214451 0.606819,0.326446 1.048064,0.326446 0.358197,0 0.649044,-0.111995 0.876391,-0.326446 0.231468,-0.220417 0.352149,-0.46739 0.352149,-0.747405 0,-0.428903 -0.120681,-0.748367 -0.360948,-0.944977 -0.235864,-0.196583 -0.630902,-0.379668 -1.176856,-0.558382 -0.615973,-0.208514 -1.114564,-0.426511 -1.503359,-0.652894 -0.384423,-0.23232 -0.696273,-0.535317 -0.927796,-0.910614 -0.231551,-0.375297 -0.343628,-0.835043 -0.343628,-1.383116 0,-0.488475 0.103805,-0.956799 0.317842,-1.391694 0.214039,-0.434868 0.529957,-0.774703 0.944977,-1.030857 0.419362,-0.262119 0.922244,-0.395172 1.511964,-0.3952 z"
     inkscape:connector-curvature="0"
     style="fill:#eeeeee" />
</svg>
