<?xml version="1.0" encoding="UTF-8" standalone="no"?>
<svg xmlns:rdf="http://www.w3.org/1999/02/22-rdf-syntax-ns#" xmlns="http://www.w3.org/2000/svg" height="16" width="16" version="1.1" xmlns:cc="http://creativecommons.org/ns#" xmlns:dc="http://purl.org/dc/elements/1.1/">
 <title>imprint</title>
 <g opacity=".6" fill="#fff" transform="matrix(.61573 0 0 .47574 .38086 -.49189)">
  <path d="m6.4236 29.693 3.3066-0.47499c0.34101 1.5833 0.88298 2.6916 1.6259 3.3249 0.74292 0.64549 1.7538 0.96824 3.0326 0.96824 1.2423-0.000005 2.2105-0.31666 2.9047-0.94998 0.70638-0.63332 1.0596-1.3762 1.0596-2.2288 0-0.621-0.219-1.193-0.658-1.717-0.755-0.913-2.825-2.405-6.211-4.475-1.8024-1.109-3.063-1.973-3.7816-2.595-0.7063-0.633-1.2849-1.376-1.7355-2.228-0.4506-0.853-0.6759-1.742-0.6759-2.668 0-1.169 0.3653-2.228 1.0961-3.178 0.7307-0.95 1.7355-1.614 3.0143-1.992-0.8647-0.828-1.4736-1.5891-1.8268-2.2833-0.3532-0.7064-0.5298-1.4554-0.5298-2.2471 0-1.5589 0.6089-2.9108 1.8268-4.0556 1.2184-1.1449 2.8314-1.7173 4.8414-1.7173 2.2775 0.0000272 4.0556 0.542 5.3345 1.6259 1.2788 1.084 2.0461 2.6551 2.3019 4.7133l-3.416 0.3472c-0.256-1.4859-0.706-2.5211-1.352-3.1057-0.633-0.5846-1.492-0.8769-2.576-0.8769-1.1205 0.0000245-2.0278 0.3045-2.722 0.91344-0.68204 0.5968-1.0231 1.2606-1.0231 1.9913-0.000006 0.63334 0.21922 1.2179 0.65768 1.7538 0.68203 0.8282 2.5454 2.1679 5.5902 4.0191 1.9121 1.1692 3.2031 2.0278 3.873 2.5759 0.8647 0.73076 1.498 1.4859 1.9 2.2653 0.41407 0.77948 0.62112 1.6259 0.62114 2.5394-0.00002 1.3763-0.44456 2.5515-1.3336 3.5259-0.51154 0.56025-1.4493 1.1266-2.8134 1.699 0.97432 0.74293 1.699 1.5407 2.174 2.3932 0.48715 0.85254 0.73073 1.766 0.73075 2.7403-0.000018 1.0718-0.3045 2.0826-0.91344 3.0326-0.60897 0.96215-1.4859 1.6929-2.6307 2.1922-1.1449 0.51152-2.381 0.76728-3.7086 0.76729-2.3262-0.000008-4.1714-0.58461-5.5354-1.7538-1.3639-1.157-2.1799-2.77-2.4479-4.841m10.687-5.736c0.90124-0.4628 1.5711-0.99869 2.0096-1.6076 0.45061-0.62113 0.67593-1.224 0.67594-1.8086-0.000016-0.6942-0.31667-1.425-0.94998-2.1922-0.64551-0.76728-2.0157-1.7964-4.1105-3.0874-1.6686-1.023-2.9108-1.8634-3.7268-2.5211-0.98652 0.56026-1.6929 1.1205-2.1192 1.6807-0.4141 0.56026-0.62114 1.1814-0.62114 1.8634-0.0000045 0.7673 0.28012 1.498 0.84036 2.1922 0.56024 0.69422 1.8208 1.6198 3.7816 2.7769 1.632 0.96216 3.0387 1.8634 4.2201 2.7038"/>
 </g>
 <g opacity=".7" transform="matrix(.56782 0 0 .45568 -.018833 -.0000091250)">
  <path d="m6.4492 28.518 3.3066-0.47499c0.34101 1.5833 0.88298 2.6916 1.6259 3.3249 0.74292 0.64549 1.7538 0.96824 3.0326 0.96824 1.2423-0.000005 2.2105-0.31666 2.9047-0.94998 0.70638-0.63332 1.0596-1.3762 1.0596-2.2288-0.000015-0.62114-0.21924-1.1936-0.65768-1.7173-0.755-0.914-2.826-2.406-6.211-4.476-1.8029-1.108-3.0635-1.973-3.782-2.594-0.7064-0.634-1.2849-1.377-1.7356-2.229-0.4506-0.853-0.6759-1.742-0.6759-2.667 0-1.17 0.3654-2.229 1.0961-3.179 0.7308-0.95 1.7355-1.614 3.0144-1.991-0.8648-0.8286-1.4737-1.5898-1.8269-2.284-0.3532-0.7064-0.5298-1.4554-0.5298-2.2471 0-1.5589 0.6089-2.9108 1.8269-4.0556 1.2178-1.1448 2.8318-1.7173 4.8408-1.7173 2.278 0.000047264 4.056 0.54202 5.335 1.6259 1.2788 1.084 2.0461 2.6551 2.3019 4.7133l-3.417 0.3472c-0.255-1.4859-0.706-2.5211-1.351-3.1057-0.634-0.5846-1.492-0.8769-2.576-0.8769-1.1205 0.0000246-2.0278 0.3045-2.722 0.91344-0.68204 0.5968-1.0231 1.2606-1.0231 1.9913-0.000006 0.63334 0.21922 1.2179 0.65768 1.7538 0.68202 0.8282 2.5454 2.1679 5.5902 4.0191 1.9121 1.1692 3.2031 2.0278 3.873 2.5759 0.8647 0.73076 1.498 1.4859 1.9 2.2653 0.41407 0.77948 0.62112 1.6259 0.62114 2.5394-0.000019 1.3763-0.44456 2.5515-1.3336 3.5259-0.51154 0.56025-1.4493 1.1266-2.8134 1.699 0.97432 0.74293 1.699 1.5407 2.174 2.3932 0.48715 0.85254 0.73073 1.766 0.73075 2.7403-0.000018 1.0718-0.3045 2.0826-0.91344 3.0326-0.60898 0.96215-1.4859 1.6929-2.6307 2.1923-1.1449 0.51152-2.381 0.76728-3.7086 0.76729-2.3262-0.000008-4.1714-0.58461-5.5354-1.7538-1.3644-1.156-2.1804-2.77-2.4483-4.84m10.687-5.737c0.90124-0.4628 1.5711-0.99869 2.0096-1.6076 0.45061-0.62113 0.67593-1.224 0.67594-1.8086-0.000016-0.6942-0.31667-1.425-0.94998-2.1923-0.64551-0.76728-2.0157-1.7964-4.1105-3.0874-1.6686-1.023-2.9108-1.8634-3.7268-2.5211-0.98652 0.56026-1.6929 1.1205-2.1192 1.6807-0.4141 0.56026-0.62114 1.1814-0.62114 1.8634-0.0000045 0.7673 0.28012 1.498 0.84036 2.1923 0.56024 0.69422 1.8208 1.6198 3.7816 2.7768 1.632 0.96216 3.0387 1.8634 4.2201 2.7038"/>
 </g>
</svg>
