<?xml version="1.0" encoding="UTF-8" standalone="no"?>
<!-- Created with Inkscape (http://www.inkscape.org/) -->

<svg
   xmlns:dc="http://purl.org/dc/elements/1.1/"
   xmlns:cc="http://creativecommons.org/ns#"
   xmlns:rdf="http://www.w3.org/1999/02/22-rdf-syntax-ns#"
   xmlns:svg="http://www.w3.org/2000/svg"
   xmlns="http://www.w3.org/2000/svg"
   xmlns:sodipodi="http://sodipodi.sourceforge.net/DTD/sodipodi-0.dtd"
   xmlns:inkscape="http://www.inkscape.org/namespaces/inkscape"
   width="32"
   height="32"
   id="svg4375"
   version="1.1"
   inkscape:version="0.48.3.1 r9886"
   sodipodi:docname="impress.svg"
   inkscape:export-filename="impress.png"
   inkscape:export-xdpi="90"
   inkscape:export-ydpi="90">
  <defs
     id="defs4377" />
  <sodipodi:namedview
     id="base"
     pagecolor="#ffffff"
     bordercolor="#666666"
     borderopacity="1.0"
     inkscape:pageopacity="0.0"
     inkscape:pageshadow="2"
     inkscape:zoom="5.6568545"
     inkscape:cx="4.954262"
     inkscape:cy="9.6236867"
     inkscape:document-units="px"
     inkscape:current-layer="layer1"
     showgrid="false"
     fit-margin-top="0"
     fit-margin-left="0"
     fit-margin-right="0"
     fit-margin-bottom="0"
     inkscape:window-width="1280"
     inkscape:window-height="773"
     inkscape:window-x="0"
     inkscape:window-y="-1"
     inkscape:window-maximized="1" />
  <metadata
     id="metadata4380">
    <rdf:RDF>
      <cc:Work
         rdf:about="">
        <dc:format>image/svg+xml</dc:format>
        <dc:type
           rdf:resource="http://purl.org/dc/dcmitype/StillImage" />
        <dc:title />
      </cc:Work>
    </rdf:RDF>
  </metadata>
  <g
     inkscape:label="Layer 1"
     inkscape:groupmode="layer"
     id="layer1"
     transform="translate(580.71429,-1.576468)">
    <path
       sodipodi:nodetypes="sccccccccssssssssss"
       inkscape:connector-curvature="0"
       id="path2995"
       d="m -569.49554,3.701468 c -1.55712,0.077749 -2.99407,1.0632331 -3.5625,2.625 l -1.1875,3.25 14.1875,0 c 3.66564,0.377271 6.29342,2.443828 6.34375,6.34375 l 0,7.4375 3.21875,-8.8125 c 0.75791,-2.082356 -0.3239,-4.367086 -2.40625,-5.125 l -15.03125,-5.46875 c -0.52059,-0.1894786 -1.04346,-0.2759162 -1.5625,-0.25 z m -5.21875,7.875 c -2.216,0 -4,1.784 -4,4 l 0,9 c 0,2.216 1.784,4 4,4 l 15,0 c 2.216,0 4,-1.784 4,-4 l 0,-9 c 0,-2.216 -1.784,-4 -4,-4 z"
       style="fill:#000000;fill-opacity:1" />
    <path
       style="fill:#ffffff;fill-opacity:1"
       d="m -569.49554,4.701468 c -1.55712,0.077749 -2.99407,1.0632331 -3.5625,2.625 l -1.1875,3.25 14.1875,0 c 3.66564,0.377271 6.29342,2.443828 6.34375,6.34375 l 0,7.4375 3.21875,-8.8125 c 0.75791,-2.082356 -0.3239,-4.367086 -2.40625,-5.125 l -15.03125,-5.46875 c -0.52059,-0.1894786 -1.04346,-0.2759162 -1.5625,-0.25 z m -5.21875,7.875 c -2.216,0 -4,1.784 -4,4 l 0,9 c 0,2.216 1.784,4 4,4 l 15,0 c 2.216,0 4,-1.784 4,-4 l 0,-9 c 0,-2.216 -1.784,-4 -4,-4 z"
       id="path4053"
       inkscape:connector-curvature="0"
       sodipodi:nodetypes="sccccccccssssssssss" />
  </g>
</svg>
