<?xml version="1.0" encoding="UTF-8" standalone="no"?>
<!-- Created using Karbon, part of Calligra: http://www.calligra.org/karbon -->

<svg
   xmlns:dc="http://purl.org/dc/elements/1.1/"
   xmlns:cc="http://creativecommons.org/ns#"
   xmlns:rdf="http://www.w3.org/1999/02/22-rdf-syntax-ns#"
   xmlns:svg="http://www.w3.org/2000/svg"
   xmlns="http://www.w3.org/2000/svg"
   xmlns:sodipodi="http://sodipodi.sourceforge.net/DTD/sodipodi-0.dtd"
   xmlns:inkscape="http://www.inkscape.org/namespaces/inkscape"
   width="12.8pt"
   height="12.8pt"
   id="svg3048"
   version="1.1"
   inkscape:version="0.48.3.1 r9886"
   sodipodi:docname="shorty-dusky.svg">
  <title
     id="title3060">shorty</title>
  <metadata
     id="metadata3058">
    <rdf:RDF>
      <cc:Work
         rdf:about="">
        <dc:format>image/svg+xml</dc:format>
        <dc:type
           rdf:resource="http://purl.org/dc/dcmitype/StillImage" />
        <dc:title>shorty</dc:title>
        <dc:rights>
          <cc:Agent>
            <dc:title>Copyright 2012, Christian Reiner, Hamburg, Germany</dc:title>
          </cc:Agent>
        </dc:rights>
        <dc:creator>
          <cc:Agent>
            <dc:title>Christian Reiner</dc:title>
          </cc:Agent>
        </dc:creator>
        <dc:publisher>
          <cc:Agent>
            <dc:title>Christian Reiner</dc:title>
          </cc:Agent>
        </dc:publisher>
        <dc:subject>
          <rdf:Bag>
            <rdf:li>shorty</rdf:li>
          </rdf:Bag>
        </dc:subject>
        <cc:license
           rdf:resource="http://creativecommons.org/licenses/by-nc-sa/3.0/" />
      </cc:Work>
      <cc:License
         rdf:about="http://creativecommons.org/licenses/by-nc-sa/3.0/">
        <cc:permits
           rdf:resource="http://creativecommons.org/ns#Reproduction" />
        <cc:permits
           rdf:resource="http://creativecommons.org/ns#Distribution" />
        <cc:requires
           rdf:resource="http://creativecommons.org/ns#Notice" />
        <cc:requires
           rdf:resource="http://creativecommons.org/ns#Attribution" />
        <cc:prohibits
           rdf:resource="http://creativecommons.org/ns#CommercialUse" />
        <cc:permits
           rdf:resource="http://creativecommons.org/ns#DerivativeWorks" />
        <cc:requires
           rdf:resource="http://creativecommons.org/ns#ShareAlike" />
      </cc:License>
    </rdf:RDF>
  </metadata>
  <sodipodi:namedview
     pagecolor="#ffffff"
     bordercolor="#666666"
     borderopacity="1"
     objecttolerance="10"
     gridtolerance="10"
     guidetolerance="10"
     inkscape:pageopacity="0"
     inkscape:pageshadow="2"
     inkscape:window-width="1920"
     inkscape:window-height="1114"
     id="namedview3056"
     showgrid="false"
     inkscape:zoom="14.75"
     inkscape:cx="-5.3898305"
     inkscape:cy="8"
     inkscape:window-x="-4"
     inkscape:window-y="-4"
     inkscape:window-maximized="1"
     inkscape:current-layer="svg3048" />
  <defs
     id="defs3050" />
  <g
     id="g4185">
    <path
       id="path4189"
       transform="translate(-0.0314065, 3.97605)"
       fill="#d3d3d3"
       d="M5.90496 5.36366e-05L2.03624 0.0483836C0.896812 0.0603836 -0.00985361 2.07369 8.08645e-05 4.5713C0.0100142 7.06891 0.928138 9.07722 2.06757 9.06522L5.93628 9.01689C6.91266 9.00662 7.71351 7.51489 7.91762 5.5184L8.09775 5.5184C8.29805 7.56949 9.13062 9.09502 10.1261 9.08454L13.9948 9.04589C15.1342 9.03389 16.0409 7.01093 16.031 4.51331C16.021 2.0157 15.1029 0.0170616 13.9635 0.0290566L10.0869 0.0677066C9.14538 0.0776066 8.36671 1.46464 8.12907 3.35358L7.90196 3.35358C7.66674 1.41099 6.86557 -0.0100594 5.90496 5.36366e-05ZM4.99651 1.48836C5.86074 1.48036 6.59686 2.24823 6.90737 3.35358L4.47181 3.35358C4.19414 3.35358 3.9706 3.83634 3.9706 4.43599C3.9706 5.03564 4.19414 5.5184 4.47181 5.5184L6.95436 5.5184C6.67695 6.7007 5.92436 7.54932 5.02784 7.55758L2.99951 7.57691C1.86007 7.58743 0.931832 6.24436 0.924186 4.56163C0.916536 2.8789 1.82875 1.50853 2.96818 1.49803L4.99651 1.48843ZM13.055 1.51735C14.1945 1.50686 15.1149 2.84023 15.1225 4.52297C15.1301 6.2057 14.218 7.57607 13.0785 7.58656L11.0502 7.59616C10.1318 7.60466 9.35598 6.73612 9.0845 5.51833L11.4887 5.51833C11.7664 5.51833 11.99 5.03557 11.99 4.43592C11.99 3.83627 11.7664 3.35351 11.4887 3.35351L9.15499 3.35351C9.46901 2.2831 10.1849 1.53477 11.0267 1.52702L13.055 1.51742Z" />
  </g>
  <g
     id="g4849">
    <path
       id="path4851"
       transform="translate(-8.08646e-05, 2.9323)"
       fill="#505053"
       fill-opacity="0.95294117647"
       d="M5.90496 5.36369e-05L2.03624 0.0483836C0.896812 0.0603756 -0.00985362 2.07368 8.08646e-05 4.5713C0.0100142 7.06891 0.928138 9.07721 2.06757 9.06522L5.93628 9.01689C6.91266 9.00662 7.71351 7.51488 7.91762 5.51839L8.09775 5.51839C8.29805 7.56948 9.13062 9.09502 10.1261 9.08454L13.9948 9.04589C15.1342 9.03389 16.0409 7.01092 16.031 4.51331C16.0211 2.01569 15.1029 0.0170526 13.9635 0.0290466L10.0869 0.0676976C9.14538 0.0775976 8.36671 1.46464 8.12907 3.35358L7.90196 3.35358C7.66674 1.41098 6.86557 -0.0100594 5.90496 5.36369e-05ZM4.99651 1.48836C5.86074 1.48036 6.59686 2.24823 6.90737 3.35358L4.47181 3.35358C4.19414 3.35358 3.9706 3.83634 3.9706 4.43599C3.9706 5.03564 4.19414 5.5184 4.47181 5.5184L6.95436 5.5184C6.67695 6.7007 5.92436 7.54931 5.02784 7.55758L2.99951 7.5769C1.86007 7.5874 0.931832 6.24436 0.924186 4.56162C0.91654 2.87889 1.82875 1.50853 2.96818 1.49803L4.99651 1.48843ZM13.055 1.51735C14.1945 1.50686 15.1149 2.84024 15.1225 4.52297C15.1301 6.2057 14.218 7.57607 13.0785 7.58657L11.0502 7.59617C10.1318 7.60467 9.35598 6.73612 9.0845 5.51833L11.4887 5.51833C11.7664 5.51833 11.99 5.03558 11.99 4.43592C11.99 3.83627 11.7664 3.35352 11.4887 3.35352L9.15499 3.35352C9.46901 2.28304 10.1849 1.53471 11.0267 1.52695Z" />
  </g>
</svg>
