<?xml version="1.0" encoding="UTF-8" standalone="no"?>
<!-- Created using Karbon, part of Calligra: http://www.calligra.org/karbon -->

<svg
   xmlns:dc="http://purl.org/dc/elements/1.1/"
   xmlns:cc="http://creativecommons.org/ns#"
   xmlns:rdf="http://www.w3.org/1999/02/22-rdf-syntax-ns#"
   xmlns:svg="http://www.w3.org/2000/svg"
   xmlns="http://www.w3.org/2000/svg"
   xmlns:sodipodi="http://sodipodi.sourceforge.net/DTD/sodipodi-0.dtd"
   xmlns:inkscape="http://www.inkscape.org/namespaces/inkscape"
   width="12.8pt"
   height="12.8pt"
   id="svg3048"
   version="1.1"
   inkscape:version="0.48.4 r9939"
   sodipodi:docname="shorty-light.svg">
  <title
     id="title3060">shorty</title>
  <metadata
     id="metadata3058">
    <rdf:RDF>
      <cc:Work
         rdf:about="">
        <dc:format>image/svg+xml</dc:format>
        <dc:type
           rdf:resource="http://purl.org/dc/dcmitype/StillImage" />
        <dc:title>shorty</dc:title>
        <dc:rights>
          <cc:Agent>
            <dc:title>Copyright 2012, Christian Reiner, Hamburg, Germany</dc:title>
          </cc:Agent>
        </dc:rights>
        <dc:creator>
          <cc:Agent>
            <dc:title>Christian Reiner</dc:title>
          </cc:Agent>
        </dc:creator>
        <dc:publisher>
          <cc:Agent>
            <dc:title>Christian Reiner</dc:title>
          </cc:Agent>
        </dc:publisher>
        <dc:subject>
          <rdf:Bag>
            <rdf:li>shorty</rdf:li>
          </rdf:Bag>
        </dc:subject>
        <cc:license
           rdf:resource="http://creativecommons.org/licenses/by-nc-sa/3.0/" />
      </cc:Work>
      <cc:License
         rdf:about="http://creativecommons.org/licenses/by-nc-sa/3.0/">
        <cc:permits
           rdf:resource="http://creativecommons.org/ns#Reproduction" />
        <cc:permits
           rdf:resource="http://creativecommons.org/ns#Distribution" />
        <cc:requires
           rdf:resource="http://creativecommons.org/ns#Notice" />
        <cc:requires
           rdf:resource="http://creativecommons.org/ns#Attribution" />
        <cc:prohibits
           rdf:resource="http://creativecommons.org/ns#CommercialUse" />
        <cc:permits
           rdf:resource="http://creativecommons.org/ns#DerivativeWorks" />
        <cc:requires
           rdf:resource="http://creativecommons.org/ns#ShareAlike" />
      </cc:License>
    </rdf:RDF>
  </metadata>
  <sodipodi:namedview
     pagecolor="#ffffff"
     bordercolor="#666666"
     borderopacity="1"
     objecttolerance="10"
     gridtolerance="10"
     guidetolerance="10"
     inkscape:pageopacity="0"
     inkscape:pageshadow="2"
     inkscape:window-width="1920"
     inkscape:window-height="1114"
     id="namedview3056"
     showgrid="false"
     inkscape:zoom="52.851917"
     inkscape:cx="5.2709789"
     inkscape:cy="8"
     inkscape:window-x="-4"
     inkscape:window-y="-6"
     inkscape:window-maximized="1"
     inkscape:current-layer="svg3048" />
  <defs
     id="defs3050" />
  <path
     style="fill:#000000;fill-opacity:0.95294118"
     inkscape:connector-curvature="0"
     d="m 5.9048791,3.5378189 -3.86872,0.04833 C 0.89673114,3.5981409 -0.00993448,5.6114453 0,8.1090653 0.00993334,10.606675 0.92805714,12.614975 2.0674891,12.602985 l 3.86871,-0.04833 c 0.97638,-0.01027 1.77723,-1.50201 1.98134,-3.4984997 l 0.18013,0 c 0.2003,2.0510897 1.03287,3.5766297 2.0283499,3.5661497 l 3.8687,-0.03865 c 1.1394,-0.012 2.0461,-2.03497 2.0362,-4.5325797 -0.0099,-2.49762 -0.9281,-4.4962574 -2.0675,-4.4842634 l -3.8766,0.038651 c -0.9415199,0.0099 -1.7201899,1.3969424 -1.9578299,3.2858824 l -0.22711,0 c -0.23522,-1.9426 -1.03639,-3.3636394 -1.997,-3.3535264 z m -0.90845,1.4883064 c 0.86423,-0.008 1.60035,0.75987 1.91086,1.86522 l -2.43556,0 c -0.27767,0 -0.50121,0.48276 -0.50121,1.08241 0,0.59965 0.22354,1.08241 0.50121,1.08241 l 2.48255,0 c -0.27741,1.1822997 -1.03,2.0309097 -1.92652,2.0391797 l -2.02833,0.01932 c -1.13944,0.0105 -2.06767796,-1.3325397 -2.07532396,-3.0152797 -0.007646,-1.68273 0.90456396,-3.05309 2.04399396,-3.06359 l 2.02833,-0.0096 z m 8.0584899,0.02899 c 1.1395,-0.01049 2.0599,1.32289 2.0675,3.00562 0.0076,1.68273 -0.9045,3.0530997 -2.044,3.0635997 l -2.0283,0.0096 c -0.9184,0.0085 -1.6942199,-0.86005 -1.9656999,-2.0778397 l 2.4041999,0 c 0.2777,0 0.5013,-0.48275 0.5013,-1.08241 0,-0.59965 -0.2236,-1.0824 -0.5013,-1.0824 l -2.3337099,0 c 0.31402,-1.07048 1.0299099,-1.81881 1.8717099,-1.82657 z"
     id="path4851" />
  <path
     style="fill:#ffffff;fill-opacity:1"
     inkscape:connector-curvature="0"
     d="m 5.9113951,3.7490541 -3.86872,0.04833 c -1.13942802,0.012 -2.04609363,2.0253064 -2.03615916,4.5229164 0.00993334,2.4976105 0.92805714,4.5059205 2.06748916,4.4939205 l 3.86871,-0.04833 c 0.97638,-0.01027 1.77723,-1.502 1.98134,-3.4984905 l 0.18013,0 c 0.2003,2.0510895 1.03287,3.5766195 2.0283499,3.5661405 l 3.8687,-0.03865 c 1.1394,-0.012 2.0461,-2.034961 2.0362,-4.5325805 -0.01,-2.49761 -0.9281,-4.4962484 -2.0675,-4.4842534 l -3.8766,0.03865 c -0.9415199,0.0099 -1.7201899,1.3969334 -1.9578299,3.2858734 l -0.22711,0 c -0.23522,-1.94259 -1.03639,-3.3636394 -1.997,-3.3535264 z m -0.90845,1.4883064 c 0.86423,-0.008 1.60035,0.75987 1.91086,1.86522 l -2.43556,0 c -0.27767,0 -0.50121,0.48276 -0.50121,1.08241 0,0.59965 0.22354,1.08241 0.50121,1.08241 l 2.48255,0 c -0.27741,1.1823005 -1.03,2.0309195 -1.92652,2.0391795 l -2.02833,0.01933 c -1.13944,0.01052 -2.06767802,-1.3325495 -2.07532402,-3.0152795 -0.00765,-1.68273 0.90456402,-3.0531 2.04399402,-3.0636 l 2.02833,-0.0096 z m 8.0584899,0.02899 c 1.1395,-0.01049 2.0599,1.32288 2.0675,3.00562 0.0076,1.68273 -0.9045,3.0530995 -2.044,3.0635905 l -2.0283,0.0096 c -0.9184,0.0085 -1.6942199,-0.86004 -1.9656999,-2.0778305 l 2.4041999,0 c 0.2777,0 0.5013,-0.48276 0.5013,-1.08241 0,-0.59965 -0.2236,-1.08241 -0.5013,-1.08241 l -2.3337099,0 c 0.31402,-1.07041 1.0299099,-1.81874 1.8717099,-1.82649 l 2.0283,-0.0096 z"
     id="path4189" />
</svg>
