<?xml version="1.0" encoding="UTF-8" standalone="no"?>
<svg xmlns="http://www.w3.org/2000/svg" height="16" width="16" version="1.0" xmlns:xlink="http://www.w3.org/1999/xlink">
 <defs>
  <linearGradient id="b" y2="2.6887" gradientUnits="userSpaceOnUse" x2="20" gradientTransform="matrix(.37693 0 0 .37692 -1.1962 -.89601)" y1="43" x1="20">
   <stop stop-color="#254b6d" offset="0"/>
   <stop stop-color="#415b73" offset=".5"/>
   <stop stop-color="#6195b5" offset="1"/>
  </linearGradient>
  <radialGradient id="a" gradientUnits="userSpaceOnUse" cy="-8.7256" cx="61.24" gradientTransform="matrix(0 1.3552 -1.3552 0 -3.8246 -80.384)" r="9.7553">
   <stop stop-color="#51cfee" offset="0"/>
   <stop stop-color="#49a3d2" offset=".26238"/>
   <stop stop-color="#3470b4" offset=".70495"/>
   <stop stop-color="#273567" offset="1"/>
  </radialGradient>
  <linearGradient id="c" y2="5.4676" gradientUnits="userSpaceOnUse" x2="63.397" gradientTransform="matrix(.74324 0 0 .74322 -38.23 10.609)" y1="-12.489" x1="63.397">
   <stop stop-color="#fff" offset="0"/>
   <stop stop-color="#fff" stop-opacity="0" offset="1"/>
  </linearGradient>
 </defs>
 <path d="m15.5 7.9997c0 4.1423-3.358 7.5003-7.4999 7.5003-4.1422 0-7.5001-3.358-7.5001-7.5003 0-4.142 3.3579-7.4997 7.5001-7.4997 4.1419 0 7.4999 3.3577 7.4999 7.4997z" stroke="url(#b)" fill="url(#a)"/>
 <path opacity=".4" d="m8.1022 0.95622l-0.8661 0.10068-0.9526 0.2642c0.0811-0.0289 0.1633-0.0604 0.2474-0.0881l-0.1113-0.2013-0.3712 0.0629-0.1856 0.1762-0.2845 0.0377-0.2599 0.1258-0.1237 0.0629-0.0371 0.0504-0.1856 0.0377-0.1113 0.2391-0.1485-0.302-0.0495 0.1258 0.0247 0.3397-0.235 0.2013-0.1361 0.3649h0.2845l0.1114-0.2391 0.0371-0.088c0.1251-0.09 0.2437-0.1902 0.3712-0.2768l0.2969 0.1006c0.1933 0.1336 0.388 0.2693 0.5815 0.4026l0.2846-0.2642-0.3217-0.1384-0.1485-0.3019-0.5444-0.0629-0.0123-0.063 0.235 0.0504 0.1361-0.1384 0.297-0.0629c0.0702-0.0348 0.1394-0.0598 0.2103-0.0881l-0.1856 0.1761 0.6681 0.4656v0.2768l-0.2598 0.2642 0.3464 0.7045 0.2351-0.1384 0.2969-0.4655c0.4175-0.1312 0.7938-0.284 1.1878-0.4655l-0.0248 0.1761 0.198 0.1384 0.3464-0.239-0.1732-0.2013-0.2351 0.1384-0.0742-0.0252c0.0171-0.0079 0.0324-0.0171 0.0495-0.0251l0.3464-0.9059-0.7547-0.30198zm-3.39 1.3588l0.2846 0.2013h0.235v-0.239l-0.2845-0.1258-0.2351 0.1635zm6.5698-0.1635l-0.507 0.1258-0.322 0.2139v0.1887l-0.5073 0.3271 0.0993 0.4907 0.297-0.2139 0.185 0.2139 0.211 0.1258 0.136-0.3648-0.075-0.2139 0.075-0.151 0.297-0.2768h0.136l-0.136 0.302v0.2767c0.122-0.0338 0.245-0.047 0.371-0.0629l-0.347 0.2517-0.024 0.151-0.396 0.3397-0.409-0.1007v-0.239l-0.185 0.1258 0.086 0.2139h-0.2966l-0.1608 0.2768-0.198 0.2264-0.3588 0.0755 0.2104 0.2139 0.0495 0.2139h-0.2599l-0.3464 0.1887v0.5536h0.1608l0.1485 0.1636 0.3341-0.1636 0.1237-0.3397 0.2474-0.151 0.0495-0.1258 0.3956-0.1006 0.223 0.2516 0.235 0.1258-0.136 0.2768 0.21-0.0629 0.112-0.2768-0.272-0.3145h0.111l0.272 0.2264 0.05 0.302 0.235 0.2768 0.061-0.4026 0.124-0.0629c0.132 0.139 0.236 0.309 0.347 0.4655l0.408 0.0251 0.235 0.151-0.111 0.1636-0.235 0.2139h-0.347l-0.458-0.151-0.235 0.0252-0.173 0.2013-0.495-0.5033-0.346-0.1007-0.5075 0.063-0.4454 0.1258c-0.2541 0.2929-0.5142 0.5891-0.7547 0.8933l-0.2846 0.7045 0.1361 0.151-0.2474 0.3649 0.2722 0.6417c0.2264 0.2605 0.4543 0.5193 0.6804 0.78l0.3341-0.2894 0.1361 0.1762 0.3588-0.2391 0.1237 0.1384h0.3592l0.21 0.2391-0.124 0.4278 0.248 0.2896-0.013 0.503 0.186 0.365-0.136 0.314c-0.014 0.226-0.025 0.442-0.025 0.667 0.109 0.306 0.219 0.611 0.322 0.919l0.074 0.49v0.252h0.198l0.284-0.189h0.347l0.52-0.591-0.062-0.201 0.346-0.315-0.26-0.289 0.31-0.252 0.297-0.189 0.136-0.151-0.087-0.339v-0.856l0.235-0.5283 0.297-0.3271 0.322-0.8052v-0.2139c-0.16 0.0205-0.314 0.039-0.47 0.0503l0.321-0.3271 0.446-0.302 0.235-0.2768v-0.3019c-0.054-0.1023-0.107-0.2123-0.161-0.3146l-0.21 0.2516-0.161-0.1887-0.235-0.1887v-0.39l0.272 0.3145 0.309-0.0377c0.14 0.1288 0.274 0.2433 0.396 0.39l0.198-0.2265c0-0.2438-0.27-1.4474-0.854-2.466-0.583-1.0182-1.608-1.9501-1.608-1.9501l-0.074 0.1384-0.273 0.3019-0.346-0.3649h0.346l0.161-0.1761-0.643-0.1258-0.334-0.1258zm-7.4359 0.1635l-0.1237 0.3272s-0.2166 0.0363-0.2722 0.0503c-0.7098 0.6652-2.1412 2.108-2.4744 4.8188 0.01314 0.0628 0.235 0.4277 0.235 0.4277l0.5444 0.3272 0.5444 0.1509 0.2351 0.2894 0.3588 0.2768 0.2103-0.0377 0.1485 0.0755v0.0503l-0.198 0.5661-0.1608 0.2391 0.0494 0.1132-0.1237 0.4532 0.4578 0.855 0.4701 0.416 0.2104 0.301-0.0248 0.63 0.1485 0.352-0.1485 0.679s-0.0198-0.005 0 0.063c0.02 0.069 0.8271 0.53 0.8785 0.491 0.0512-0.04 0.0989-0.076 0.0989-0.076l-0.0494-0.151 0.2103-0.201 0.0742-0.214 0.3341-0.113 0.2598-0.654-0.0742-0.176 0.1732-0.277 0.3959-0.088 0.1979-0.478-0.0494-0.592 0.3093-0.44 0.0494-0.453c-0.4243-0.214-0.8407-0.4339-1.2619-0.6543l-0.2104-0.4152-0.3835-0.0881-0.2103-0.5661-0.5073 0.0629-0.4454-0.3271-0.4701 0.4152v0.0629c-0.1409-0.0414-0.3077-0.0475-0.4331-0.1259l-0.099-0.3019v-0.3271l-0.3216 0.0377c0.0259-0.2084 0.0605-0.4207 0.0866-0.6291h-0.1856l-0.1856 0.2391-0.1732 0.0881-0.2598-0.151-0.0248-0.3272 0.0495-0.3522 0.3836-0.302h0.3093l0.0618-0.1761 0.3836 0.088 0.2845 0.3649 0.0495-0.6039 0.4949-0.4152 0.1732-0.4404 0.3712-0.151 0.198-0.3019 0.4701-0.0881 0.2351-0.3523h-0.7052l0.4454-0.2139h0.3093l0.3959-0.1384 0.0742 0.3901 0.1732-0.2768-0.1979-0.1384 0.0495-0.1636-0.1609-0.151-0.1732-0.0503 0.0495-0.1887-0.1361-0.2642-0.3093 0.1258 0.0495-0.2391-0.3588-0.2138-0.2846 0.5032 0.0248 0.1762-0.2846 0.1258-0.1732 0.39-0.0866-0.3649-0.4825-0.2013-0.0866-0.2768 0.6557-0.3774 0.2846-0.2768 0.0247-0.3271-0.1608-0.0881-0.2104-0.0252zm5.3078 0.604v0.2013l0.1113 0.1258v0.3019l-0.0619 0.4026 0.3217-0.0629 0.2351-0.239-0.2103-0.2013c-0.0682-0.1847-0.1374-0.3513-0.2227-0.5284h-0.1732zm-0.2722 0.4026l-0.198 0.0629 0.0495 0.3648 0.2598-0.1384-0.1113-0.2893zm3.6253 3.3089l0.297 0.3523 0.358 0.7801 0.223 0.2516-0.111 0.2642 0.198 0.2391c-0.091 0.0061-0.179 0.0126-0.272 0.0126-0.17-0.3625-0.304-0.728-0.433-1.1072l-0.223-0.2516-0.124-0.453 0.087-0.0881z"/>
 <path opacity=".4" d="m14.5 7.9998c0 3.5902-2.91 6.5002-6.4999 6.5002s-6.5001-2.91-6.5001-6.5002c0-3.5898 2.9102-6.4998 6.5001-6.4998s6.4999 2.91 6.4999 6.4998z" stroke="url(#c)" fill="none"/>
</svg>
