<?xml version="1.0" encoding="UTF-8" standalone="no"?>
<!-- Created with Inkscape (http://www.inkscape.org/) -->

<svg
   xmlns:dc="http://purl.org/dc/elements/1.1/"
   xmlns:cc="http://creativecommons.org/ns#"
   xmlns:rdf="http://www.w3.org/1999/02/22-rdf-syntax-ns#"
   xmlns:svg="http://www.w3.org/2000/svg"
   xmlns="http://www.w3.org/2000/svg"
   xmlns:xlink="http://www.w3.org/1999/xlink"
   xmlns:sodipodi="http://sodipodi.sourceforge.net/DTD/sodipodi-0.dtd"
   xmlns:inkscape="http://www.inkscape.org/namespaces/inkscape"
   width="20"
   height="20"
   id="svg2"
   version="1.1"
   inkscape:version="0.48.3.1 r9886"
   sodipodi:docname="Nouveau document 1">
  <script
     xlink:href=""
     id="script2985" />
  <defs
     id="defs4" />
  <sodipodi:namedview
     id="base"
     pagecolor="#ffffff"
     bordercolor="#666666"
     borderopacity="1"
     inkscape:pageopacity="0.0"
     inkscape:pageshadow="2"
     inkscape:zoom="24.164866"
     inkscape:cx="9.9646465"
     inkscape:cy="9.1805974"
     inkscape:document-units="px"
     inkscape:current-layer="layer1"
     showgrid="false"
     fit-margin-top="0"
     fit-margin-left="0"
     fit-margin-right="0"
     fit-margin-bottom="0"
     borderlayer="false"
     inkscape:window-width="1317"
     inkscape:window-height="744"
     inkscape:window-x="1729"
     inkscape:window-y="306"
     inkscape:window-maximized="1" />
  <metadata
     id="metadata7">
    <rdf:RDF>
      <cc:Work
         rdf:about="">
        <dc:format>image/svg+xml</dc:format>
        <dc:type
           rdf:resource="http://purl.org/dc/dcmitype/StillImage" />
        <dc:title></dc:title>
      </cc:Work>
    </rdf:RDF>
  </metadata>
  <g
     inkscape:label="Calque 1"
     inkscape:groupmode="layer"
     id="layer1"
     transform="translate(0,-1032.3622)">
    <path
       style="fill:#999999;stroke:none"
       d="m 5.7568374,1048.0889 c 0,0 -7.0675763,-3.3713 -3.5616925,-8.9722 2.1641383,-3.4574 5.045836,-4.3552 5.045836,-4.3552 l -1.0563237,-1.9554 6.7082578,2.4295 -2.423841,5.5842 -1.0316015,-2.1032 c 0,0 -3.2011096,0.9926 -4.7914029,3.4704 -1.8503637,2.883 1.1107675,5.9019 1.1107678,5.9019 z"
       inkscape:connector-curvature="0"
       sodipodi:nodetypes="cscccccsc" />
    <path
       id="path3797"
       style="fill:#999999;stroke:none"
       d="m 14.2207,1036.8269 c 0,0 7.174456,3.1373 3.854358,8.8504 -2.049456,3.5266 -4.900121,4.5184 -4.900121,4.5184 l 1.119955,1.9197 -6.7844059,-2.2078 2.2391855,-5.6608 1.1000984,2.0681 c 0,0 3.166798,-1.0971 4.674874,-3.6258 1.754712,-2.9422 -1.303943,-5.8622 -1.303944,-5.8622 z"
       inkscape:connector-curvature="0"
       sodipodi:nodetypes="cscccccsc" />
  </g>
</svg>
