<?xml version="1.0" encoding="UTF-8" standalone="no"?>
<svg xmlns:rdf="http://www.w3.org/1999/02/22-rdf-syntax-ns#" xmlns="http://www.w3.org/2000/svg" height="20" width="20" version="1.1" xmlns:cc="http://creativecommons.org/ns#" xmlns:xlink="http://www.w3.org/1999/xlink" xmlns:dc="http://purl.org/dc/elements/1.1/">
 <script xlink:href=""/>
 <g fill="#999" transform="translate(0 -1032.4)">
  <path d="m5.7568 1048.1s-7.0676-3.3713-3.5617-8.9722c2.1641-3.4574 5.0458-4.3552 5.0458-4.3552l-1.0563-1.9554 6.7083 2.4295-2.4238 5.5842-1.0316-2.1032s-3.2011 0.9926-4.7914 3.4704c-1.8504 2.883 1.1108 5.9019 1.1108 5.9019z"/>
  <path d="m14.221 1036.8s7.1745 3.1373 3.8544 8.8504c-2.0495 3.5266-4.9001 4.5184-4.9001 4.5184l1.12 1.9197-6.7844-2.2078 2.2392-5.6608 1.1001 2.0681s3.1668-1.0971 4.6749-3.6258c1.7547-2.9422-1.3039-5.8622-1.3039-5.8622z"/>
 </g>
</svg>
