<?xml version="1.0" encoding="UTF-8" standalone="no"?>
<svg xmlns:rdf="http://www.w3.org/1999/02/22-rdf-syntax-ns#" xmlns="http://www.w3.org/2000/svg" height="32" width="32" version="1.0" xmlns:cc="http://creativecommons.org/ns#" xmlns:xlink="http://www.w3.org/1999/xlink" xmlns:dc="http://purl.org/dc/elements/1.1/">
 <g>
  <path d="m6 1c-2.216 0-4 1.784-4 4v20c0 2.216 1.784 4 4 4h20c2.216 0 4-1.784 4-4v-17.375l-4 6.875v10.312c0 0.111-0.077 0.188-0.188 0.188h-19.624c-0.1113 0-0.188-0.077-0.188-0.188v-19.624c0-0.1113 0.0767-0.188 0.1875-0.188h13.25l2.375-4h-15.812zm18.062 2c-0.331-0.0315-0.642 0.1453-0.812 0.4375l-7.25 12.438-4.625-3.5c-0.415-0.21288-0.96073-0.07709-1.1875 0.3125l-2.0625 2.5c-0.22676 0.38957-0.10249 0.91212 0.3125 1.125-2e-7 0 8.4896 6.6202 8.5 6.625 0.09726 0.0499 0.2091 0.0503 0.3125 0.0625 0.33775 0.04006 0.70139-0.13923 0.875-0.4375l9.75-16.75c0.226-0.3901 0.101-0.9126-0.314-1.1255l-3.124-1.5625c-0.104-0.0532-0.265-0.1145-0.376-0.125z"/>
  <path opacity=".1" d="m6 3c-2.216 0-4 1.784-4 4v20c0 2.216 1.784 4 4 4h20c2.216 0 4-1.784 4-4v-17.375l-4 6.875v10.312c0 0.111-0.077 0.188-0.188 0.188h-19.624c-0.1113 0-0.188-0.077-0.188-0.188v-19.624c0-0.1113 0.0767-0.188 0.1875-0.188h13.25l2.375-4h-15.812zm18.062 2c-0.331-0.0315-0.642 0.1453-0.812 0.4375l-7.25 12.438-4.625-3.5c-0.415-0.21288-0.96073-0.07709-1.1875 0.3125l-2.0625 2.5c-0.22676 0.38957-0.10249 0.91212 0.3125 1.125-2e-7 0 8.4896 6.6202 8.5 6.625 0.09726 0.0499 0.2091 0.0503 0.3125 0.0625 0.33775 0.04006 0.70139-0.13922 0.875-0.4375l9.75-16.75c0.226-0.3901 0.102-0.9126-0.314-1.1255l-3.124-1.5625c-0.104-0.0532-0.265-0.1145-0.376-0.125z" fill="#fff"/>
  <path d="m6 2c-2.216 0-4 1.784-4 4v20c0 2.216 1.784 4 4 4h20c2.216 0 4-1.784 4-4v-17.375l-4 6.875v10.312c0 0.111-0.077 0.188-0.188 0.188h-19.624c-0.1113 0-0.188-0.077-0.188-0.188v-19.624c0-0.1113 0.0767-0.188 0.1875-0.188h13.25l2.375-4h-15.812zm18.062 2c-0.331-0.0315-0.642 0.1453-0.812 0.4375l-7.25 12.438-4.625-3.5c-0.415-0.21288-0.96073-0.07709-1.1875 0.3125l-2.0625 2.5c-0.22676 0.38957-0.10249 0.91212 0.3125 1.125-2e-7 0 8.4896 6.6202 8.5 6.625 0.09726 0.0499 0.2091 0.0503 0.3125 0.0625 0.33775 0.04006 0.70139-0.13923 0.875-0.4375l9.75-16.75c0.226-0.3901 0.101-0.9126-0.314-1.1255l-3.124-1.5625c-0.104-0.0532-0.265-0.1145-0.376-0.125z" fill="#fff"/>
 </g>
</svg>
