<?xml version="1.0" encoding="UTF-8" standalone="no"?>
<!-- Created with Inkscape (http://www.inkscape.org/) -->

<svg
   xmlns:dc="http://purl.org/dc/elements/1.1/"
   xmlns:cc="http://creativecommons.org/ns#"
   xmlns:rdf="http://www.w3.org/1999/02/22-rdf-syntax-ns#"
   xmlns:svg="http://www.w3.org/2000/svg"
   xmlns="http://www.w3.org/2000/svg"
   xmlns:sodipodi="http://sodipodi.sourceforge.net/DTD/sodipodi-0.dtd"
   xmlns:inkscape="http://www.inkscape.org/namespaces/inkscape"
   version="1.1"
   width="32"
   height="32"
   id="svg2"
   inkscape:version="0.48.4 r9939"
   sodipodi:docname="imprint-dusky.svg">
  <sodipodi:namedview
     pagecolor="#ffffff"
     bordercolor="#666666"
     borderopacity="1"
     objecttolerance="10"
     gridtolerance="10"
     guidetolerance="10"
     inkscape:pageopacity="0"
     inkscape:pageshadow="2"
     inkscape:window-width="1920"
     inkscape:window-height="1114"
     id="namedview11"
     showgrid="false"
     inkscape:zoom="22.021632"
     inkscape:cx="16"
     inkscape:cy="16"
     inkscape:window-x="-4"
     inkscape:window-y="-6"
     inkscape:window-maximized="1"
     inkscape:current-layer="svg2" />
  <title
     id="title2997">imprint</title>
  <metadata
     id="metadata20">
    <rdf:RDF>
      <cc:Work
         rdf:about="">
        <dc:format>image/svg+xml</dc:format>
        <dc:type
           rdf:resource="http://purl.org/dc/dcmitype/StillImage" />
        <dc:title>imprint</dc:title>
        <dc:creator>
          <cc:Agent>
            <dc:title>Christian Reiner</dc:title>
          </cc:Agent>
        </dc:creator>
        <dc:rights>
          <cc:Agent>
            <dc:title>Copyright 2012, Christian Reiner, Hamburg, Germany</dc:title>
          </cc:Agent>
        </dc:rights>
        <dc:publisher>
          <cc:Agent>
            <dc:title>Christian Reiner</dc:title>
          </cc:Agent>
        </dc:publisher>
        <dc:identifier>imprint</dc:identifier>
        <dc:subject>
          <rdf:Bag>
            <rdf:li>imprint legal app icon</rdf:li>
          </rdf:Bag>
        </dc:subject>
        <cc:license
           rdf:resource="http://creativecommons.org/licenses/by-nc-nd/3.0/" />
      </cc:Work>
      <cc:License
         rdf:about="http://creativecommons.org/licenses/by-nc-nd/3.0/">
        <cc:permits
           rdf:resource="http://creativecommons.org/ns#Reproduction" />
        <cc:permits
           rdf:resource="http://creativecommons.org/ns#Distribution" />
        <cc:requires
           rdf:resource="http://creativecommons.org/ns#Notice" />
        <cc:requires
           rdf:resource="http://creativecommons.org/ns#Attribution" />
        <cc:prohibits
           rdf:resource="http://creativecommons.org/ns#CommercialUse" />
      </cc:License>
    </rdf:RDF>
  </metadata>
  <defs
     id="defs4" />
  <g
     transform="scale(1.1340076,0.88182833)"
     style="font-size:21.92821312px;opacity:0.6;fill:#ffffff"
     id="text2986-8-4">
    <path
       d="m 6.4236328,29.693222 3.3066446,-0.474987 c 0.3410106,1.58329 0.8829826,2.691593 1.6259196,3.324913 0.742921,0.645491 1.753791,0.968239 3.032613,0.968244 1.242263,-5e-6 2.210506,-0.316663 2.904732,-0.949975 0.706377,-0.63332 1.059573,-1.376249 1.059588,-2.228788 C 18.353115,29.71149 18.13389,29.13907 17.695454,28.615366 16.940333,27.701929 14.869876,26.209982 11.484078,24.139521 9.6815548,23.031222 8.421012,22.166502 7.7024456,21.545358 6.9960506,20.912049 6.4175406,20.16912 5.9669139,19.31657 5.5162829,18.464038 5.2909685,17.574959 5.29097,16.649332 5.2909685,15.480144 5.6563432,14.420558 6.3870953,13.470568 7.1178422,12.520609 8.1226227,11.856845 9.4014398,11.479274 8.536714,10.651108 7.9277561,9.8899109 7.5745643,9.1956797 7.221365,8.4893078 7.0447672,7.7402896 7.0447704,6.9486229 7.0447672,5.3897121 7.6537251,4.0378257 8.8716459,2.8929593 10.089557,1.748144 11.703295,1.1757236 13.712866,1.1756964 c 2.277492,2.72e-5 4.055649,0.5419997 5.334476,1.6259191 1.278797,1.0839707 2.046084,2.655082 2.301863,4.7133388 L 17.932948,7.8620606 C 17.677172,6.3762239 17.226543,5.3409955 16.58106,4.7563723 15.947731,4.1717964 15.089101,3.8794966 14.005166,3.8794721 c -1.120493,2.45e-5 -2.02784,0.3045034 -2.722044,0.9134377 -0.682041,0.5968023 -1.023057,1.2605664 -1.023051,1.9912943 -6e-6,0.6333378 0.219219,1.2179374 0.657675,1.7538004 0.682026,0.8282026 2.545437,2.1679095 5.590239,4.0191265 1.912115,1.169215 3.203106,2.027845 3.872976,2.575894 0.864704,0.730763 1.49802,1.48587 1.899951,2.265326 0.414073,0.779477 0.621118,1.625928 0.621138,2.539356 -2e-5,1.376254 -0.444559,2.551542 -1.33362,3.52587 -0.511542,0.560246 -1.449337,1.126577 -2.813388,1.698994 0.974318,0.742932 1.698978,1.540667 2.173982,2.393207 0.487149,0.852542 0.730732,1.765979 0.73075,2.740313 -1.8e-5,1.071764 -0.304497,2.082634 -0.913438,3.032614 -0.608974,0.962148 -1.485874,1.692898 -2.6307,2.19225 -1.144855,0.511518 -2.38104,0.76728 -3.708557,0.767288 -2.32623,-8e-6 -4.171372,-0.584608 -5.5354331,-1.753801 C 7.5075752,33.377416 6.6915716,31.763678 6.4236328,29.693222 M 17.110854,23.956833 c 0.901245,-0.462803 1.571098,-0.998686 2.009563,-1.60765 0.450614,-0.621131 0.675928,-1.223999 0.675944,-1.808607 -1.6e-5,-0.694204 -0.316674,-1.424953 -0.949975,-2.19225 -0.64551,-0.767277 -2.015666,-1.796416 -4.11047,-3.08742 -1.668555,-1.023036 -2.910829,-1.863398 -3.726826,-2.521088 -0.986519,0.560257 -1.6929099,1.120498 -2.1191753,1.680726 -0.4140965,0.560255 -0.6211422,1.181392 -0.6211377,1.863413 -4.5e-6,0.767299 0.2801162,1.498048 0.8403627,2.19225 0.560236,0.694222 1.8207783,1.619838 3.7816323,2.776851 1.631998,0.96216 3.038691,1.863418 4.220082,2.703775"
       style="font-size:37.41440964px;font-family:Arial"
       id="path2996" />
  </g>
  <g
     transform="scale(1.1340076,0.88182833)"
     style="font-size:21.92821312px;opacity:0.7;fill:#000000"
     id="text2986-8-41">
    <path
       d="m 6.4491529,28.517546 3.3066446,-0.474988 c 0.3410105,1.58329 0.8829825,2.691594 1.6259195,3.324914 0.742921,0.645491 1.753791,0.968239 3.032613,0.968244 1.242263,-5e-6 2.210506,-0.316663 2.904732,-0.949975 0.706378,-0.633321 1.059573,-1.376249 1.059588,-2.228788 -1.5e-5,-0.621139 -0.21924,-1.19356 -0.657675,-1.717263 C 16.965853,26.526253 14.895396,25.034306 11.509598,22.963845 9.7070749,21.855546 8.4465321,20.990825 7.7279657,20.369682 7.0215707,19.736372 6.4430607,18.993444 5.992434,18.140893 5.541803,17.288362 5.3164886,16.399283 5.3164901,15.473655 5.3164886,14.304468 5.6818633,13.244881 6.4126154,12.294892 7.1433622,11.344933 8.1481427,10.681169 9.4269599,10.303598 8.5622341,9.4754319 7.9532762,8.7142345 7.6000844,8.0200033 7.2468851,7.3136314 7.0702873,6.5646132 7.0702905,5.7729465 7.0702873,4.2140358 7.6792452,2.8621493 8.897166,1.717283 10.115077,0.57246767 11.728815,4.7264011e-5 13.738386,2.0025298e-5 16.015879,4.7264011e-5 17.794036,0.54201978 19.072862,1.6259392 c 1.278797,1.0839706 2.046084,2.655082 2.301863,4.7133387 L 17.958468,6.6863842 C 17.702692,5.2005476 17.252063,4.1653192 16.60658,3.5806959 15.973252,2.99612 15.114621,2.7038203 14.030686,2.7037957 c -1.120493,2.46e-5 -2.02784,0.3045035 -2.722044,0.9134378 -0.682041,0.5968023 -1.023057,1.2605664 -1.023051,1.9912942 -6e-6,0.6333378 0.219219,1.2179374 0.657676,1.7538005 0.682025,0.8282026 2.545436,2.1679099 5.590238,4.0191258 1.912116,1.169215 3.203106,2.027846 3.872976,2.575895 0.864704,0.730762 1.49802,1.48587 1.899951,2.265325 0.414073,0.779477 0.621119,1.625929 0.621138,2.539357 -1.9e-5,1.376253 -0.444559,2.551542 -1.333619,3.52587 -0.511543,0.560246 -1.449338,1.126577 -2.813389,1.698994 0.974318,0.742932 1.698978,1.540667 2.173982,2.393207 0.487149,0.852542 0.730732,1.765979 0.73075,2.740313 -1.8e-5,1.071764 -0.304496,2.082634 -0.913437,3.032613 -0.608975,0.962149 -1.485875,1.692898 -2.630701,2.192251 -1.144855,0.511517 -2.38104,0.76728 -3.708557,0.767288 -2.32623,-8e-6 -4.171372,-0.584608 -5.535433,-1.753801 C 7.5330953,32.20174 6.7170917,30.588002 6.4491529,28.517546 M 17.136374,22.781157 c 0.901245,-0.462803 1.571098,-0.998686 2.009563,-1.60765 0.450614,-0.621131 0.675928,-1.224 0.675944,-1.808607 -1.6e-5,-0.694204 -0.316674,-1.424954 -0.949975,-2.192251 -0.64551,-0.767276 -2.015666,-1.796415 -4.11047,-3.087419 -1.668555,-1.023036 -2.910829,-1.863398 -3.726826,-2.521088 -0.986519,0.560257 -1.6929098,1.120498 -2.1191752,1.680725 -0.4140965,0.560255 -0.6211422,1.181392 -0.6211377,1.863413 -4.5e-6,0.767299 0.2801162,1.498049 0.8403627,2.192251 0.560236,0.694222 1.8207792,1.619838 3.7816322,2.77685 1.631998,0.962161 3.038691,1.863419 4.220082,2.703776"
       style="font-size:37.41440964px;font-family:Arial"
       id="path2993" />
  </g>
</svg>
